<?xml version="1.0" encoding="UTF-8" standalone="no"?>
<!-- Created with Inkscape (http://www.inkscape.org/) -->

<svg
   width="202.05136mm"
   height="58.540768mm"
   viewBox="0 0 202.05136 58.540768"
   version="1.1"
   id="svg8"
   inkscape:version="1.2.1 (9c6d41e, 2022-07-14)"
   sodipodi:docname="quad.svg"
   xmlns:inkscape="http://www.inkscape.org/namespaces/inkscape"
   xmlns:sodipodi="http://sodipodi.sourceforge.net/DTD/sodipodi-0.dtd"
   xmlns="http://www.w3.org/2000/svg"
   xmlns:svg="http://www.w3.org/2000/svg"
   xmlns:rdf="http://www.w3.org/1999/02/22-rdf-syntax-ns#"
   xmlns:cc="http://creativecommons.org/ns#"
   xmlns:dc="http://purl.org/dc/elements/1.1/">
  <defs
     id="defs2">
    <clipPath
       id="clipPath2746">
      <path
         clip-rule="nonzero"
         d="M 0,0 H 24 V 11.953125 H 0 Z m 0,0"
         id="path4544" />
    </clipPath>
    <clipPath
       id="clipPath1042">
      <path
         clip-rule="nonzero"
         d="M 0,0 H 33 V 11.953125 H 0 Z m 0,0"
         id="path6775" />
    </clipPath>
    <clipPath
       id="clipPath4405">
      <path
         clip-rule="nonzero"
         d="M 0,0 H 6 V 7.472656 H 0 Z m 0,0"
         id="path6970" />
    </clipPath>
    <clipPath
       id="clipPath682">
      <path
         clip-rule="nonzero"
         d="M 0,0 H 6 V 7.472656 H 0 Z m 0,0"
         id="path3388" />
    </clipPath>
    <clipPath
       id="clipPath6076">
      <path
         clip-rule="nonzero"
         d="m 6,1 h 7.945312 V 7 H 6 Z m 0,0"
         id="path2701" />
    </clipPath>
    <clipPath
       id="clipPath9957">
      <path
         clip-rule="nonzero"
         d="M 0,2 H 29 V 8.300781 H 0 Z m 0,0"
         id="path9011" />
    </clipPath>
    <clipPath
       id="clipPath2479">
      <path
         clip-rule="nonzero"
         d="m 28,3 h 7 v 5.300781 h -7 z m 0,0"
         id="path2222" />
    </clipPath>
    <clipPath
       id="clipPath3717">
      <path
         clip-rule="nonzero"
         d="m 34,2 h 6 v 6.300781 h -6 z m 0,0"
         id="path7681" />
    </clipPath>
    <clipPath
       id="clipPath5629">
      <path
         clip-rule="nonzero"
         d="M 43,0 H 85 V 8.300781 H 43 Z m 0,0"
         id="path1300" />
    </clipPath>
    <clipPath
       id="clipPath111">
      <path
         clip-rule="nonzero"
         d="m 0,3 h 6 v 8.953125 H 0 Z m 0,0"
         id="path5649" />
    </clipPath>
    <clipPath
       id="clipPath9938">
      <path
         clip-rule="nonzero"
         d="m 17,0 h 4 v 11.953125 h -4 z m 0,0"
         id="path6168" />
    </clipPath>
    <clipPath
       id="clipPath5628">
      <path
         clip-rule="nonzero"
         d="m 20,3 h 7 v 8.953125 h -7 z m 0,0"
         id="path1424" />
    </clipPath>
    <clipPath
       id="clipPath5382">
      <path
         clip-rule="nonzero"
         d="m 32,0 h 3 v 11.953125 h -3 z m 0,0"
         id="path6835" />
    </clipPath>
    <clipPath
       id="clipPath5570">
      <path
         clip-rule="nonzero"
         d="m 51,0 h 9 v 11.953125 h -9 z m 0,0"
         id="path8054" />
    </clipPath>
    <clipPath
       id="clipPath3165">
      <path
         clip-rule="nonzero"
         d="m 75,3 h 6 v 8.953125 h -6 z m 0,0"
         id="path6966" />
    </clipPath>
    <clipPath
       id="clipPath4651">
      <path
         clip-rule="nonzero"
         d="m 81,0 h 4 v 11.953125 h -4 z m 0,0"
         id="path97" />
    </clipPath>
    <clipPath
       id="clipPath6183">
      <path
         clip-rule="nonzero"
         d="m 97,0 h 4 v 11.953125 h -4 z m 0,0"
         id="path6015" />
    </clipPath>
    <clipPath
       id="clipPath4744">
      <path
         clip-rule="nonzero"
         d="m 100,3 h 7 v 8.953125 h -7 z m 0,0"
         id="path5158" />
    </clipPath>
    <clipPath
       id="clipPath2720">
      <path
         clip-rule="nonzero"
         d="m 115,0 h 4 v 11.953125 h -4 z m 0,0"
         id="path2304" />
    </clipPath>
  </defs>
  <sodipodi:namedview
     id="base"
     pagecolor="#ffffff"
     bordercolor="#666666"
     borderopacity="1.0"
     inkscape:pageopacity="0.0"
     inkscape:pageshadow="2"
     inkscape:zoom="0.46601257"
     inkscape:cx="378.74515"
     inkscape:cy="701.69781"
     inkscape:document-units="mm"
     inkscape:current-layer="layer1"
     showgrid="false"
     showborder="true"
     width="200mm"
     showguides="true"
     inkscape:guide-bbox="true"
     inkscape:window-width="1440"
     inkscape:window-height="872"
     inkscape:window-x="0"
     inkscape:window-y="28"
     inkscape:window-maximized="0"
     inkscape:showpageshadow="2"
     inkscape:pagecheckerboard="0"
     inkscape:deskcolor="#d1d1d1">
    <inkscape:grid
       type="xygrid"
       id="grid815"
       units="mm"
       spacingx="10"
       spacingy="10"
       empspacing="4"
       dotted="false"
       originx="0"
       originy="0" />
  </sodipodi:namedview>
  <metadata
     id="metadata5">
    <rdf:RDF>
      <cc:Work
         rdf:about="">
        <dc:format>image/svg+xml</dc:format>
        <dc:type
           rdf:resource="http://purl.org/dc/dcmitype/StillImage" />
      </cc:Work>
    </rdf:RDF>
  </metadata>
  <g
     inkscape:label="Layer 1"
     inkscape:groupmode="layer"
     id="layer1"
     transform="translate(0,-177)">
    <path
       style="fill:#1a1a1a;fill-opacity:0;stroke:#1a1a1a;stroke-width:0.1"
       d="m 67.528627,185.10278 0.798239,37.25125 47.362304,-0.53216"
       id="path235" />
    <path
       style="fill:#1a1a1a;fill-opacity:0;stroke:#1a1a1a;stroke-width:0.1"
       d="m 68.592947,222.08795 c 27.14019,-37.25125 44.169343,-0.26608 44.169343,-0.26608"
       id="path237" />
    <path
       style="fill:#1a1a1a;fill-opacity:0;stroke:#1a1a1a;stroke-width:0.1"
       d="m 64.895655,189.27524 2.565177,-4.10429 2.308664,4.36081"
       id="path241" />
    <path
       style="fill:#1a1a1a;fill-opacity:0;stroke:#1a1a1a;stroke-width:0.1"
       d="m 113.37756,225.18776 2.8217,-3.84777 -3.33474,-2.05214"
       id="path243" />
    <path
       style="fill:#1a1a1a;fill-opacity:0;stroke:#1a1a1a;stroke-width:0.1"
       d="m 76.952,212.61838 23.34314,-5.38688"
       id="path245" />
    <path
       style="fill:#1a1a1a;fill-opacity:0;stroke:#1a1a1a;stroke-width:0.1"
       d="m 92.086557,221.59651 v 3.59125 l -0.76955,-20.0084"
       id="path247" />
    <g
       inkscape:label=""
       transform="translate(54.506705,186.96668)"
       id="g283">
      <g
         clip-path="url(#clipPath2746)"
         id="g32"
         transform="matrix(0.352778,0,0,0.352778,-0.170877,9.7028e-4)">
        <g
           fill="#000000"
           fill-opacity="1"
           id="g30">
          <g
             id="use22"
             transform="translate(0,8.9659996)">
            <path
               d="m 7.140625,-7.25 c 0,-0.453125 0.03125,-0.5625 0.890625,-0.5625 H 8.265625 V -8.15625 C 7.984375,-8.140625 7,-8.140625 6.65625,-8.140625 c -0.359375,0 -1.34375,0 -1.625,-0.015625 v 0.34375 h 0.234375 c 0.859375,0 0.90625,0.109375 0.90625,0.5625 v 2.828125 H 2.59375 V -7.25 c 0,-0.453125 0.03125,-0.5625 0.890625,-0.5625 h 0.25 v -0.34375 c -0.296875,0.015625 -1.265625,0.015625 -1.625,0.015625 -0.359375,0 -1.328125,0 -1.625,-0.015625 v 0.34375 h 0.25 C 1.59375,-7.8125 1.625,-7.703125 1.625,-7.25 v 6.34375 c 0,0.4375 -0.03125,0.5625 -0.890625,0.5625 h -0.25 V 0 c 0.296875,-0.03125 1.265625,-0.03125 1.625,-0.03125 0.359375,0 1.328125,0 1.625,0.03125 v -0.34375 h -0.25 c -0.859375,0 -0.890625,-0.125 -0.890625,-0.5625 v -3.171875 h 3.578125 v 3.171875 c 0,0.4375 -0.046875,0.5625 -0.90625,0.5625 H 5.03125 V 0 c 0.28125,-0.03125 1.265625,-0.03125 1.609375,-0.03125 0.359375,0 1.34375,0 1.625,0.03125 V -0.34375 H 8.03125 c -0.859375,0 -0.890625,-0.125 -0.890625,-0.5625 z m 0,0"
               id="path38" />
          </g>
          <g
             id="use24"
             transform="translate(8.7751169,8.9659996)">
            <path
               d="m 3.890625,2.90625 c 0,-0.03125 0,-0.0625 -0.203125,-0.265625 C 2.484375,1.4375 1.8125,-0.53125 1.8125,-2.96875 c 0,-2.328125 0.5625,-4.328125 1.953125,-5.734375 0.125,-0.109375 0.125,-0.125 0.125,-0.171875 0,-0.0625 -0.0625,-0.09375 -0.109375,-0.09375 -0.15625,0 -1.140625,0.859375 -1.71875,2.03125 -0.609375,1.21875 -0.890625,2.484375 -0.890625,3.96875 0,1.0625 0.171875,2.484375 0.78125,3.75 C 2.671875,2.21875 3.640625,3 3.78125,3 3.828125,3 3.890625,2.96875 3.890625,2.90625 Z m 0,0"
               id="path42" />
          </g>
          <g
             id="use26"
             transform="translate(13.327657,8.9659996)">
            <path
               d="m 2.921875,1.96875 c -0.765625,0 -0.90625,0 -0.90625,-0.53125 V -0.640625 C 2.234375,-0.34375 2.71875,0.125 3.484375,0.125 c 1.375,0 2.59375,-1.171875 2.59375,-2.703125 0,-1.515625 -1.125,-2.6875 -2.4375,-2.6875 -1.046875,0 -1.609375,0.75 -1.640625,0.796875 v -0.796875 l -1.671875,0.125 v 0.34375 c 0.84375,0 0.921875,0.09375 0.921875,0.609375 v 5.625 c 0,0.53125 -0.140625,0.53125 -0.921875,0.53125 V 2.3125 C 0.640625,2.296875 1.296875,2.296875 1.625,2.296875 c 0.34375,0 1,0 1.296875,0.015625 z M 2.015625,-3.8125 c 0,-0.234375 0,-0.234375 0.140625,-0.4375 0.359375,-0.53125 0.9375,-0.765625 1.390625,-0.765625 0.90625,0 1.609375,1.09375 1.609375,2.4375 0,1.421875 -0.8125,2.453125 -1.71875,2.453125 -0.375,0 -0.71875,-0.15625 -0.96875,-0.375 C 2.203125,-0.78125 2.015625,-1.015625 2.015625,-1.34375 Z m 0,0"
               id="path46" />
          </g>
          <g
             id="use28"
             transform="translate(19.831285,8.9659996)">
            <path
               d="M 3.375,-2.96875 C 3.375,-3.890625 3.25,-5.359375 2.578125,-6.75 1.875,-8.1875 0.890625,-8.96875 0.765625,-8.96875 c -0.046875,0 -0.109375,0.03125 -0.109375,0.09375 0,0.046875 0,0.0625 0.203125,0.265625 1.203125,1.203125 1.859375,3.1875 1.859375,5.625 0,2.3125 -0.5625,4.3125 -1.9375,5.71875 C 0.65625,2.84375 0.65625,2.875 0.65625,2.90625 0.65625,2.96875 0.71875,3 0.765625,3 0.921875,3 1.90625,2.140625 2.484375,0.96875 3.09375,-0.25 3.375,-1.546875 3.375,-2.96875 Z m 0,0"
               id="path50" />
          </g>
        </g>
      </g>
    </g>
    <g
       inkscape:label=""
       transform="translate(88.110567,227.49653)"
       id="g370">
      <g
         clip-path="url(#clipPath1042)"
         id="g37"
         transform="matrix(0.352778,0,0,0.352778,-0.115755,9.7028e-4)">
        <g
           fill="#000000"
           fill-opacity="1"
           id="g35">
          <g
             id="use25"
             transform="translate(0,8.9659996)">
            <path
               d="m 2.921875,1.96875 c -0.765625,0 -0.90625,0 -0.90625,-0.53125 V -0.640625 C 2.234375,-0.34375 2.71875,0.125 3.484375,0.125 c 1.375,0 2.59375,-1.171875 2.59375,-2.703125 0,-1.515625 -1.125,-2.6875 -2.4375,-2.6875 -1.046875,0 -1.609375,0.75 -1.640625,0.796875 v -0.796875 l -1.671875,0.125 v 0.34375 c 0.84375,0 0.921875,0.09375 0.921875,0.609375 v 5.625 c 0,0.53125 -0.140625,0.53125 -0.921875,0.53125 V 2.3125 C 0.640625,2.296875 1.296875,2.296875 1.625,2.296875 c 0.34375,0 1,0 1.296875,0.015625 z M 2.015625,-3.8125 c 0,-0.234375 0,-0.234375 0.140625,-0.4375 0.359375,-0.53125 0.9375,-0.765625 1.390625,-0.765625 0.90625,0 1.609375,1.09375 1.609375,2.4375 0,1.421875 -0.8125,2.453125 -1.71875,2.453125 -0.375,0 -0.71875,-0.15625 -0.96875,-0.375 C 2.203125,-0.78125 2.015625,-1.015625 2.015625,-1.34375 Z m 0,0"
               id="path43" />
          </g>
          <g
             id="use27"
             transform="translate(6.5036292,8.9659996)">
            <path
               d="m 8.0625,-3.875 c 0.171875,0 0.390625,0 0.390625,-0.21875 C 8.453125,-4.3125 8.25,-4.3125 8.0625,-4.3125 H 1.03125 c -0.171875,0 -0.390625,0 -0.390625,0.21875 0,0.21875 0.203125,0.21875 0.390625,0.21875 z m 0,2.21875 c 0.171875,0 0.390625,0 0.390625,-0.203125 C 8.453125,-2.09375 8.25,-2.09375 8.0625,-2.09375 H 1.03125 c -0.171875,0 -0.390625,0 -0.390625,0.21875 0,0.21875 0.203125,0.21875 0.390625,0.21875 z m 0,0"
               id="path47" />
          </g>
          <g
             id="use29"
             transform="translate(15.608709,8.9659996)">
            <path
               d="m 3.4375,-7.65625 c 0,-0.28125 0,-0.296875 -0.234375,-0.296875 C 2.921875,-7.625 2.3125,-7.1875 1.09375,-7.1875 v 0.34375 c 0.265625,0 0.859375,0 1.53125,-0.296875 v 6.21875 c 0,0.4375 -0.046875,0.578125 -1.09375,0.578125 h -0.375 V 0 c 0.328125,-0.03125 1.484375,-0.03125 1.875,-0.03125 0.40625,0 1.546875,0 1.875,0.03125 v -0.34375 h -0.375 c -1.046875,0 -1.09375,-0.140625 -1.09375,-0.578125 z m 0,0"
               id="path51" />
          </g>
          <g
             id="use31"
             transform="translate(21.461975,8.9659996)">
            <path
               d="m 5.140625,-8.53125 c 0.0625,-0.15625 0.0625,-0.1875 0.0625,-0.203125 0,-0.15625 -0.125,-0.234375 -0.21875,-0.234375 -0.15625,0 -0.1875,0.109375 -0.25,0.265625 L 0.703125,2.5625 c -0.0625,0.15625 -0.0625,0.171875 -0.0625,0.203125 0,0.125 0.09375,0.21875 0.234375,0.21875 0.15625,0 0.1875,-0.109375 0.234375,-0.25 z m 0,0"
               id="path55" />
          </g>
          <g
             id="use33"
             transform="translate(27.315241,8.9659996)">
            <path
               d="M 5.265625,-2.015625 H 5 c -0.046875,0.203125 -0.140625,0.875 -0.25,1.0625 C 4.65625,-0.84375 3.984375,-0.84375 3.625,-0.84375 H 1.40625 c 0.328125,-0.28125 1.0625,-1.046875 1.359375,-1.328125 1.828125,-1.671875 2.5,-2.296875 2.5,-3.484375 0,-1.375 -1.09375,-2.296875 -2.484375,-2.296875 -1.375,0 -2.203125,1.1875 -2.203125,2.21875 0,0.609375 0.53125,0.609375 0.5625,0.609375 0.265625,0 0.5625,-0.1875 0.5625,-0.5625 0,-0.34375 -0.21875,-0.5625 -0.5625,-0.5625 -0.09375,0 -0.125,0 -0.15625,0.015625 0.21875,-0.8125 0.875,-1.375 1.640625,-1.375 1.015625,0 1.640625,0.859375 1.640625,1.953125 C 4.265625,-4.640625 3.6875,-3.75 3,-2.984375 L 0.578125,-0.28125 V 0 h 4.375 z m 0,0"
               id="path59" />
          </g>
        </g>
      </g>
    </g>
    <g
       inkscape:label=""
       transform="translate(73.745555,210.56634)"
       id="g477">
      <g
         clip-path="url(#clipPath4405)"
         id="g21"
         transform="matrix(0.352778,0,0,0.352778,0.132292,0.0418483)">
        <g
           fill="#000000"
           fill-opacity="1"
           id="g19">
          <g
             id="use17"
             transform="translate(0,5.1469998)">
            <path
               d="M 0.515625,1.515625 C 0.4375,1.875 0.375,1.96875 -0.109375,1.96875 c -0.140625,0 -0.265625,0 -0.265625,0.234375 0,0.015625 0.015625,0.109375 0.140625,0.109375 0.15625,0 0.328125,-0.015625 0.484375,-0.015625 h 0.515625 c 0.25,0 0.859375,0.015625 1.109375,0.015625 0.078125,0 0.21875,0 0.21875,-0.203125 C 2.09375,1.96875 2.015625,1.96875 1.8125,1.96875 1.25,1.96875 1.21875,1.890625 1.21875,1.796875 1.21875,1.65625 1.75,-0.40625 1.828125,-0.6875 c 0.125,0.34375 0.453125,0.8125 1.078125,0.8125 1.34375,0 2.8125,-1.765625 2.8125,-3.515625 0,-1.109375 -0.625,-1.875 -1.515625,-1.875 -0.765625,0 -1.421875,0.734375 -1.546875,0.90625 -0.09375,-0.59375 -0.5625,-0.90625 -1.046875,-0.90625 -0.34375,0 -0.625,0.15625 -0.84375,0.609375 C 0.546875,-4.21875 0.375,-3.484375 0.375,-3.4375 c 0,0.046875 0.0625,0.109375 0.140625,0.109375 0.09375,0 0.109375,-0.015625 0.171875,-0.296875 0.1875,-0.703125 0.40625,-1.40625 0.890625,-1.40625 0.28125,0 0.375,0.1875 0.375,0.546875 0,0.28125 -0.046875,0.40625 -0.09375,0.625 z m 2.0625,-5.25 C 2.671875,-4.0625 3,-4.40625 3.1875,-4.578125 c 0.140625,-0.125 0.53125,-0.453125 0.984375,-0.453125 0.53125,0 0.765625,0.53125 0.765625,1.140625 0,0.578125 -0.328125,1.9375 -0.640625,2.546875 C 4,-0.6875 3.453125,-0.125 2.90625,-0.125 c -0.8125,0 -0.953125,-1.015625 -0.953125,-1.0625 0,-0.046875 0.03125,-0.140625 0.046875,-0.203125 z m 0,0"
               id="path31" />
          </g>
        </g>
      </g>
      <g
         fill="#000000"
         fill-opacity="1"
         id="g25"
         transform="matrix(0.352778,0,0,0.352778,0.132292,0.0418483)">
        <g
           id="use23"
           transform="translate(5.875,6.941)">
          <path
             d="m 3.09375,-4.828125 c 0.0625,-0.265625 0.078125,-0.34375 0.6875,-0.34375 0.171875,0 0.28125,0 0.28125,-0.15625 0,-0.015625 -0.015625,-0.109375 -0.140625,-0.109375 -0.125,0 -0.375,0.015625 -0.5,0.015625 h -1.09375 c -0.109375,0 -0.40625,-0.015625 -0.515625,-0.015625 -0.03125,0 -0.15625,0 -0.15625,0.140625 0,0.125 0.09375,0.125 0.25,0.125 0.515625,0 0.515625,0.046875 0.515625,0.140625 0,0.015625 0,0.046875 -0.046875,0.171875 L 1.328125,-0.625 c -0.078125,0.28125 -0.09375,0.359375 -0.6875,0.359375 -0.1875,0 -0.28125,0 -0.28125,0.15625 0,0.03125 0.03125,0.109375 0.125,0.109375 0.109375,0 0.375,-0.015625 0.5,-0.03125 H 2.09375 C 2.203125,-0.015625 2.484375,0 2.59375,0 2.640625,0 2.75,0 2.75,-0.15625 c 0,-0.109375 -0.09375,-0.109375 -0.25,-0.109375 -0.125,0 -0.171875,0 -0.3125,-0.015625 C 2.0625,-0.296875 1.984375,-0.296875 1.984375,-0.390625 1.984375,-0.4375 2,-0.4375 2.03125,-0.546875 Z m 0,0"
             id="path35" />
        </g>
      </g>
    </g>
    <g
       inkscape:label=""
       transform="translate(101.4495,204.66643)"
       id="g604">
      <g
         clip-path="url(#clipPath682)"
         id="g24"
         transform="matrix(0.352778,0,0,0.352778,0.132292,0.0418483)">
        <g
           fill="#000000"
           fill-opacity="1"
           id="g22">
          <g
             id="use20"
             transform="translate(0,5.1469998)">
            <path
               d="M 0.515625,1.515625 C 0.4375,1.875 0.375,1.96875 -0.109375,1.96875 c -0.140625,0 -0.265625,0 -0.265625,0.234375 0,0.015625 0.015625,0.109375 0.140625,0.109375 0.15625,0 0.328125,-0.015625 0.484375,-0.015625 h 0.515625 c 0.25,0 0.859375,0.015625 1.109375,0.015625 0.078125,0 0.21875,0 0.21875,-0.203125 C 2.09375,1.96875 2.015625,1.96875 1.8125,1.96875 1.25,1.96875 1.21875,1.890625 1.21875,1.796875 1.21875,1.65625 1.75,-0.40625 1.828125,-0.6875 c 0.125,0.34375 0.453125,0.8125 1.078125,0.8125 1.34375,0 2.8125,-1.765625 2.8125,-3.515625 0,-1.109375 -0.625,-1.875 -1.515625,-1.875 -0.765625,0 -1.421875,0.734375 -1.546875,0.90625 -0.09375,-0.59375 -0.5625,-0.90625 -1.046875,-0.90625 -0.34375,0 -0.625,0.15625 -0.84375,0.609375 C 0.546875,-4.21875 0.375,-3.484375 0.375,-3.4375 c 0,0.046875 0.0625,0.109375 0.140625,0.109375 0.09375,0 0.109375,-0.015625 0.171875,-0.296875 0.1875,-0.703125 0.40625,-1.40625 0.890625,-1.40625 0.28125,0 0.375,0.1875 0.375,0.546875 0,0.28125 -0.046875,0.40625 -0.09375,0.625 z m 2.0625,-5.25 C 2.671875,-4.0625 3,-4.40625 3.1875,-4.578125 c 0.140625,-0.125 0.53125,-0.453125 0.984375,-0.453125 0.53125,0 0.765625,0.53125 0.765625,1.140625 0,0.578125 -0.328125,1.9375 -0.640625,2.546875 C 4,-0.6875 3.453125,-0.125 2.90625,-0.125 c -0.8125,0 -0.953125,-1.015625 -0.953125,-1.0625 0,-0.046875 0.03125,-0.140625 0.046875,-0.203125 z m 0,0"
               id="path36" />
          </g>
        </g>
      </g>
      <g
         clip-path="url(#clipPath6076)"
         id="g602"
         transform="matrix(0.352778,0,0,0.352778,0.132292,0.0418483)">
        <g
           fill="#000000"
           fill-opacity="1"
           id="g28">
          <g
             id="g599"
             transform="translate(5.875,6.941)">
            <path
               d="m 6.3125,-4.578125 c 0.09375,-0.390625 0.265625,-0.578125 0.84375,-0.59375 0.078125,0 0.140625,-0.0625 0.140625,-0.15625 0,-0.046875 -0.03125,-0.109375 -0.109375,-0.109375 -0.0625,0 -0.21875,0.015625 -0.796875,0.015625 -0.640625,0 -0.75,-0.015625 -0.828125,-0.015625 -0.125,0 -0.140625,0.078125 -0.140625,0.140625 0,0.109375 0.09375,0.125 0.171875,0.125 0.484375,0.015625 0.484375,0.21875 0.484375,0.328125 0,0.046875 0,0.09375 -0.03125,0.21875 l -0.875,3.484375 L 3.25,-5.296875 C 3.1875,-5.4375 3.171875,-5.4375 2.984375,-5.4375 H 1.9375 c -0.140625,0 -0.234375,0 -0.234375,0.140625 0,0.125 0.09375,0.125 0.25,0.125 0.078125,0 0.3125,0 0.5,0.046875 L 1.375,-0.859375 C 1.28125,-0.453125 1.078125,-0.28125 0.546875,-0.265625 0.5,-0.265625 0.390625,-0.25 0.390625,-0.109375 0.390625,-0.0625 0.4375,0 0.515625,0 0.546875,0 0.734375,-0.03125 1.3125,-0.03125 1.9375,-0.03125 2.0625,0 2.125,0 c 0.03125,0 0.15625,0 0.15625,-0.15625 0,-0.09375 -0.09375,-0.109375 -0.140625,-0.109375 -0.296875,0 -0.53125,-0.046875 -0.53125,-0.328125 0,-0.046875 0.03125,-0.15625 0.03125,-0.15625 l 1.03125,-4.171875 H 2.6875 l 2.21875,4.78125 C 4.953125,-0.015625 4.96875,0 5.046875,0 c 0.109375,0 0.125,-0.03125 0.15625,-0.171875 z m 0,0"
               id="path40" />
          </g>
        </g>
      </g>
    </g>
    <g
       inkscape:label=""
       transform="translate(86.314937,185.68409)"
       id="g792">
      <g
         clip-path="url(#clipPath9957)"
         id="g61"
         transform="matrix(0.352778,0,0,0.352778,-0.148828,0.0422892)">
        <g
           fill="#000000"
           fill-opacity="1"
           id="g59">
          <g
             id="use49"
             transform="translate(0,8.302)">
            <path
               d="m 4.328125,-4.421875 c -0.140625,0 -0.59375,0 -0.59375,0.484375 0,0.296875 0.203125,0.5 0.5,0.5 0.265625,0 0.5,-0.171875 0.5,-0.515625 0,-0.796875 -0.84375,-1.375 -1.8125,-1.375 -1.390625,0 -2.5,1.234375 -2.5,2.75 0,1.53125 1.140625,2.703125 2.5,2.703125 1.578125,0 1.9375,-1.4375 1.9375,-1.546875 0,-0.109375 -0.09375,-0.109375 -0.125,-0.109375 -0.109375,0 -0.125,0.03125 -0.15625,0.1875 C 4.3125,-0.5 3.671875,-0.140625 3.03125,-0.140625 c -0.734375,0 -1.703125,-0.640625 -1.703125,-2.453125 0,-1.984375 1.015625,-2.46875 1.609375,-2.46875 0.453125,0 1.109375,0.171875 1.390625,0.640625 z m 0,0"
               id="path99" />
          </g>
          <g
             id="use51"
             transform="translate(5.2029028,8.302)">
            <path
               d="m 5.484375,-2.5625 c 0,-1.53125 -1.171875,-2.765625 -2.5625,-2.765625 -1.421875,0 -2.5625,1.265625 -2.5625,2.765625 0,1.53125 1.1875,2.6875 2.5625,2.6875 1.40625,0 2.5625,-1.171875 2.5625,-2.6875 z m -2.5625,2.421875 c -0.4375,0 -0.96875,-0.1875 -1.3125,-0.78125 -0.328125,-0.53125 -0.34375,-1.234375 -0.34375,-1.75 0,-0.453125 0,-1.171875 0.375,-1.71875 C 1.96875,-4.90625 2.5,-5.09375 2.921875,-5.09375 c 0.453125,0 0.96875,0.21875 1.28125,0.6875 0.375,0.546875 0.375,1.296875 0.375,1.734375 0,0.421875 0,1.171875 -0.3125,1.734375 C 3.9375,-0.375 3.375,-0.140625 2.921875,-0.140625 Z m 0,0"
               id="path103" />
          </g>
          <g
             id="use53"
             transform="translate(11.056169,8.302)">
            <path
               d="m 5.3125,-2.90625 c 0,-1.109375 0,-1.4375 -0.265625,-1.828125 -0.34375,-0.46875 -0.90625,-0.53125 -1.3125,-0.53125 -1.171875,0 -1.625,0.984375 -1.71875,1.21875 v -1.21875 l -1.640625,0.125 v 0.34375 c 0.8125,0 0.921875,0.09375 0.921875,0.671875 v 3.234375 c 0,0.546875 -0.140625,0.546875 -0.921875,0.546875 V 0 c 0.3125,-0.03125 0.96875,-0.03125 1.296875,-0.03125 0.34375,0 1,0 1.296875,0.03125 v -0.34375 c -0.75,0 -0.90625,0 -0.90625,-0.546875 v -2.21875 c 0,-1.25 0.828125,-1.921875 1.578125,-1.921875 0.734375,0 0.90625,0.609375 0.90625,1.34375 v 2.796875 c 0,0.546875 -0.140625,0.546875 -0.90625,0.546875 V 0 c 0.296875,-0.03125 0.953125,-0.03125 1.28125,-0.03125 0.34375,0 1,0 1.3125,0.03125 v -0.34375 c -0.609375,0 -0.90625,0 -0.921875,-0.359375 z m 0,0"
               id="path107" />
          </g>
          <g
             id="use55"
             transform="translate(17.559797,8.302)">
            <path
               d="m 4.328125,-4.421875 c -0.140625,0 -0.59375,0 -0.59375,0.484375 0,0.296875 0.203125,0.5 0.5,0.5 0.265625,0 0.5,-0.171875 0.5,-0.515625 0,-0.796875 -0.84375,-1.375 -1.8125,-1.375 -1.390625,0 -2.5,1.234375 -2.5,2.75 0,1.53125 1.140625,2.703125 2.5,2.703125 1.578125,0 1.9375,-1.4375 1.9375,-1.546875 0,-0.109375 -0.09375,-0.109375 -0.125,-0.109375 -0.109375,0 -0.125,0.03125 -0.15625,0.1875 C 4.3125,-0.5 3.671875,-0.140625 3.03125,-0.140625 c -0.734375,0 -1.703125,-0.640625 -1.703125,-2.453125 0,-1.984375 1.015625,-2.46875 1.609375,-2.46875 0.453125,0 1.109375,0.171875 1.390625,0.640625 z m 0,0"
               id="path111" />
          </g>
          <g
             id="use57"
             transform="translate(22.762701,8.302)">
            <path
               d="m 4.609375,-3.1875 c 0,-0.65625 0,-1.125 -0.515625,-1.59375 C 3.671875,-5.15625 3.125,-5.328125 2.609375,-5.328125 1.625,-5.328125 0.875,-4.6875 0.875,-3.90625 c 0,0.34375 0.21875,0.515625 0.5,0.515625 0.28125,0 0.484375,-0.203125 0.484375,-0.5 C 1.859375,-4.375 1.4375,-4.375 1.25,-4.375 c 0.28125,-0.5 0.859375,-0.71875 1.328125,-0.71875 0.546875,0 1.265625,0.453125 1.265625,1.53125 v 0.484375 c -2.40625,0.03125 -3.3125,1.03125 -3.3125,1.953125 0,0.953125 1.09375,1.25 1.828125,1.25 0.78125,0 1.328125,-0.484375 1.546875,-1.0625 0.046875,0.5625 0.421875,1 0.9375,1 0.25,0 0.9375,-0.171875 0.9375,-1.125 V -1.734375 H 5.515625 V -1.0625 c 0,0.6875 -0.28125,0.78125 -0.453125,0.78125 -0.453125,0 -0.453125,-0.640625 -0.453125,-0.8125 z m -0.765625,1.5 c 0,1.171875 -0.875,1.5625 -1.390625,1.5625 -0.59375,0 -1.078125,-0.421875 -1.078125,-1 0,-1.578125 2.03125,-1.71875 2.46875,-1.75 z m 0,0"
               id="path115" />
          </g>
        </g>
      </g>
      <g
         clip-path="url(#clipPath2479)"
         id="g67"
         transform="matrix(0.352778,0,0,0.352778,-0.148828,0.0422892)">
        <g
           fill="#000000"
           fill-opacity="1"
           id="g65">
          <g
             id="use63"
             transform="translate(28.293177,8.302)">
            <path
               d="M 4.875,-4.015625 C 4.984375,-4.28125 5.1875,-4.796875 5.953125,-4.8125 V -5.15625 C 5.609375,-5.125 5.4375,-5.125 5.0625,-5.125 c -0.25,0 -0.421875,0 -0.96875,-0.03125 v 0.34375 c 0.5,0.03125 0.5625,0.390625 0.5625,0.515625 0,0.109375 -0.03125,0.171875 -0.09375,0.3125 l -1.21875,3.09375 -1.328125,-3.375 C 1.953125,-4.4375 1.9375,-4.4375 1.9375,-4.5 c 0,-0.3125 0.453125,-0.3125 0.671875,-0.3125 V -5.15625 C 2.3125,-5.125 1.6875,-5.125 1.359375,-5.125 c -0.390625,0 -0.421875,0 -1.140625,-0.03125 v 0.34375 c 0.671875,0 0.78125,0.0625 0.921875,0.421875 l 1.71875,4.28125 C 2.921875,0.0625 2.9375,0.125 3.078125,0.125 c 0.09375,0 0.15625,-0.03125 0.25,-0.234375 z m 0,0"
               id="path119" />
          </g>
        </g>
      </g>
      <g
         clip-path="url(#clipPath3717)"
         id="g73"
         transform="matrix(0.352778,0,0,0.352778,-0.148828,0.0422892)">
        <g
           fill="#000000"
           fill-opacity="1"
           id="g71">
          <g
             id="use69"
             transform="translate(34.136879,8.302)">
            <path
               d="m 4.578125,-2.765625 c 0.265625,0 0.28125,0 0.28125,-0.234375 0,-1.203125 -0.640625,-2.328125 -2.09375,-2.328125 -1.359375,0 -2.40625,1.234375 -2.40625,2.703125 0,1.578125 1.21875,2.75 2.546875,2.75 1.421875,0 1.953125,-1.296875 1.953125,-1.546875 0,-0.078125 -0.046875,-0.125 -0.125,-0.125 -0.09375,0 -0.125,0.0625 -0.140625,0.125 -0.3125,1 -1.109375,1.28125 -1.625,1.28125 -0.5,0 -1.703125,-0.34375 -1.703125,-2.40625 v -0.21875 z M 1.28125,-3 c 0.09375,-1.875 1.140625,-2.09375 1.484375,-2.09375 1.28125,0 1.34375,1.6875 1.359375,2.09375 z m 0,0"
               id="path123" />
          </g>
        </g>
      </g>
      <g
         clip-path="url(#clipPath5629)"
         id="g93"
         transform="matrix(0.352778,0,0,0.352778,-0.148828,0.0422892)">
        <g
           fill="#000000"
           fill-opacity="1"
           id="g91">
          <g
             id="use75"
             transform="translate(43.24913,8.302)">
            <path
               d="m 2.0625,-4.8125 h 1.34375 v -0.34375 h -1.375 v -1.390625 c 0,-1.078125 0.546875,-1.625 1.046875,-1.625 0.09375,0 0.265625,0.015625 0.40625,0.09375 -0.046875,0.015625 -0.34375,0.125 -0.34375,0.46875 0,0.265625 0.1875,0.46875 0.46875,0.46875 0.28125,0 0.484375,-0.203125 0.484375,-0.484375 0,-0.4375 -0.4375,-0.796875 -1.015625,-0.796875 -0.828125,0 -1.78125,0.65625 -1.78125,1.875 V -5.15625 H 0.375 v 0.34375 h 0.921875 v 3.921875 c 0,0.546875 -0.125,0.546875 -0.90625,0.546875 V 0 c 0.34375,-0.03125 1,-0.03125 1.359375,-0.03125 0.3125,0 1.171875,0 1.4375,0.03125 V -0.34375 H 2.953125 c -0.875,0 -0.890625,-0.140625 -0.890625,-0.5625 z m 0,0"
               id="path127" />
          </g>
          <g
             id="use77"
             transform="translate(46.826126,8.302)">
            <path
               d="m 3.640625,-5.140625 v 0.34375 c 0.8125,0 0.90625,0.09375 0.90625,0.671875 v 2.140625 C 4.546875,-0.96875 4,-0.125 3.109375,-0.125 2.125,-0.125 2.0625,-0.6875 2.0625,-1.3125 v -3.953125 l -1.6875,0.125 v 0.34375 c 0.921875,0 0.921875,0.046875 0.921875,1.109375 v 1.78125 c 0,0.75 0,1.171875 0.359375,1.578125 C 1.9375,-0.03125 2.421875,0.125 3.03125,0.125 c 0.203125,0 0.59375,0 1,-0.359375 C 4.375,-0.5 4.5625,-0.953125 4.5625,-0.953125 V 0.125 L 6.234375,0 v -0.34375 c -0.8125,0 -0.921875,-0.09375 -0.921875,-0.671875 v -4.25 z m 0,0"
               id="path131" />
          </g>
          <g
             id="use79"
             transform="translate(53.329758,8.302)">
            <path
               d="m 5.3125,-2.90625 c 0,-1.109375 0,-1.4375 -0.265625,-1.828125 -0.34375,-0.46875 -0.90625,-0.53125 -1.3125,-0.53125 -1.171875,0 -1.625,0.984375 -1.71875,1.21875 v -1.21875 l -1.640625,0.125 v 0.34375 c 0.8125,0 0.921875,0.09375 0.921875,0.671875 v 3.234375 c 0,0.546875 -0.140625,0.546875 -0.921875,0.546875 V 0 c 0.3125,-0.03125 0.96875,-0.03125 1.296875,-0.03125 0.34375,0 1,0 1.296875,0.03125 v -0.34375 c -0.75,0 -0.90625,0 -0.90625,-0.546875 v -2.21875 c 0,-1.25 0.828125,-1.921875 1.578125,-1.921875 0.734375,0 0.90625,0.609375 0.90625,1.34375 v 2.796875 c 0,0.546875 -0.140625,0.546875 -0.90625,0.546875 V 0 c 0.296875,-0.03125 0.953125,-0.03125 1.28125,-0.03125 0.34375,0 1,0 1.3125,0.03125 v -0.34375 c -0.609375,0 -0.90625,0 -0.921875,-0.359375 z m 0,0"
               id="path135" />
          </g>
          <g
             id="use81"
             transform="translate(59.833385,8.302)">
            <path
               d="m 4.328125,-4.421875 c -0.140625,0 -0.59375,0 -0.59375,0.484375 0,0.296875 0.203125,0.5 0.5,0.5 0.265625,0 0.5,-0.171875 0.5,-0.515625 0,-0.796875 -0.84375,-1.375 -1.8125,-1.375 -1.390625,0 -2.5,1.234375 -2.5,2.75 0,1.53125 1.140625,2.703125 2.5,2.703125 1.578125,0 1.9375,-1.4375 1.9375,-1.546875 0,-0.109375 -0.09375,-0.109375 -0.125,-0.109375 -0.109375,0 -0.125,0.03125 -0.15625,0.1875 C 4.3125,-0.5 3.671875,-0.140625 3.03125,-0.140625 c -0.734375,0 -1.703125,-0.640625 -1.703125,-2.453125 0,-1.984375 1.015625,-2.46875 1.609375,-2.46875 0.453125,0 1.109375,0.171875 1.390625,0.640625 z m 0,0"
               id="path139" />
          </g>
          <g
             id="use83"
             transform="translate(65.036285,8.302)">
            <path
               d="M 2.015625,-4.8125 H 3.6875 V -5.15625 H 2.015625 v -2.1875 H 1.75 C 1.734375,-6.234375 1.296875,-5.078125 0.21875,-5.046875 V -4.8125 h 1.015625 v 3.328125 c 0,1.328125 0.875,1.609375 1.515625,1.609375 0.75,0 1.140625,-0.75 1.140625,-1.609375 V -2.15625 h -0.25 V -1.5 c 0,0.859375 -0.359375,1.359375 -0.8125,1.359375 -0.8125,0 -0.8125,-1.109375 -0.8125,-1.3125 z m 0,0"
               id="path143" />
          </g>
          <g
             id="use85"
             transform="translate(69.588829,8.302)">
            <path
               d="m 2.078125,-7.359375 c 0,-0.3125 -0.25,-0.59375 -0.578125,-0.59375 -0.3125,0 -0.578125,0.25 -0.578125,0.578125 0,0.359375 0.28125,0.578125 0.578125,0.578125 0.359375,0 0.578125,-0.296875 0.578125,-0.5625 z M 0.4375,-5.140625 v 0.34375 c 0.75,0 0.859375,0.078125 0.859375,0.65625 v 3.25 c 0,0.546875 -0.125,0.546875 -0.90625,0.546875 V 0 c 0.34375,-0.03125 0.90625,-0.03125 1.265625,-0.03125 0.125,0 0.8125,0 1.21875,0.03125 v -0.34375 c -0.765625,0 -0.8125,-0.0625 -0.8125,-0.53125 v -4.390625 z m 0,0"
               id="path147" />
          </g>
          <g
             id="use87"
             transform="translate(72.840645,8.302)">
            <path
               d="m 5.484375,-2.5625 c 0,-1.53125 -1.171875,-2.765625 -2.5625,-2.765625 -1.421875,0 -2.5625,1.265625 -2.5625,2.765625 0,1.53125 1.1875,2.6875 2.5625,2.6875 1.40625,0 2.5625,-1.171875 2.5625,-2.6875 z m -2.5625,2.421875 c -0.4375,0 -0.96875,-0.1875 -1.3125,-0.78125 -0.328125,-0.53125 -0.34375,-1.234375 -0.34375,-1.75 0,-0.453125 0,-1.171875 0.375,-1.71875 C 1.96875,-4.90625 2.5,-5.09375 2.921875,-5.09375 c 0.453125,0 0.96875,0.21875 1.28125,0.6875 0.375,0.546875 0.375,1.296875 0.375,1.734375 0,0.421875 0,1.171875 -0.3125,1.734375 C 3.9375,-0.375 3.375,-0.140625 2.921875,-0.140625 Z m 0,0"
               id="path151" />
          </g>
          <g
             id="use89"
             transform="translate(78.693909,8.302)">
            <path
               d="m 5.3125,-2.90625 c 0,-1.109375 0,-1.4375 -0.265625,-1.828125 -0.34375,-0.46875 -0.90625,-0.53125 -1.3125,-0.53125 -1.171875,0 -1.625,0.984375 -1.71875,1.21875 v -1.21875 l -1.640625,0.125 v 0.34375 c 0.8125,0 0.921875,0.09375 0.921875,0.671875 v 3.234375 c 0,0.546875 -0.140625,0.546875 -0.921875,0.546875 V 0 c 0.3125,-0.03125 0.96875,-0.03125 1.296875,-0.03125 0.34375,0 1,0 1.296875,0.03125 v -0.34375 c -0.75,0 -0.90625,0 -0.90625,-0.546875 v -2.21875 c 0,-1.25 0.828125,-1.921875 1.578125,-1.921875 0.734375,0 0.90625,0.609375 0.90625,1.34375 v 2.796875 c 0,0.546875 -0.140625,0.546875 -0.90625,0.546875 V 0 c 0.296875,-0.03125 0.953125,-0.03125 1.28125,-0.03125 0.34375,0 1,0 1.3125,0.03125 v -0.34375 c -0.609375,0 -0.90625,0 -0.921875,-0.359375 z m 0,0"
               id="path155" />
          </g>
        </g>
      </g>
    </g>
    <g
       inkscape:label=""
       transform="matrix(0.70332095,0,0,2.8249717,71.436459,191.32535)"
       id="g1250">
      <g
         clip-path="url(#clipPath111)"
         id="g74"
         transform="matrix(0.352778,0,0,0.352778,-0.165365,9.7028e-4)">
        <g
           fill="#000000"
           fill-opacity="1"
           id="g72">
          <g
             id="use70"
             transform="translate(0,8.9659996)">
            <path
               d="m 5.265625,-5.15625 c 0,-0.0625 -0.046875,-0.109375 -0.109375,-0.109375 -0.09375,0 -0.546875,0.4375 -0.78125,0.859375 -0.21875,-0.546875 -0.578125,-0.859375 -1.09375,-0.859375 -1.359375,0 -2.8125,1.734375 -2.8125,3.515625 0,1.171875 0.6875,1.875 1.5,1.875 0.640625,0 1.15625,-0.484375 1.40625,-0.765625 L 3.390625,-0.625 2.9375,1.171875 2.828125,1.609375 c -0.109375,0.34375 -0.28125,0.34375 -0.84375,0.359375 -0.125,0 -0.25,0 -0.25,0.234375 0,0.078125 0.078125,0.109375 0.15625,0.109375 0.171875,0 0.375,-0.015625 0.546875,-0.015625 h 1.21875 c 0.1875,0 0.390625,0.015625 0.5625,0.015625 0.078125,0 0.21875,0 0.21875,-0.21875 0,-0.125 -0.09375,-0.125 -0.28125,-0.125 -0.5625,0 -0.59375,-0.078125 -0.59375,-0.171875 0,-0.0625 0.015625,-0.078125 0.046875,-0.234375 z m -1.6875,3.734375 C 3.53125,-1.21875 3.53125,-1.1875 3.359375,-0.96875 3.09375,-0.640625 2.5625,-0.125 2.015625,-0.125 1.515625,-0.125 1.25,-0.5625 1.25,-1.265625 c 0,-0.65625 0.359375,-2 0.59375,-2.5 0.40625,-0.84375 0.96875,-1.265625 1.4375,-1.265625 0.78125,0 0.9375,0.984375 0.9375,1.078125 0,0.015625 -0.03125,0.15625 -0.046875,0.1875 z m 0,0"
               id="path160" />
          </g>
        </g>
      </g>
      <g
         fill="#000000"
         fill-opacity="1"
         id="g78"
         transform="matrix(0.352778,0,0,0.352778,-0.165365,9.7028e-4)">
        <g
           id="use76"
           transform="translate(5.6201401,8.9659996)">
          <path
             d="M 8.9375,-7.296875 C 9.046875,-7.703125 9.078125,-7.8125 9.921875,-7.8125 c 0.21875,0 0.328125,0 0.328125,-0.21875 0,-0.125 -0.109375,-0.125 -0.171875,-0.125 -0.21875,0 -0.46875,0.015625 -0.6875,0.015625 H 7.96875 C 7.75,-8.140625 7.5,-8.15625 7.265625,-8.15625 c -0.078125,0 -0.21875,0 -0.21875,0.21875 0,0.125 0.078125,0.125 0.296875,0.125 0.71875,0 0.71875,0.09375 0.71875,0.21875 0,0.03125 0,0.09375 -0.046875,0.28125 l -0.71875,2.890625 H 3.6875 l 0.71875,-2.875 C 4.5,-7.703125 4.53125,-7.8125 5.375,-7.8125 c 0.21875,0 0.34375,0 0.34375,-0.21875 0,-0.125 -0.109375,-0.125 -0.1875,-0.125 -0.21875,0 -0.46875,0.015625 -0.6875,0.015625 H 3.4375 c -0.234375,0 -0.484375,-0.015625 -0.71875,-0.015625 -0.078125,0 -0.21875,0 -0.21875,0.21875 0,0.125 0.078125,0.125 0.3125,0.125 0.71875,0 0.71875,0.09375 0.71875,0.21875 0,0.03125 0,0.09375 -0.046875,0.28125 l -1.625,6.421875 C 1.75,-0.46875 1.734375,-0.34375 0.90625,-0.34375 c -0.265625,0 -0.359375,0 -0.359375,0.21875 C 0.546875,0 0.6875,0 0.71875,0 0.9375,0 1.1875,-0.03125 1.40625,-0.03125 H 2.828125 C 3.046875,-0.03125 3.296875,0 3.53125,0 3.625,0 3.75,0 3.75,-0.234375 3.75,-0.34375 3.640625,-0.34375 3.46875,-0.34375 c -0.734375,0 -0.734375,-0.09375 -0.734375,-0.21875 0,-0.015625 0,-0.09375 0.03125,-0.1875 l 0.8125,-3.328125 h 3.625 C 7,-3.28125 6.390625,-0.78125 6.375,-0.71875 c -0.140625,0.359375 -0.328125,0.359375 -1.03125,0.375 -0.140625,0 -0.25,0 -0.25,0.21875 C 5.09375,0 5.21875,0 5.265625,0 5.46875,0 5.71875,-0.03125 5.953125,-0.03125 h 1.40625 C 7.59375,-0.03125 7.84375,0 8.0625,0 c 0.09375,0 0.234375,0 0.234375,-0.234375 0,-0.109375 -0.109375,-0.109375 -0.28125,-0.109375 -0.734375,0 -0.734375,-0.09375 -0.734375,-0.21875 0,-0.015625 0,-0.09375 0.015625,-0.1875 z m 0,0"
             id="path164" />
        </g>
      </g>
      <g
         clip-path="url(#clipPath9938)"
         id="g84"
         transform="matrix(0.352778,0,0,0.352778,-0.165365,9.7028e-4)">
        <g
           fill="#000000"
           fill-opacity="1"
           id="g82">
          <g
             id="use80"
             transform="translate(16.242001,8.9659996)">
            <path
               d="m 3.890625,2.90625 c 0,-0.03125 0,-0.0625 -0.203125,-0.265625 C 2.484375,1.4375 1.8125,-0.53125 1.8125,-2.96875 c 0,-2.328125 0.5625,-4.328125 1.953125,-5.734375 0.125,-0.109375 0.125,-0.125 0.125,-0.171875 0,-0.0625 -0.0625,-0.09375 -0.109375,-0.09375 -0.15625,0 -1.140625,0.859375 -1.71875,2.03125 -0.609375,1.21875 -0.890625,2.484375 -0.890625,3.96875 0,1.0625 0.171875,2.484375 0.78125,3.75 C 2.671875,2.21875 3.640625,3 3.78125,3 3.828125,3 3.890625,2.96875 3.890625,2.90625 Z m 0,0"
               id="path168" />
          </g>
        </g>
      </g>
      <g
         clip-path="url(#clipPath5628)"
         id="g90"
         transform="matrix(0.352778,0,0,0.352778,-0.165365,9.7028e-4)">
        <g
           fill="#000000"
           fill-opacity="1"
           id="g88">
          <g
             id="use86"
             transform="translate(20.794001,8.9659996)">
            <path
               d="M 0.515625,1.515625 C 0.4375,1.875 0.375,1.96875 -0.109375,1.96875 c -0.140625,0 -0.265625,0 -0.265625,0.234375 0,0.015625 0.015625,0.109375 0.140625,0.109375 0.15625,0 0.328125,-0.015625 0.484375,-0.015625 h 0.515625 c 0.25,0 0.859375,0.015625 1.109375,0.015625 0.078125,0 0.21875,0 0.21875,-0.203125 C 2.09375,1.96875 2.015625,1.96875 1.8125,1.96875 1.25,1.96875 1.21875,1.890625 1.21875,1.796875 1.21875,1.65625 1.75,-0.40625 1.828125,-0.6875 c 0.125,0.34375 0.453125,0.8125 1.078125,0.8125 1.34375,0 2.8125,-1.765625 2.8125,-3.515625 0,-1.109375 -0.625,-1.875 -1.515625,-1.875 -0.765625,0 -1.421875,0.734375 -1.546875,0.90625 -0.09375,-0.59375 -0.5625,-0.90625 -1.046875,-0.90625 -0.34375,0 -0.625,0.15625 -0.84375,0.609375 C 0.546875,-4.21875 0.375,-3.484375 0.375,-3.4375 c 0,0.046875 0.0625,0.109375 0.140625,0.109375 0.09375,0 0.109375,-0.015625 0.171875,-0.296875 0.1875,-0.703125 0.40625,-1.40625 0.890625,-1.40625 0.28125,0 0.375,0.1875 0.375,0.546875 0,0.28125 -0.046875,0.40625 -0.09375,0.625 z m 2.0625,-5.25 C 2.671875,-4.0625 3,-4.40625 3.1875,-4.578125 c 0.140625,-0.125 0.53125,-0.453125 0.984375,-0.453125 0.53125,0 0.765625,0.53125 0.765625,1.140625 0,0.578125 -0.328125,1.9375 -0.640625,2.546875 C 4,-0.6875 3.453125,-0.125 2.90625,-0.125 c -0.8125,0 -0.953125,-1.015625 -0.953125,-1.0625 0,-0.046875 0.03125,-0.140625 0.046875,-0.203125 z m 0,0"
               id="path172" />
          </g>
        </g>
      </g>
      <g
         fill="#000000"
         fill-opacity="1"
         id="g94"
         transform="matrix(0.352778,0,0,0.352778,-0.165365,9.7028e-4)">
        <g
           id="use92"
           transform="translate(26.669001,10.759)">
          <path
             d="m 3.09375,-4.828125 c 0.0625,-0.265625 0.078125,-0.34375 0.6875,-0.34375 0.171875,0 0.28125,0 0.28125,-0.15625 0,-0.015625 -0.015625,-0.109375 -0.140625,-0.109375 -0.125,0 -0.375,0.015625 -0.5,0.015625 h -1.09375 c -0.109375,0 -0.40625,-0.015625 -0.515625,-0.015625 -0.03125,0 -0.15625,0 -0.15625,0.140625 0,0.125 0.09375,0.125 0.25,0.125 0.515625,0 0.515625,0.046875 0.515625,0.140625 0,0.015625 0,0.046875 -0.046875,0.171875 L 1.328125,-0.625 c -0.078125,0.28125 -0.09375,0.359375 -0.6875,0.359375 -0.1875,0 -0.28125,0 -0.28125,0.15625 0,0.03125 0.03125,0.109375 0.125,0.109375 0.109375,0 0.375,-0.015625 0.5,-0.03125 H 2.09375 C 2.203125,-0.015625 2.484375,0 2.59375,0 2.640625,0 2.75,0 2.75,-0.15625 c 0,-0.109375 -0.09375,-0.109375 -0.25,-0.109375 -0.125,0 -0.171875,0 -0.3125,-0.015625 C 2.0625,-0.296875 1.984375,-0.296875 1.984375,-0.390625 1.984375,-0.4375 2,-0.4375 2.03125,-0.546875 Z m 0,0"
             id="path176" />
        </g>
      </g>
      <g
         clip-path="url(#clipPath5382)"
         id="g100"
         transform="matrix(0.352778,0,0,0.352778,-0.165365,9.7028e-4)">
        <g
           fill="#000000"
           fill-opacity="1"
           id="g98">
          <g
             id="use96"
             transform="translate(31.461,8.9659996)">
            <path
               d="M 3.375,-2.96875 C 3.375,-3.890625 3.25,-5.359375 2.578125,-6.75 1.875,-8.1875 0.890625,-8.96875 0.765625,-8.96875 c -0.046875,0 -0.109375,0.03125 -0.109375,0.09375 0,0.046875 0,0.0625 0.203125,0.265625 1.203125,1.203125 1.859375,3.1875 1.859375,5.625 0,2.3125 -0.5625,4.3125 -1.9375,5.71875 C 0.65625,2.84375 0.65625,2.875 0.65625,2.90625 0.65625,2.96875 0.71875,3 0.765625,3 0.921875,3 1.90625,2.140625 2.484375,0.96875 3.09375,-0.25 3.375,-1.546875 3.375,-2.96875 Z m 0,0"
               id="path180" />
          </g>
        </g>
      </g>
      <g
         fill="#000000"
         fill-opacity="1"
         id="g104"
         transform="matrix(0.352778,0,0,0.352778,-0.165365,9.7028e-4)">
        <g
           id="use102"
           transform="translate(38.667595,8.9659996)">
          <path
             d="M 4.765625,-2.765625 H 8.0625 c 0.171875,0 0.390625,0 0.390625,-0.203125 0,-0.234375 -0.203125,-0.234375 -0.390625,-0.234375 H 4.765625 V -6.5 c 0,-0.171875 0,-0.390625 -0.21875,-0.390625 -0.21875,0 -0.21875,0.203125 -0.21875,0.390625 v 3.296875 H 1.03125 c -0.171875,0 -0.390625,0 -0.390625,0.21875 0,0.21875 0.203125,0.21875 0.390625,0.21875 H 4.328125 V 0.53125 c 0,0.171875 0,0.390625 0.21875,0.390625 0.21875,0 0.21875,-0.203125 0.21875,-0.390625 z m 0,0"
             id="path184" />
        </g>
      </g>
      <g
         clip-path="url(#clipPath5570)"
         id="g112"
         transform="matrix(0.352778,0,0,0.352778,-0.165365,9.7028e-4)">
        <g
           fill="#000000"
           fill-opacity="1"
           id="g110">
          <g
             id="use106"
             transform="translate(50.426727,8.9659996)">
            <path
               d="m 3.890625,2.90625 c 0,-0.03125 0,-0.0625 -0.203125,-0.265625 C 2.484375,1.4375 1.8125,-0.53125 1.8125,-2.96875 c 0,-2.328125 0.5625,-4.328125 1.953125,-5.734375 0.125,-0.109375 0.125,-0.125 0.125,-0.171875 0,-0.0625 -0.0625,-0.09375 -0.109375,-0.09375 -0.15625,0 -1.140625,0.859375 -1.71875,2.03125 -0.609375,1.21875 -0.890625,2.484375 -0.890625,3.96875 0,1.0625 0.171875,2.484375 0.78125,3.75 C 2.671875,2.21875 3.640625,3 3.78125,3 3.828125,3 3.890625,2.96875 3.890625,2.90625 Z m 0,0"
               id="path188" />
          </g>
          <g
             id="use108"
             transform="translate(54.979267,8.9659996)">
            <path
               d="m 3.4375,-7.65625 c 0,-0.28125 0,-0.296875 -0.234375,-0.296875 C 2.921875,-7.625 2.3125,-7.1875 1.09375,-7.1875 v 0.34375 c 0.265625,0 0.859375,0 1.53125,-0.296875 v 6.21875 c 0,0.4375 -0.046875,0.578125 -1.09375,0.578125 h -0.375 V 0 c 0.328125,-0.03125 1.484375,-0.03125 1.875,-0.03125 0.40625,0 1.546875,0 1.875,0.03125 v -0.34375 h -0.375 c -1.046875,0 -1.09375,-0.140625 -1.09375,-0.578125 z m 0,0"
               id="path192" />
          </g>
        </g>
      </g>
      <g
         fill="#000000"
         fill-opacity="1"
         id="g116"
         transform="matrix(0.352778,0,0,0.352778,-0.165365,9.7028e-4)">
        <g
           id="use114"
           transform="translate(63.493,8.9659996)">
          <path
             d="m 7.875,-2.75 c 0.203125,0 0.421875,0 0.421875,-0.234375 0,-0.25 -0.21875,-0.25 -0.421875,-0.25 H 1.40625 c -0.203125,0 -0.421875,0 -0.421875,0.25 0,0.234375 0.21875,0.234375 0.421875,0.234375 z m 0,0"
             id="path196" />
        </g>
      </g>
      <g
         clip-path="url(#clipPath3165)"
         id="g122"
         transform="matrix(0.352778,0,0,0.352778,-0.165365,9.7028e-4)">
        <g
           fill="#000000"
           fill-opacity="1"
           id="g120">
          <g
             id="use118"
             transform="translate(75.447998,8.9659996)">
            <path
               d="m 5.265625,-5.15625 c 0,-0.0625 -0.046875,-0.109375 -0.109375,-0.109375 -0.09375,0 -0.546875,0.4375 -0.78125,0.859375 -0.21875,-0.546875 -0.578125,-0.859375 -1.09375,-0.859375 -1.359375,0 -2.8125,1.734375 -2.8125,3.515625 0,1.171875 0.6875,1.875 1.5,1.875 0.640625,0 1.15625,-0.484375 1.40625,-0.765625 L 3.390625,-0.625 2.9375,1.171875 2.828125,1.609375 c -0.109375,0.34375 -0.28125,0.34375 -0.84375,0.359375 -0.125,0 -0.25,0 -0.25,0.234375 0,0.078125 0.078125,0.109375 0.15625,0.109375 0.171875,0 0.375,-0.015625 0.546875,-0.015625 h 1.21875 c 0.1875,0 0.390625,0.015625 0.5625,0.015625 0.078125,0 0.21875,0 0.21875,-0.21875 0,-0.125 -0.09375,-0.125 -0.28125,-0.125 -0.5625,0 -0.59375,-0.078125 -0.59375,-0.171875 0,-0.0625 0.015625,-0.078125 0.046875,-0.234375 z m -1.6875,3.734375 C 3.53125,-1.21875 3.53125,-1.1875 3.359375,-0.96875 3.09375,-0.640625 2.5625,-0.125 2.015625,-0.125 1.515625,-0.125 1.25,-0.5625 1.25,-1.265625 c 0,-0.65625 0.359375,-2 0.59375,-2.5 0.40625,-0.84375 0.96875,-1.265625 1.4375,-1.265625 0.78125,0 0.9375,0.984375 0.9375,1.078125 0,0.015625 -0.03125,0.15625 -0.046875,0.1875 z m 0,0"
               id="path200" />
          </g>
        </g>
      </g>
      <g
         clip-path="url(#clipPath4651)"
         id="g128"
         transform="matrix(0.352778,0,0,0.352778,-0.165365,9.7028e-4)">
        <g
           fill="#000000"
           fill-opacity="1"
           id="g126">
          <g
             id="use124"
             transform="translate(81.068001,8.9659996)">
            <path
               d="M 3.375,-2.96875 C 3.375,-3.890625 3.25,-5.359375 2.578125,-6.75 1.875,-8.1875 0.890625,-8.96875 0.765625,-8.96875 c -0.046875,0 -0.109375,0.03125 -0.109375,0.09375 0,0.046875 0,0.0625 0.203125,0.265625 1.203125,1.203125 1.859375,3.1875 1.859375,5.625 0,2.3125 -0.5625,4.3125 -1.9375,5.71875 C 0.65625,2.84375 0.65625,2.875 0.65625,2.90625 0.65625,2.96875 0.71875,3 0.765625,3 0.921875,3 1.90625,2.140625 2.484375,0.96875 3.09375,-0.25 3.375,-1.546875 3.375,-2.96875 Z m 0,0"
               id="path204" />
          </g>
        </g>
      </g>
      <g
         fill="#000000"
         fill-opacity="1"
         id="g132"
         transform="matrix(0.352778,0,0,0.352778,-0.165365,9.7028e-4)">
        <g
           id="use130"
           transform="translate(85.620003,8.9659996)">
          <path
             d="M 8.9375,-7.296875 C 9.046875,-7.703125 9.078125,-7.8125 9.921875,-7.8125 c 0.21875,0 0.328125,0 0.328125,-0.21875 0,-0.125 -0.109375,-0.125 -0.171875,-0.125 -0.21875,0 -0.46875,0.015625 -0.6875,0.015625 H 7.96875 C 7.75,-8.140625 7.5,-8.15625 7.265625,-8.15625 c -0.078125,0 -0.21875,0 -0.21875,0.21875 0,0.125 0.078125,0.125 0.296875,0.125 0.71875,0 0.71875,0.09375 0.71875,0.21875 0,0.03125 0,0.09375 -0.046875,0.28125 l -0.71875,2.890625 H 3.6875 l 0.71875,-2.875 C 4.5,-7.703125 4.53125,-7.8125 5.375,-7.8125 c 0.21875,0 0.34375,0 0.34375,-0.21875 0,-0.125 -0.109375,-0.125 -0.1875,-0.125 -0.21875,0 -0.46875,0.015625 -0.6875,0.015625 H 3.4375 c -0.234375,0 -0.484375,-0.015625 -0.71875,-0.015625 -0.078125,0 -0.21875,0 -0.21875,0.21875 0,0.125 0.078125,0.125 0.3125,0.125 0.71875,0 0.71875,0.09375 0.71875,0.21875 0,0.03125 0,0.09375 -0.046875,0.28125 l -1.625,6.421875 C 1.75,-0.46875 1.734375,-0.34375 0.90625,-0.34375 c -0.265625,0 -0.359375,0 -0.359375,0.21875 C 0.546875,0 0.6875,0 0.71875,0 0.9375,0 1.1875,-0.03125 1.40625,-0.03125 H 2.828125 C 3.046875,-0.03125 3.296875,0 3.53125,0 3.625,0 3.75,0 3.75,-0.234375 3.75,-0.34375 3.640625,-0.34375 3.46875,-0.34375 c -0.734375,0 -0.734375,-0.09375 -0.734375,-0.21875 0,-0.015625 0,-0.09375 0.03125,-0.1875 l 0.8125,-3.328125 h 3.625 C 7,-3.28125 6.390625,-0.78125 6.375,-0.71875 c -0.140625,0.359375 -0.328125,0.359375 -1.03125,0.375 -0.140625,0 -0.25,0 -0.25,0.21875 C 5.09375,0 5.21875,0 5.265625,0 5.46875,0 5.71875,-0.03125 5.953125,-0.03125 h 1.40625 C 7.59375,-0.03125 7.84375,0 8.0625,0 c 0.09375,0 0.234375,0 0.234375,-0.234375 0,-0.109375 -0.109375,-0.109375 -0.28125,-0.109375 -0.734375,0 -0.734375,-0.09375 -0.734375,-0.21875 0,-0.015625 0,-0.09375 0.015625,-0.1875 z m 0,0"
             id="path208" />
        </g>
      </g>
      <g
         clip-path="url(#clipPath6183)"
         id="g138"
         transform="matrix(0.352778,0,0,0.352778,-0.165365,9.7028e-4)">
        <g
           fill="#000000"
           fill-opacity="1"
           id="g136">
          <g
             id="use134"
             transform="translate(96.242996,8.9659996)">
            <path
               d="m 3.890625,2.90625 c 0,-0.03125 0,-0.0625 -0.203125,-0.265625 C 2.484375,1.4375 1.8125,-0.53125 1.8125,-2.96875 c 0,-2.328125 0.5625,-4.328125 1.953125,-5.734375 0.125,-0.109375 0.125,-0.125 0.125,-0.171875 0,-0.0625 -0.0625,-0.09375 -0.109375,-0.09375 -0.15625,0 -1.140625,0.859375 -1.71875,2.03125 -0.609375,1.21875 -0.890625,2.484375 -0.890625,3.96875 0,1.0625 0.171875,2.484375 0.78125,3.75 C 2.671875,2.21875 3.640625,3 3.78125,3 3.828125,3 3.890625,2.96875 3.890625,2.90625 Z m 0,0"
               id="path212" />
          </g>
        </g>
      </g>
      <g
         clip-path="url(#clipPath4744)"
         id="g144"
         transform="matrix(0.352778,0,0,0.352778,-0.165365,9.7028e-4)">
        <g
           fill="#000000"
           fill-opacity="1"
           id="g142">
          <g
             id="use140"
             transform="translate(100.795,8.9659996)">
            <path
               d="M 0.515625,1.515625 C 0.4375,1.875 0.375,1.96875 -0.109375,1.96875 c -0.140625,0 -0.265625,0 -0.265625,0.234375 0,0.015625 0.015625,0.109375 0.140625,0.109375 0.15625,0 0.328125,-0.015625 0.484375,-0.015625 h 0.515625 c 0.25,0 0.859375,0.015625 1.109375,0.015625 0.078125,0 0.21875,0 0.21875,-0.203125 C 2.09375,1.96875 2.015625,1.96875 1.8125,1.96875 1.25,1.96875 1.21875,1.890625 1.21875,1.796875 1.21875,1.65625 1.75,-0.40625 1.828125,-0.6875 c 0.125,0.34375 0.453125,0.8125 1.078125,0.8125 1.34375,0 2.8125,-1.765625 2.8125,-3.515625 0,-1.109375 -0.625,-1.875 -1.515625,-1.875 -0.765625,0 -1.421875,0.734375 -1.546875,0.90625 -0.09375,-0.59375 -0.5625,-0.90625 -1.046875,-0.90625 -0.34375,0 -0.625,0.15625 -0.84375,0.609375 C 0.546875,-4.21875 0.375,-3.484375 0.375,-3.4375 c 0,0.046875 0.0625,0.109375 0.140625,0.109375 0.09375,0 0.109375,-0.015625 0.171875,-0.296875 0.1875,-0.703125 0.40625,-1.40625 0.890625,-1.40625 0.28125,0 0.375,0.1875 0.375,0.546875 0,0.28125 -0.046875,0.40625 -0.09375,0.625 z m 2.0625,-5.25 C 2.671875,-4.0625 3,-4.40625 3.1875,-4.578125 c 0.140625,-0.125 0.53125,-0.453125 0.984375,-0.453125 0.53125,0 0.765625,0.53125 0.765625,1.140625 0,0.578125 -0.328125,1.9375 -0.640625,2.546875 C 4,-0.6875 3.453125,-0.125 2.90625,-0.125 c -0.8125,0 -0.953125,-1.015625 -0.953125,-1.0625 0,-0.046875 0.03125,-0.140625 0.046875,-0.203125 z m 0,0"
               id="path216" />
          </g>
        </g>
      </g>
      <g
         fill="#000000"
         fill-opacity="1"
         id="g148"
         transform="matrix(0.352778,0,0,0.352778,-0.165365,9.7028e-4)">
        <g
           id="use146"
           transform="translate(106.67,10.759)">
          <path
             d="m 6.3125,-4.578125 c 0.09375,-0.390625 0.265625,-0.578125 0.84375,-0.59375 0.078125,0 0.140625,-0.0625 0.140625,-0.15625 0,-0.046875 -0.03125,-0.109375 -0.109375,-0.109375 -0.0625,0 -0.21875,0.015625 -0.796875,0.015625 -0.640625,0 -0.75,-0.015625 -0.828125,-0.015625 -0.125,0 -0.140625,0.078125 -0.140625,0.140625 0,0.109375 0.09375,0.125 0.171875,0.125 0.484375,0.015625 0.484375,0.21875 0.484375,0.328125 0,0.046875 0,0.09375 -0.03125,0.21875 l -0.875,3.484375 L 3.25,-5.296875 C 3.1875,-5.4375 3.171875,-5.4375 2.984375,-5.4375 H 1.9375 c -0.140625,0 -0.234375,0 -0.234375,0.140625 0,0.125 0.09375,0.125 0.25,0.125 0.078125,0 0.3125,0 0.5,0.046875 L 1.375,-0.859375 C 1.28125,-0.453125 1.078125,-0.28125 0.546875,-0.265625 0.5,-0.265625 0.390625,-0.25 0.390625,-0.109375 0.390625,-0.0625 0.4375,0 0.515625,0 0.546875,0 0.734375,-0.03125 1.3125,-0.03125 1.9375,-0.03125 2.0625,0 2.125,0 c 0.03125,0 0.15625,0 0.15625,-0.15625 0,-0.09375 -0.09375,-0.109375 -0.140625,-0.109375 -0.296875,0 -0.53125,-0.046875 -0.53125,-0.328125 0,-0.046875 0.03125,-0.15625 0.03125,-0.15625 l 1.03125,-4.171875 H 2.6875 l 2.21875,4.78125 C 4.953125,-0.015625 4.96875,0 5.046875,0 c 0.109375,0 0.125,-0.03125 0.15625,-0.171875 z m 0,0"
             id="path220" />
        </g>
      </g>
      <g
         clip-path="url(#clipPath2720)"
         id="g154"
         transform="matrix(0.352778,0,0,0.352778,-0.165365,9.7028e-4)">
        <g
           fill="#000000"
           fill-opacity="1"
           id="g152">
          <g
             id="use150"
             transform="translate(114.738,8.9659996)">
            <path
               d="M 3.375,-2.96875 C 3.375,-3.890625 3.25,-5.359375 2.578125,-6.75 1.875,-8.1875 0.890625,-8.96875 0.765625,-8.96875 c -0.046875,0 -0.109375,0.03125 -0.109375,0.09375 0,0.046875 0,0.0625 0.203125,0.265625 1.203125,1.203125 1.859375,3.1875 1.859375,5.625 0,2.3125 -0.5625,4.3125 -1.9375,5.71875 C 0.65625,2.84375 0.65625,2.875 0.65625,2.90625 0.65625,2.96875 0.71875,3 0.765625,3 0.921875,3 1.90625,2.140625 2.484375,0.96875 3.09375,-0.25 3.375,-1.546875 3.375,-2.96875 Z m 0,0"
               id="path224" />
          </g>
        </g>
      </g>
    </g>
    <path
       style="fill:#1a1a1a;fill-opacity:0;stroke:#1a1a1a;stroke-width:0.1"
       d="m 84.134507,209.54016 2.56518,3.84778"
       id="path1336" />
    <path
       style="fill:#1a1a1a;fill-opacity:0;stroke:#1a1a1a;stroke-width:0.1"
       d="m 82.595397,215.44008 4.3608,-6.15643"
       id="path1338" />
    <path
       style="fill:#1a1a1a;fill-opacity:0;stroke:#1a1a1a;stroke-width:0.1"
       d="m 85.673607,211.59231 -6.156427,-5.89992 0.513037,2.8217"
       id="path1340" />
    <path
       style="fill:#1a1a1a;fill-opacity:0;stroke:#1a1a1a;stroke-width:0.1"
       d="m 79.260661,205.43588 h 3.078216"
       id="path1342" />
  </g>
</svg>
