<?xml version="1.0" encoding="UTF-8" standalone="no"?>
<!-- Created with Inkscape (http://www.inkscape.org/) -->

<svg
   width="209.23631mm"
   height="41.919399mm"
   viewBox="0 0 209.23632 41.919399"
   version="1.1"
   id="svg8"
   inkscape:version="1.2.1 (9c6d41e, 2022-07-14)"
   sodipodi:docname="dipole.svg"
   xmlns:inkscape="http://www.inkscape.org/namespaces/inkscape"
   xmlns:sodipodi="http://sodipodi.sourceforge.net/DTD/sodipodi-0.dtd"
   xmlns="http://www.w3.org/2000/svg"
   xmlns:svg="http://www.w3.org/2000/svg"
   xmlns:rdf="http://www.w3.org/1999/02/22-rdf-syntax-ns#"
   xmlns:cc="http://creativecommons.org/ns#"
   xmlns:dc="http://purl.org/dc/elements/1.1/">
  <defs
     id="defs2">
    <marker
       style="overflow:visible"
       id="TriangleStart"
       refX="0"
       refY="0"
       orient="auto-start-reverse"
       inkscape:stockid="TriangleStart"
       markerWidth="5.3244081"
       markerHeight="6.155385"
       viewBox="0 0 5.3244081 6.1553851"
       inkscape:isstock="true"
       inkscape:collect="always"
       preserveAspectRatio="xMidYMid">
      <path
         transform="scale(0.5)"
         style="fill:context-stroke;fill-rule:evenodd;stroke:context-stroke;stroke-width:1pt"
         d="M 5.77,0 -2.88,5 V -5 Z"
         id="path135" />
    </marker>
    <clipPath
       id="clipPath8114">
      <path
         clip-rule="nonzero"
         d="M 2,0 H 5.875 V 3 H 2 Z m 0,0"
         id="path4993" />
    </clipPath>
    <clipPath
       id="clipPath6427">
      <path
         clip-rule="nonzero"
         d="m 0,3 h 5.875 v 7.847656 H 0 Z m 0,0"
         id="path8840" />
    </clipPath>
    <clipPath
       id="clipPath2182">
      <path
         clip-rule="nonzero"
         d="M 1,0 H 38 V 11.953125 H 1 Z m 0,0"
         id="path5648" />
    </clipPath>
    <clipPath
       id="clipPath9934">
      <path
         clip-rule="nonzero"
         d="M 0,2 H 5 V 7.703125 H 0 Z m 0,0"
         id="path1986" />
    </clipPath>
    <clipPath
       id="clipPath2972">
      <path
         clip-rule="nonzero"
         d="m 22,0 h 5.964844 V 7.703125 H 22 Z m 0,0"
         id="path962" />
    </clipPath>
    <clipPath
       id="clipPath6626">
      <path
         clip-rule="nonzero"
         d="m 9,5 h 6.996094 v 5.792969 H 9 Z m 0,0"
         id="path4614" />
    </clipPath>
    <clipPath
       id="clipPath6933">
      <path
         clip-rule="nonzero"
         d="M 0,0 H 6.503906 V 8.300781 H 0 Z m 0,0"
         id="path9178" />
    </clipPath>
    <clipPath
       id="clipPath207">
      <path
         clip-rule="nonzero"
         d="M 0,0 H 5.78125 V 8.300781 H 0 Z m 0,0"
         id="path4174" />
    </clipPath>
  </defs>
  <sodipodi:namedview
     id="base"
     pagecolor="#ffffff"
     bordercolor="#666666"
     borderopacity="1.0"
     inkscape:pageopacity="0.0"
     inkscape:pageshadow="2"
     inkscape:zoom="1.0854387"
     inkscape:cx="358.84109"
     inkscape:cy="64.490054"
     inkscape:document-units="mm"
     inkscape:current-layer="layer1"
     showgrid="false"
     showborder="true"
     width="200mm"
     showguides="true"
     inkscape:guide-bbox="true"
     inkscape:window-width="1440"
     inkscape:window-height="872"
     inkscape:window-x="0"
     inkscape:window-y="28"
     inkscape:window-maximized="0"
     inkscape:showpageshadow="2"
     inkscape:pagecheckerboard="0"
     inkscape:deskcolor="#d1d1d1">
    <inkscape:grid
       type="xygrid"
       id="grid815"
       units="mm"
       spacingx="10"
       spacingy="10"
       empspacing="4"
       dotted="false"
       originx="-53.184394"
       originy="-15.923236" />
  </sodipodi:namedview>
  <metadata
     id="metadata5">
    <rdf:RDF>
      <cc:Work
         rdf:about="">
        <dc:format>image/svg+xml</dc:format>
        <dc:type
           rdf:resource="http://purl.org/dc/dcmitype/StillImage" />
      </cc:Work>
    </rdf:RDF>
  </metadata>
  <g
     inkscape:label="Layer 1"
     inkscape:groupmode="layer"
     id="layer1"
     transform="translate(-53.184357,-192.92308)">
    <path
       style="fill:none;fill-rule:evenodd;stroke:#000000;stroke-width:0.264583px;stroke-linecap:butt;stroke-linejoin:miter;stroke-opacity:1"
       d="m 97.448549,227.48501 78.461871,-0.51992"
       id="path421"
       inkscape:connector-type="polyline"
       inkscape:connector-curvature="0" />
    <path
       style="fill:none;fill-rule:evenodd;stroke:#000000;stroke-width:0.264583px;stroke-linecap:butt;stroke-linejoin:miter;stroke-opacity:1;marker-end:url(#TriangleStart)"
       d="M 137.85641,232.71738 V 222.12503"
       id="path423"
       inkscape:connector-type="polyline"
       inkscape:connector-curvature="0" />
    <path
       style="display:inline;fill:none;fill-rule:evenodd;stroke:#000000;stroke-width:0.264583px;stroke-linecap:butt;stroke-linejoin:miter;stroke-opacity:1"
       d="m 137.92997,227.20053 43.51175,-27.0713"
       id="path1268"
       inkscape:connector-type="polyline"
       inkscape:connector-curvature="0" />
    <g
       inkscape:label=""
       transform="translate(133.79755,221.76651)"
       id="g1671">
      <g
         clip-path="url(#clipPath8114)"
         id="g23"
         transform="matrix(0.352778,0,0,0.352778,0.13143,-0.00189615)">
        <g
           fill="#000000"
           fill-opacity="1"
           id="g21">
          <g
             id="use19"
             transform="translate(0.067,8.5209999)">
            <path
               d="M 6.390625,-7.140625 C 6.25,-7 5.8125,-6.59375 5.8125,-6.421875 c 0,0.125 0.109375,0.234375 0.21875,0.234375 0.109375,0 0.15625,-0.078125 0.25,-0.203125 0.28125,-0.34375 0.609375,-0.578125 0.875,-0.734375 0.125,-0.078125 0.203125,-0.109375 0.203125,-0.234375 0,-0.109375 -0.09375,-0.171875 -0.15625,-0.234375 C 6.859375,-7.8125 6.78125,-8.140625 6.734375,-8.28125 6.703125,-8.375 6.671875,-8.515625 6.5,-8.515625 c -0.0625,0 -0.21875,0.046875 -0.21875,0.21875 0,0.109375 0.078125,0.390625 0.3125,0.71875 H 2.5625 c -0.203125,0 -0.40625,0 -0.40625,0.234375 0,0.203125 0.21875,0.203125 0.40625,0.203125 z m 0,0"
               id="path35" />
          </g>
        </g>
      </g>
      <g
         clip-path="url(#clipPath6427)"
         id="g29"
         transform="matrix(0.352778,0,0,0.352778,0.13143,-0.00189615)">
        <g
           fill="#000000"
           fill-opacity="1"
           id="g27">
          <g
             id="use25"
             transform="translate(0.00244192,8.5209999)">
            <path
               d="M 0.515625,1.515625 C 0.4375,1.875 0.375,1.96875 -0.109375,1.96875 c -0.140625,0 -0.265625,0 -0.265625,0.234375 0,0.015625 0.015625,0.109375 0.140625,0.109375 0.15625,0 0.328125,-0.015625 0.484375,-0.015625 h 0.515625 c 0.25,0 0.859375,0.015625 1.109375,0.015625 0.078125,0 0.21875,0 0.21875,-0.203125 C 2.09375,1.96875 2.015625,1.96875 1.8125,1.96875 1.25,1.96875 1.21875,1.890625 1.21875,1.796875 1.21875,1.65625 1.75,-0.40625 1.828125,-0.6875 c 0.125,0.34375 0.453125,0.8125 1.078125,0.8125 1.34375,0 2.8125,-1.765625 2.8125,-3.515625 0,-1.109375 -0.625,-1.875 -1.515625,-1.875 -0.765625,0 -1.421875,0.734375 -1.546875,0.90625 -0.09375,-0.59375 -0.5625,-0.90625 -1.046875,-0.90625 -0.34375,0 -0.625,0.15625 -0.84375,0.609375 C 0.546875,-4.21875 0.375,-3.484375 0.375,-3.4375 c 0,0.046875 0.0625,0.109375 0.140625,0.109375 0.09375,0 0.109375,-0.015625 0.171875,-0.296875 0.1875,-0.703125 0.40625,-1.40625 0.890625,-1.40625 0.28125,0 0.375,0.1875 0.375,0.546875 0,0.28125 -0.046875,0.40625 -0.09375,0.625 z m 2.0625,-5.25 C 2.671875,-4.0625 3,-4.40625 3.1875,-4.578125 c 0.140625,-0.125 0.53125,-0.453125 0.984375,-0.453125 0.53125,0 0.765625,0.53125 0.765625,1.140625 0,0.578125 -0.328125,1.9375 -0.640625,2.546875 C 4,-0.6875 3.453125,-0.125 2.90625,-0.125 c -0.8125,0 -0.953125,-1.015625 -0.953125,-1.0625 0,-0.046875 0.03125,-0.140625 0.046875,-0.203125 z m 0,0"
               id="path39" />
          </g>
        </g>
      </g>
    </g>
    <g
       inkscape:label=""
       transform="rotate(2.6192621,-4151.1502,3990.1438)"
       id="g3295">
      <g
         clip-path="url(#clipPath2182)"
         id="g49"
         transform="matrix(0.352778,0,0,0.352778,-0.413411,9.7028e-4)">
        <g
           fill="#000000"
           fill-opacity="1"
           id="g47"
           transform="rotate(-1.4117172,19.507463,5.9816516)">
          <g
             id="use31"
             transform="translate(0,8.9659996)">
            <path
               d="m 3.890625,2.90625 c 0,-0.03125 0,-0.0625 -0.203125,-0.265625 C 2.484375,1.4375 1.8125,-0.53125 1.8125,-2.96875 c 0,-2.328125 0.5625,-4.328125 1.953125,-5.734375 0.125,-0.109375 0.125,-0.125 0.125,-0.171875 0,-0.0625 -0.0625,-0.09375 -0.109375,-0.09375 -0.15625,0 -1.140625,0.859375 -1.71875,2.03125 -0.609375,1.21875 -0.890625,2.484375 -0.890625,3.96875 0,1.0625 0.171875,2.484375 0.78125,3.75 C 2.671875,2.21875 3.640625,3 3.78125,3 3.828125,3 3.890625,2.96875 3.890625,2.90625 Z m 0,0"
               id="path55" />
          </g>
          <g
             id="use33"
             transform="translate(4.5525398,8.9659996)">
            <path
               d="m 2.203125,-4.296875 c -0.203125,0.015625 -0.25,0.03125 -0.25,0.140625 0,0.109375 0.0625,0.109375 0.265625,0.109375 h 0.546875 c 1.03125,0 1.484375,0.84375 1.484375,1.984375 0,1.578125 -0.8125,1.984375 -1.40625,1.984375 -0.578125,0 -1.546875,-0.265625 -1.90625,-1.0625 0.390625,0.0625 0.734375,-0.15625 0.734375,-0.578125 0,-0.34375 -0.25,-0.59375 -0.578125,-0.59375 -0.296875,0 -0.609375,0.171875 -0.609375,0.625 0,1.0625 1.0625,1.9375 2.390625,1.9375 1.421875,0 2.484375,-1.09375 2.484375,-2.296875 C 5.359375,-3.140625 4.46875,-4 3.328125,-4.203125 4.359375,-4.5 5.03125,-5.375 5.03125,-6.3125 c 0,-0.9375 -0.984375,-1.640625 -2.140625,-1.640625 -1.1875,0 -2.078125,0.734375 -2.078125,1.609375 0,0.46875 0.375,0.578125 0.546875,0.578125 0.25,0 0.546875,-0.1875 0.546875,-0.546875 0,-0.375 -0.296875,-0.546875 -0.5625,-0.546875 -0.0625,0 -0.09375,0 -0.125,0.015625 0.453125,-0.8125 1.578125,-0.8125 1.640625,-0.8125 0.390625,0 1.171875,0.171875 1.171875,1.34375 0,0.234375 -0.03125,0.890625 -0.390625,1.40625 C 3.28125,-4.375 2.875,-4.34375 2.5625,-4.328125 Z m 0,0"
               id="path59" />
          </g>
          <g
             id="use35"
             transform="translate(10.405806,8.9659996)">
            <path
               d="m 2.328125,0.046875 c 0,-0.734375 -0.25,-1.203125 -0.71875,-1.203125 -0.34375,0 -0.5625,0.265625 -0.5625,0.578125 C 1.046875,-0.265625 1.265625,0 1.625,0 c 0.1875,0 0.3125,-0.078125 0.390625,-0.140625 0.03125,-0.03125 0.046875,-0.03125 0.046875,-0.03125 0.03125,0 0.03125,0.15625 0.03125,0.21875 0,0.765625 -0.3125,1.484375 -0.84375,2.03125 -0.046875,0.03125 -0.0625,0.0625 -0.0625,0.109375 0,0.0625 0.0625,0.125 0.125,0.125 0.109375,0 1.015625,-0.890625 1.015625,-2.265625 z m 0,0"
               id="path63" />
          </g>
          <g
             id="use37"
             transform="translate(13.65762,8.9659996)">
            <path
               d="m 4.3125,-7.78125 c 0,-0.234375 0,-0.28125 -0.171875,-0.28125 -0.09375,0 -0.125,0 -0.21875,0.140625 L 0.328125,-2.34375 V -2 H 3.46875 v 1.09375 c 0,0.4375 -0.03125,0.5625 -0.90625,0.5625 H 2.328125 V 0 c 0.28125,-0.03125 1.21875,-0.03125 1.5625,-0.03125 0.328125,0 1.28125,0 1.5625,0.03125 V -0.34375 H 5.21875 c -0.875,0 -0.90625,-0.125 -0.90625,-0.5625 V -2 H 5.515625 V -2.34375 H 4.3125 Z m -0.78125,0.9375 v 4.5 H 0.625 Z m 0,0"
               id="path67" />
          </g>
          <g
             id="use39"
             transform="translate(19.510885,8.9659996)">
            <path
               d="m 2.328125,0.046875 c 0,-0.734375 -0.25,-1.203125 -0.71875,-1.203125 -0.34375,0 -0.5625,0.265625 -0.5625,0.578125 C 1.046875,-0.265625 1.265625,0 1.625,0 c 0.1875,0 0.3125,-0.078125 0.390625,-0.140625 0.03125,-0.03125 0.046875,-0.03125 0.046875,-0.03125 0.03125,0 0.03125,0.15625 0.03125,0.21875 0,0.765625 -0.3125,1.484375 -0.84375,2.03125 -0.046875,0.03125 -0.0625,0.0625 -0.0625,0.109375 0,0.0625 0.0625,0.125 0.125,0.125 0.109375,0 1.015625,-0.890625 1.015625,-2.265625 z m 0,0"
               id="path71" />
          </g>
          <g
             id="use41"
             transform="translate(22.762701,8.9659996)">
            <path
               d="m 3.4375,-7.65625 c 0,-0.28125 0,-0.296875 -0.234375,-0.296875 C 2.921875,-7.625 2.3125,-7.1875 1.09375,-7.1875 v 0.34375 c 0.265625,0 0.859375,0 1.53125,-0.296875 v 6.21875 c 0,0.4375 -0.046875,0.578125 -1.09375,0.578125 h -0.375 V 0 c 0.328125,-0.03125 1.484375,-0.03125 1.875,-0.03125 0.40625,0 1.546875,0 1.875,0.03125 v -0.34375 h -0.375 c -1.046875,0 -1.09375,-0.140625 -1.09375,-0.578125 z m 0,0"
               id="path75" />
          </g>
          <g
             id="use43"
             transform="translate(28.615967,8.9659996)">
            <path
               d="M 5.265625,-2.015625 H 5 c -0.046875,0.203125 -0.140625,0.875 -0.25,1.0625 C 4.65625,-0.84375 3.984375,-0.84375 3.625,-0.84375 H 1.40625 c 0.328125,-0.28125 1.0625,-1.046875 1.359375,-1.328125 1.828125,-1.671875 2.5,-2.296875 2.5,-3.484375 0,-1.375 -1.09375,-2.296875 -2.484375,-2.296875 -1.375,0 -2.203125,1.1875 -2.203125,2.21875 0,0.609375 0.53125,0.609375 0.5625,0.609375 0.265625,0 0.5625,-0.1875 0.5625,-0.5625 0,-0.34375 -0.21875,-0.5625 -0.5625,-0.5625 -0.09375,0 -0.125,0 -0.15625,0.015625 0.21875,-0.8125 0.875,-1.375 1.640625,-1.375 1.015625,0 1.640625,0.859375 1.640625,1.953125 C 4.265625,-4.640625 3.6875,-3.75 3,-2.984375 L 0.578125,-0.28125 V 0 h 4.375 z m 0,0"
               id="path79" />
          </g>
          <g
             id="use45"
             transform="translate(34.469234,8.9659996)">
            <path
               d="M 3.375,-2.96875 C 3.375,-3.890625 3.25,-5.359375 2.578125,-6.75 1.875,-8.1875 0.890625,-8.96875 0.765625,-8.96875 c -0.046875,0 -0.109375,0.03125 -0.109375,0.09375 0,0.046875 0,0.0625 0.203125,0.265625 1.203125,1.203125 1.859375,3.1875 1.859375,5.625 0,2.3125 -0.5625,4.3125 -1.9375,5.71875 C 0.65625,2.84375 0.65625,2.875 0.65625,2.90625 0.65625,2.96875 0.71875,3 0.765625,3 0.921875,3 1.90625,2.140625 2.484375,0.96875 3.09375,-0.25 3.375,-1.546875 3.375,-2.96875 Z m 0,0"
               id="path83" />
          </g>
        </g>
      </g>
    </g>
    <g
       inkscape:label=""
       transform="translate(177.76618,226.06628)"
       id="g4168">
      <g
         clip-path="url(#clipPath9934)"
         id="g26"
         transform="matrix(0.352778,0,0,0.352778,-0.115755,0.0878858)">
        <g
           fill="#000000"
           fill-opacity="1"
           id="g24">
          <g
             id="use22"
             transform="translate(0,7.704)">
            <path
               d="M 4.546875,-4.8125 C 4.65625,-4.953125 4.65625,-4.96875 4.65625,-5.015625 4.65625,-5.15625 4.578125,-5.15625 4.375,-5.15625 H 0.625 L 0.484375,-3.25 H 0.75 c 0.078125,-1.21875 0.296875,-1.65625 1.609375,-1.65625 h 1.375 l -3.40625,4.6875 C 0.328125,0 0.34375,0 0.609375,0 H 4.5 L 4.703125,-2.203125 H 4.4375 c -0.109375,1.359375 -0.3125,1.9375 -1.734375,1.9375 H 1.25 Z m 0,0"
               id="path42" />
          </g>
        </g>
      </g>
      <g
         fill="#000000"
         fill-opacity="1"
         id="g30"
         transform="matrix(0.352778,0,0,0.352778,-0.115755,0.0878858)">
        <g
           id="use28"
           transform="translate(9.1002979,7.704)">
          <path
             d="m 8.0625,-3.875 c 0.171875,0 0.390625,0 0.390625,-0.21875 C 8.453125,-4.3125 8.25,-4.3125 8.0625,-4.3125 H 1.03125 c -0.171875,0 -0.390625,0 -0.390625,0.21875 0,0.21875 0.203125,0.21875 0.390625,0.21875 z m 0,2.21875 c 0.171875,0 0.390625,0 0.390625,-0.203125 C 8.453125,-2.09375 8.25,-2.09375 8.0625,-2.09375 H 1.03125 c -0.171875,0 -0.390625,0 -0.390625,0.21875 0,0.21875 0.203125,0.21875 0.390625,0.21875 z m 0,0"
             id="path46" />
        </g>
      </g>
      <g
         clip-path="url(#clipPath2972)"
         id="g36"
         transform="matrix(0.352778,0,0,0.352778,-0.115755,0.0878858)">
        <g
           fill="#000000"
           fill-opacity="1"
           id="g34">
          <g
             id="use32"
             transform="translate(22.114729,7.704)">
            <path
               d="m 5.359375,-3.828125 c 0,-0.984375 -0.0625,-1.953125 -0.5,-2.859375 -0.484375,-1 -1.34375,-1.265625 -1.9375,-1.265625 -0.6875,0 -1.53125,0.34375 -1.984375,1.34375 -0.328125,0.75 -0.453125,1.5 -0.453125,2.78125 0,1.15625 0.09375,2.03125 0.515625,2.890625 0.46875,0.90625 1.296875,1.1875 1.921875,1.1875 1.03125,0 1.625,-0.625 1.984375,-1.3125 0.421875,-0.890625 0.453125,-2.0625 0.453125,-2.765625 z m -2.4375,3.84375 C 2.53125,0.015625 1.75,-0.203125 1.53125,-1.5 c -0.125,-0.71875 -0.125,-1.625 -0.125,-2.46875 0,-0.984375 0,-1.859375 0.1875,-2.5625 0.203125,-0.8125 0.8125,-1.171875 1.328125,-1.171875 0.453125,0 1.140625,0.265625 1.375,1.296875 0.15625,0.6875 0.15625,1.625 0.15625,2.4375 0,0.796875 0,1.703125 -0.140625,2.4375 -0.21875,1.3125 -0.984375,1.546875 -1.390625,1.546875 z m 0,0"
               id="path50" />
          </g>
        </g>
      </g>
    </g>
    <path
       style="fill:#1a1a1a;fill-opacity:0;stroke:#1a1a1a;stroke-width:0.499999"
       d="m 142.69287,224.31327 c 3.89945,0.51993 0.97486,2.8596 0.97486,2.8596"
       id="path4666" />
    <path
       style="fill:#1a1a1a;fill-opacity:0;stroke:#1a1a1a;stroke-width:0.1;stroke-dasharray:none"
       d="m 137.86623,221.79929 43.3819,-21.69095 -43.3819,32.53643"
       id="path4668" />
    <g
       inkscape:label=""
       transform="translate(147.95316,210.58071)"
       id="g5270">
      <g
         fill="#000000"
         fill-opacity="1"
         id="g19"
         transform="matrix(0.352778,0,0,0.352778,-0.198437,-0.0044978)">
        <g
           id="use17"
           transform="translate(0,8.1689997)">
          <path
             d="M 4.40625,-7.34375 C 4.5,-7.796875 4.546875,-7.8125 5.015625,-7.8125 H 5.875 c 1.03125,0 1.796875,0.3125 1.796875,1.234375 0,0.609375 -0.3125,2.375 -2.71875,2.375 H 3.609375 Z M 6.0625,-4.0625 C 7.546875,-4.390625 8.703125,-5.34375 8.703125,-6.375 8.703125,-7.296875 7.75,-8.15625 6.09375,-8.15625 H 2.859375 c -0.234375,0 -0.34375,0 -0.34375,0.21875 0,0.125 0.078125,0.125 0.3125,0.125 0.703125,0 0.703125,0.09375 0.703125,0.21875 0,0.03125 0,0.09375 -0.046875,0.28125 L 1.875,-0.890625 C 1.765625,-0.46875 1.75,-0.34375 0.921875,-0.34375 c -0.28125,0 -0.359375,0 -0.359375,0.21875 C 0.5625,0 0.6875,0 0.734375,0 0.9375,0 1.1875,-0.03125 1.421875,-0.03125 h 1.40625 c 0.21875,0 0.46875,0.03125 0.6875,0.03125 0.09375,0 0.21875,0 0.21875,-0.234375 0,-0.109375 -0.09375,-0.109375 -0.28125,-0.109375 -0.734375,0 -0.734375,-0.09375 -0.734375,-0.21875 0,-0.015625 0,-0.09375 0.03125,-0.1875 l 0.796875,-3.21875 h 1.4375 c 1.140625,0 1.34375,0.71875 1.34375,1.109375 0,0.1875 -0.109375,0.640625 -0.203125,0.953125 -0.125,0.5625 -0.15625,0.6875 -0.15625,0.921875 0,0.84375 0.6875,1.234375 1.484375,1.234375 0.96875,0 1.390625,-1.1875 1.390625,-1.34375 0,-0.09375 -0.0625,-0.125 -0.125,-0.125 -0.09375,0 -0.125,0.078125 -0.140625,0.171875 C 8.28125,-0.203125 7.796875,0.015625 7.5,0.015625 7.203125,0.015625 7,-0.125 7,-0.65625 c 0,-0.28125 0.140625,-1.375 0.15625,-1.4375 0.0625,-0.4375 0.0625,-0.484375 0.0625,-0.578125 0,-0.875 -0.703125,-1.25 -1.15625,-1.390625 z m 0,0"
             id="path31" />
        </g>
      </g>
      <g
         clip-path="url(#clipPath6626)"
         id="g25"
         transform="matrix(0.352778,0,0,0.352778,-0.198437,-0.0044978)">
        <g
           fill="#000000"
           fill-opacity="1"
           id="g5267">
          <g
             id="use21"
             transform="translate(8.9099998,9.9630003)">
            <path
               d="M 3.46875,-1.8125 H 5.8125 c 0.109375,0 0.296875,0 0.296875,-0.171875 0,-0.1875 -0.1875,-0.1875 -0.296875,-0.1875 H 3.46875 V -4.53125 c 0,-0.109375 0,-0.28125 -0.171875,-0.28125 -0.1875,0 -0.1875,0.171875 -0.1875,0.28125 v 2.359375 H 0.75 c -0.109375,0 -0.28125,0 -0.28125,0.1875 0,0.171875 0.171875,0.171875 0.28125,0.171875 h 2.359375 v 2.359375 c 0,0.109375 0,0.28125 0.1875,0.28125 0.171875,0 0.171875,-0.171875 0.171875,-0.28125 z m 0,0"
               id="path5264" />
          </g>
        </g>
      </g>
    </g>
    <g
       inkscape:label=""
       transform="translate(152.60085,220.93842)"
       id="g5487">
      <g
         fill="#000000"
         fill-opacity="1"
         id="g16"
         transform="matrix(0.352778,0,0,0.352778,-0.198437,-0.0044978)">
        <g
           id="use14"
           transform="translate(0,8.1689997)">
          <path
             d="M 4.40625,-7.34375 C 4.5,-7.796875 4.546875,-7.8125 5.015625,-7.8125 H 5.875 c 1.03125,0 1.796875,0.3125 1.796875,1.234375 0,0.609375 -0.3125,2.375 -2.71875,2.375 H 3.609375 Z M 6.0625,-4.0625 C 7.546875,-4.390625 8.703125,-5.34375 8.703125,-6.375 8.703125,-7.296875 7.75,-8.15625 6.09375,-8.15625 H 2.859375 c -0.234375,0 -0.34375,0 -0.34375,0.21875 0,0.125 0.078125,0.125 0.3125,0.125 0.703125,0 0.703125,0.09375 0.703125,0.21875 0,0.03125 0,0.09375 -0.046875,0.28125 L 1.875,-0.890625 C 1.765625,-0.46875 1.75,-0.34375 0.921875,-0.34375 c -0.28125,0 -0.359375,0 -0.359375,0.21875 C 0.5625,0 0.6875,0 0.734375,0 0.9375,0 1.1875,-0.03125 1.421875,-0.03125 h 1.40625 c 0.21875,0 0.46875,0.03125 0.6875,0.03125 0.09375,0 0.21875,0 0.21875,-0.234375 0,-0.109375 -0.09375,-0.109375 -0.28125,-0.109375 -0.734375,0 -0.734375,-0.09375 -0.734375,-0.21875 0,-0.015625 0,-0.09375 0.03125,-0.1875 l 0.796875,-3.21875 h 1.4375 c 1.140625,0 1.34375,0.71875 1.34375,1.109375 0,0.1875 -0.109375,0.640625 -0.203125,0.953125 -0.125,0.5625 -0.15625,0.6875 -0.15625,0.921875 0,0.84375 0.6875,1.234375 1.484375,1.234375 0.96875,0 1.390625,-1.1875 1.390625,-1.34375 0,-0.09375 -0.0625,-0.125 -0.125,-0.125 -0.09375,0 -0.125,0.078125 -0.140625,0.171875 C 8.28125,-0.203125 7.796875,0.015625 7.5,0.015625 7.203125,0.015625 7,-0.125 7,-0.65625 c 0,-0.28125 0.140625,-1.375 0.15625,-1.4375 0.0625,-0.4375 0.0625,-0.484375 0.0625,-0.578125 0,-0.875 -0.703125,-1.25 -1.15625,-1.390625 z m 0,0"
             id="path26" />
        </g>
      </g>
      <g
         fill="#000000"
         fill-opacity="1"
         id="g20"
         transform="matrix(0.352778,0,0,0.352778,-0.198437,-0.0044978)">
        <g
           id="use18"
           transform="translate(8.9099998,9.9630003)">
          <path
             d="m 5.5625,-1.8125 c 0.140625,0 0.3125,0 0.3125,-0.171875 0,-0.1875 -0.171875,-0.1875 -0.3125,-0.1875 H 1 c -0.125,0 -0.296875,0 -0.296875,0.1875 C 0.703125,-1.8125 0.875,-1.8125 1,-1.8125 Z m 0,0"
             id="path30" />
        </g>
      </g>
    </g>
    <g
       inkscape:label=""
       transform="translate(149.94503,216.42352)"
       id="g5669">
      <g
         clip-path="url(#clipPath6933)"
         id="g17"
         transform="matrix(0.352778,0,0,0.352778,-0.148828,-0.001808)">
        <g
           fill="#000000"
           fill-opacity="1"
           id="g15">
          <g
             id="use13"
             transform="translate(0,8.302)">
            <path
               d="M 3.578125,-8.15625 V -7.8125 C 4.40625,-7.8125 4.5,-7.734375 4.5,-7.140625 V -4.5 C 4.25,-4.859375 3.734375,-5.265625 3,-5.265625 c -1.390625,0 -2.578125,1.171875 -2.578125,2.703125 0,1.515625 1.125,2.6875 2.453125,2.6875 0.90625,0 1.421875,-0.609375 1.59375,-0.828125 V 0.125 L 6.15625,0 V -0.34375 C 5.34375,-0.34375 5.25,-0.4375 5.25,-1.015625 v -7.28125 z m 0.890625,6.75 c 0,0.21875 0,0.265625 -0.171875,0.515625 -0.28125,0.421875 -0.765625,0.765625 -1.375,0.765625 -0.296875,0 -1.59375,-0.109375 -1.59375,-2.4375 0,-0.859375 0.140625,-1.328125 0.40625,-1.734375 0.234375,-0.359375 0.71875,-0.734375 1.3125,-0.734375 0.75,0 1.15625,0.53125 1.28125,0.734375 0.140625,0.203125 0.140625,0.21875 0.140625,0.4375 z m 0,0"
               id="path23" />
          </g>
        </g>
      </g>
    </g>
    <g
       inkscape:label=""
       transform="translate(145.82851,222.53191)"
       id="g6607">
      <g
         clip-path="url(#clipPath207)"
         id="g6605"
         transform="matrix(0.352778,0,0,0.352778,-0.170877,0.0422892)">
        <g
           fill="#000000"
           fill-opacity="1"
           id="g6603">
          <g
             id="g6601"
             transform="translate(0,8.302)">
            <path
               d="m 5.296875,-6.015625 c 0,-1.21875 -0.390625,-2.40625 -1.359375,-2.40625 -1.671875,0 -3.453125,3.515625 -3.453125,6.140625 0,0.546875 0.109375,2.40625 1.375,2.40625 1.625,0 3.4375,-3.421875 3.4375,-6.140625 z m -3.625,1.6875 c 0.1875,-0.703125 0.4375,-1.703125 0.90625,-2.5625 0.390625,-0.71875 0.8125,-1.28125 1.34375,-1.28125 0.390625,0 0.65625,0.328125 0.65625,1.484375 0,0.421875 -0.03125,1.015625 -0.375,2.359375 z m 2.4375,0.359375 C 3.8125,-2.796875 3.5625,-2.046875 3.125,-1.296875 2.78125,-0.6875 2.359375,-0.125 1.859375,-0.125 1.5,-0.125 1.1875,-0.40625 1.1875,-1.59375 c 0,-0.765625 0.203125,-1.578125 0.390625,-2.375 z m 0,0"
               id="path6599" />
          </g>
        </g>
      </g>
    </g>
  </g>
</svg>
