<?xml version="1.0" encoding="UTF-8" standalone="no"?>
<!-- Created with Inkscape (http://www.inkscape.org/) -->

<svg
   width="208.19466mm"
   height="64.832993mm"
   viewBox="0 0 208.19465 64.832991"
   version="1.1"
   id="svg8"
   inkscape:version="1.2.1 (9c6d41e, 2022-07-14)"
   sodipodi:docname="l.svg"
   xmlns:inkscape="http://www.inkscape.org/namespaces/inkscape"
   xmlns:sodipodi="http://sodipodi.sourceforge.net/DTD/sodipodi-0.dtd"
   xmlns="http://www.w3.org/2000/svg"
   xmlns:svg="http://www.w3.org/2000/svg"
   xmlns:rdf="http://www.w3.org/1999/02/22-rdf-syntax-ns#"
   xmlns:cc="http://creativecommons.org/ns#"
   xmlns:dc="http://purl.org/dc/elements/1.1/">
  <defs
     id="defs2">
    <clipPath
       id="clipPath1502">
      <path
         clip-rule="nonzero"
         d="m 8,4 h 4 v 8.113281 H 8 Z m 0,0"
         id="path8243" />
    </clipPath>
    <clipPath
       id="clipPath3603">
      <path
         clip-rule="nonzero"
         d="m 7,4 h 6 v 8.113281 H 7 Z m 0,0"
         id="path7298" />
    </clipPath>
    <clipPath
       id="clipPath4657">
      <path
         clip-rule="nonzero"
         d="M 0,0 H 10 V 9.804688 H 0 Z m 0,0"
         id="path7208" />
    </clipPath>
    <clipPath
       id="clipPath5572">
      <path
         clip-rule="nonzero"
         d="M 0,0 H 10 V 9.804688 H 0 Z m 0,0"
         id="path5489" />
    </clipPath>
    <clipPath
       id="clipPath2639">
      <path
         clip-rule="nonzero"
         d="M 9,0 H 73 V 9.804688 H 9 Z m 0,0"
         id="path3302" />
    </clipPath>
    <clipPath
       id="clipPath1495">
      <path
         clip-rule="nonzero"
         d="M 0,0 H 41 V 9.804688 H 0 Z m 0,0"
         id="path6259" />
    </clipPath>
    <clipPath
       id="clipPath2397">
      <path
         clip-rule="nonzero"
         d="M 40,3 H 51.699219 V 9.804688 H 40 Z m 0,0"
         id="path9825" />
    </clipPath>
  </defs>
  <sodipodi:namedview
     id="base"
     pagecolor="#ffffff"
     bordercolor="#666666"
     borderopacity="1.0"
     inkscape:pageopacity="0.0"
     inkscape:pageshadow="2"
     inkscape:zoom="0.73277891"
     inkscape:cx="284.5333"
     inkscape:cy="171.94818"
     inkscape:document-units="mm"
     inkscape:current-layer="layer1"
     showgrid="false"
     showborder="true"
     width="200mm"
     showguides="true"
     inkscape:guide-bbox="true"
     inkscape:window-width="1440"
     inkscape:window-height="872"
     inkscape:window-x="0"
     inkscape:window-y="28"
     inkscape:window-maximized="0"
     inkscape:showpageshadow="2"
     inkscape:pagecheckerboard="0"
     inkscape:deskcolor="#d1d1d1">
    <inkscape:grid
       type="xygrid"
       id="grid815"
       units="mm"
       spacingx="10"
       spacingy="10"
       empspacing="4"
       dotted="false"
       originx="-1.2819461"
       originy="-64.631245" />
  </sodipodi:namedview>
  <metadata
     id="metadata5">
    <rdf:RDF>
      <cc:Work
         rdf:about="">
        <dc:format>image/svg+xml</dc:format>
        <dc:type
           rdf:resource="http://purl.org/dc/dcmitype/StillImage" />
      </cc:Work>
    </rdf:RDF>
  </metadata>
  <g
     inkscape:label="Layer 1"
     inkscape:groupmode="layer"
     id="layer1"
     transform="translate(-1.2819462,-241.63125)">
    <path
       style="fill:none;fill-opacity:0.054902;stroke:#000000;stroke-width:1.1;stroke-opacity:0.991489"
       d="m 57.914234,250.78163 84.108806,-0.41845"
       id="path433" />
    <path
       sodipodi:type="star"
       style="fill:none;fill-opacity:0.054902;stroke:#000000;stroke-width:1.1;stroke-opacity:0.991489"
       id="path489"
       inkscape:flatsided="true"
       sodipodi:sides="3"
       sodipodi:cx="81.598099"
       sodipodi:cy="46.029694"
       sodipodi:r1="27.414179"
       sodipodi:r2="6.6616459"
       sodipodi:arg1="-1.0251413"
       sodipodi:arg2="0.022056279"
       inkscape:rounded="0"
       inkscape:randomized="0"
       d="M 95.825457,22.596395 94.778251,70.067597 54.190588,45.425089 Z"
       inkscape:transform-center-x="-0.10675455"
       inkscape:transform-center-y="-6.7608866"
       transform="rotate(88.290032,-29.032738,171.99515)" />
    <path
       style="fill:none;fill-opacity:0.054902;stroke:#000000;stroke-width:0.7;stroke-dasharray:0.7, 0.7;stroke-dashoffset:0;stroke-opacity:0.991489"
       d="m 100.17786,252.03699 0.41846,40.58982"
       id="path703" />
    <path
       style="fill:none;fill-opacity:0.054902;stroke:#000000;stroke-width:0.7;stroke-dasharray:none;stroke-dashoffset:0;stroke-opacity:0.991489"
       d="m 83.439792,274.63338 4.812197,-2.51071 v 5.6491"
       id="path13274" />
    <path
       style="fill:none;fill-opacity:0.054902;stroke:#000000;stroke-width:0.7;stroke-dasharray:none;stroke-dashoffset:0;stroke-opacity:0.991489"
       d="m 108.33767,273.79648 6.27678,2.30148 v -5.64909"
       id="path13276" />
    <path
       style="fill:none;fill-opacity:0.054902;stroke:#000000;stroke-width:0.7;stroke-dasharray:none;stroke-dashoffset:0;stroke-opacity:0.991489"
       d="m 110.63915,289.90687 4.39374,2.30149 -4.18451,2.92916"
       id="path13280" />
    <path
       style="fill:none;fill-opacity:0.054902;stroke:#000000;stroke-width:0.7;stroke-dasharray:none;stroke-dashoffset:0;stroke-opacity:0.991489"
       d="m 87.683374,290.23237 4.39374,2.30148 -4.18451,2.92917"
       id="path13280-7" />
    <g
       inkscape:label=""
       transform="translate(96.837661,272.71527)"
       id="g533">
      <g
         fill="#000000"
         fill-opacity="1"
         id="g12"
         transform="matrix(0.352778,0,0,0.352778,-0.159852,-0.00348379)">
        <g
           id="use10"
           transform="translate(0,9.9630003)">
          <path
             d="m 6.390625,-3.484375 c 0,-1.328125 0,-1.734375 -0.34375,-2.203125 -0.40625,-0.546875 -1.078125,-0.640625 -1.578125,-0.640625 -1.234375,0 -1.796875,0.9375 -2,1.375 H 2.453125 v -5 l -2,0.15625 V -9.375 c 0.984375,0 1.09375,0.09375 1.09375,0.796875 V -1.0625 c 0,0.640625 -0.15625,0.640625 -1.09375,0.640625 V 0 c 0.375,-0.03125 1.15625,-0.03125 1.5625,-0.03125 0.40625,0 1.1875,0 1.5625,0.03125 v -0.421875 c -0.921875,0 -1.09375,0 -1.09375,-0.640625 v -2.671875 c 0,-1.5 0.984375,-2.296875 1.875,-2.296875 0.890625,0 1.09375,0.71875 1.09375,1.59375 v 3.375 c 0,0.640625 -0.15625,0.640625 -1.09375,0.640625 V 0 c 0.375,-0.03125 1.15625,-0.03125 1.546875,-0.03125 0.421875,0 1.1875,0 1.5625,0.03125 v -0.421875 c -0.71875,0 -1.078125,0 -1.078125,-0.421875 z m 0,0"
             id="path18" />
        </g>
      </g>
    </g>
    <g
       inkscape:label=""
       transform="translate(91.266938,285.376)"
       id="g608">
      <g
         fill="#000000"
         fill-opacity="1"
         id="g19"
         transform="matrix(0.352778,0,0,0.352778,-0.20395,-0.00348379)">
        <g
           id="use17"
           transform="translate(0,9.9630003)">
          <path
             d="m 7.21875,-9.59375 c 0.015625,-0.0625 0.046875,-0.140625 0.046875,-0.21875 0,-0.140625 -0.15625,-0.140625 -0.1875,-0.140625 0,0 -0.703125,0.0625 -0.78125,0.0625 -0.25,0.015625 -0.453125,0.046875 -0.71875,0.0625 C 5.21875,-9.796875 5.125,-9.78125 5.125,-9.53125 c 0,0.15625 0.109375,0.15625 0.3125,0.15625 0.703125,0 0.71875,0.125 0.71875,0.265625 0,0.09375 -0.03125,0.203125 -0.046875,0.25 L 5.234375,-5.375 C 5.078125,-5.75 4.6875,-6.328125 3.9375,-6.328125 c -1.609375,0 -3.359375,2.09375 -3.359375,4.21875 0,1.421875 0.828125,2.25 1.796875,2.25 0.796875,0 1.46875,-0.609375 1.875,-1.09375 0.140625,0.859375 0.8125,1.09375 1.25,1.09375 0.421875,0 0.765625,-0.25 1.03125,-0.765625 C 6.75,-1.125 6.953125,-2 6.953125,-2.046875 6.953125,-2.125 6.90625,-2.1875 6.8125,-2.1875 c -0.125,0 -0.140625,0.078125 -0.203125,0.296875 -0.21875,0.84375 -0.484375,1.75 -1.078125,1.75 -0.40625,0 -0.4375,-0.375 -0.4375,-0.65625 0,-0.0625 0,-0.359375 0.09375,-0.765625 z M 4.3125,-1.703125 C 4.25,-1.46875 4.25,-1.4375 4.046875,-1.15625 c -0.3125,0.390625 -0.953125,1.015625 -1.625,1.015625 -0.578125,0 -0.921875,-0.53125 -0.921875,-1.375 0,-0.796875 0.453125,-2.40625 0.71875,-3 0.5,-1 1.171875,-1.515625 1.71875,-1.515625 0.953125,0 1.140625,1.171875 1.140625,1.28125 0,0.015625 -0.046875,0.203125 -0.0625,0.234375 z m 0,0"
             id="path31" />
        </g>
      </g>
      <g
         clip-path="url(#clipPath1502)"
         id="g25"
         transform="matrix(0.352778,0,0,0.352778,-0.20395,-0.00348379)">
        <g
           fill="#000000"
           fill-opacity="1"
           id="g23">
          <g
             id="use21"
             transform="translate(7.2989998,12.115)">
            <path
               d="m 3.203125,-6.984375 c 0,-0.25 0,-0.28125 -0.25,-0.28125 C 2.28125,-6.5625 1.3125,-6.5625 0.96875,-6.5625 v 0.328125 c 0.21875,0 0.859375,0 1.4375,-0.28125 v 5.65625 c 0,0.390625 -0.046875,0.515625 -1.015625,0.515625 H 1.03125 V 0 c 0.390625,-0.03125 1.328125,-0.03125 1.765625,-0.03125 0.4375,0 1.390625,0 1.765625,0.03125 V -0.34375 H 4.21875 c -0.984375,0 -1.015625,-0.109375 -1.015625,-0.515625 z m 0,0"
               id="path35" />
          </g>
        </g>
      </g>
    </g>
    <g
       inkscape:label=""
       transform="translate(110.25804,285.12278)"
       id="g691">
      <g
         fill="#000000"
         fill-opacity="1"
         id="g681"
         transform="matrix(0.352778,0,0,0.352778,-0.20395,-0.00348379)">
        <g
           id="g679"
           transform="translate(0,9.9630003)">
          <path
             d="m 7.21875,-9.59375 c 0.015625,-0.0625 0.046875,-0.140625 0.046875,-0.21875 0,-0.140625 -0.15625,-0.140625 -0.1875,-0.140625 0,0 -0.703125,0.0625 -0.78125,0.0625 -0.25,0.015625 -0.453125,0.046875 -0.71875,0.0625 C 5.21875,-9.796875 5.125,-9.78125 5.125,-9.53125 c 0,0.15625 0.109375,0.15625 0.3125,0.15625 0.703125,0 0.71875,0.125 0.71875,0.265625 0,0.09375 -0.03125,0.203125 -0.046875,0.25 L 5.234375,-5.375 C 5.078125,-5.75 4.6875,-6.328125 3.9375,-6.328125 c -1.609375,0 -3.359375,2.09375 -3.359375,4.21875 0,1.421875 0.828125,2.25 1.796875,2.25 0.796875,0 1.46875,-0.609375 1.875,-1.09375 0.140625,0.859375 0.8125,1.09375 1.25,1.09375 0.421875,0 0.765625,-0.25 1.03125,-0.765625 C 6.75,-1.125 6.953125,-2 6.953125,-2.046875 6.953125,-2.125 6.90625,-2.1875 6.8125,-2.1875 c -0.125,0 -0.140625,0.078125 -0.203125,0.296875 -0.21875,0.84375 -0.484375,1.75 -1.078125,1.75 -0.40625,0 -0.4375,-0.375 -0.4375,-0.65625 0,-0.0625 0,-0.359375 0.09375,-0.765625 z M 4.3125,-1.703125 C 4.25,-1.46875 4.25,-1.4375 4.046875,-1.15625 c -0.3125,0.390625 -0.953125,1.015625 -1.625,1.015625 -0.578125,0 -0.921875,-0.53125 -0.921875,-1.375 0,-0.796875 0.453125,-2.40625 0.71875,-3 0.5,-1 1.171875,-1.515625 1.71875,-1.515625 0.953125,0 1.140625,1.171875 1.140625,1.28125 0,0.015625 -0.046875,0.203125 -0.0625,0.234375 z m 0,0"
             id="path677" />
        </g>
      </g>
      <g
         clip-path="url(#clipPath3603)"
         id="g689"
         transform="matrix(0.352778,0,0,0.352778,-0.20395,-0.00348379)">
        <g
           fill="#000000"
           fill-opacity="1"
           id="g687">
          <g
             id="g685"
             transform="translate(7.2989998,12.115)">
            <path
               d="m 1.390625,-0.84375 1.15625,-1.125 c 1.703125,-1.5 2.34375,-2.09375 2.34375,-3.171875 0,-1.25 -0.96875,-2.125 -2.3125,-2.125 -1.21875,0 -2.03125,1 -2.03125,1.96875 0,0.625 0.546875,0.625 0.578125,0.625 0.1875,0 0.5625,-0.140625 0.5625,-0.578125 0,-0.296875 -0.1875,-0.578125 -0.578125,-0.578125 -0.078125,0 -0.109375,0 -0.140625,0.015625 0.25,-0.703125 0.84375,-1.109375 1.46875,-1.109375 1,0 1.46875,0.875 1.46875,1.78125 0,0.859375 -0.546875,1.734375 -1.140625,2.40625 l -2.09375,2.328125 c -0.125,0.125 -0.125,0.140625 -0.125,0.40625 H 4.59375 L 4.890625,-1.890625 H 4.625 C 4.5625,-1.578125 4.5,-1.09375 4.390625,-0.921875 4.3125,-0.84375 3.59375,-0.84375 3.34375,-0.84375 Z m 0,0"
               id="path683" />
          </g>
        </g>
      </g>
    </g>
    <g
       inkscape:label=""
       transform="translate(72.782268,292.46602)"
       id="g784">
      <g
         fill="#000000"
         fill-opacity="1"
         id="g782"
         transform="matrix(0.352778,0,0,0.352778,-0.15434,0.152179)">
        <g
           id="g780"
           transform="translate(0,9.8030005)">
          <path
             d="m 5.546875,-9.984375 c -0.046875,-0.171875 -0.078125,-0.25 -0.28125,-0.25 -0.203125,0 -0.234375,0.03125 -0.296875,0.265625 l -3,8.578125 C 1.765625,-0.796875 1.359375,-0.4375 0.4375,-0.421875 V 0 c 0.875,-0.03125 0.90625,-0.03125 1.390625,-0.03125 0.390625,0 1.078125,0 1.453125,0.03125 V -0.421875 C 2.6875,-0.4375 2.328125,-0.734375 2.328125,-1.140625 c 0,-0.078125 0,-0.109375 0.0625,-0.296875 L 3.0625,-3.34375 h 3.609375 l 0.78125,2.25 c 0.078125,0.171875 0.078125,0.203125 0.078125,0.25 0,0.421875 -0.734375,0.421875 -1.09375,0.421875 V 0 c 0.328125,-0.03125 1.46875,-0.03125 1.875,-0.03125 0.390625,0 1.421875,0 1.75,0.03125 v -0.421875 c -0.921875,0 -1.1875,0 -1.390625,-0.578125 z m -0.6875,1.453125 1.671875,4.765625 H 3.203125 Z m 0,0"
             id="path778" />
        </g>
      </g>
    </g>
    <g
       inkscape:label=""
       transform="translate(98.356949,245.36809)"
       id="g879">
      <g
         fill="#000000"
         fill-opacity="1"
         id="g877"
         transform="matrix(0.352778,0,0,0.352778,-0.214974,-0.00216092)">
        <g
           id="g875"
           transform="translate(0,9.8030005)">
          <path
             d="M 0.609375,-9.796875 V -9.375 H 0.90625 c 1.03125,0 1.078125,0.140625 1.078125,0.671875 v 7.609375 c 0,0.53125 -0.046875,0.671875 -1.078125,0.671875 H 0.609375 V 0 h 5.40625 c 1.84375,0 3.140625,-1.25 3.140625,-2.625 0,-1.15625 -1.046875,-2.3125 -2.765625,-2.5 C 7.765625,-5.375 8.75,-6.296875 8.75,-7.375 8.75,-8.609375 7.5,-9.796875 5.625,-9.796875 Z m 2.453125,4.5625 V -8.8125 c 0,-0.46875 0.03125,-0.5625 0.671875,-0.5625 H 5.53125 c 1.4375,0 1.953125,1.234375 1.953125,2 0,0.953125 -0.75,2.140625 -2.328125,2.140625 z m 0.671875,4.8125 c -0.640625,0 -0.671875,-0.09375 -0.671875,-0.5625 v -3.96875 H 5.75 c 1.375,0 2.09375,1.203125 2.09375,2.3125 0,1.15625 -0.875,2.21875 -2.28125,2.21875 z m 0,0"
             id="path873" />
        </g>
      </g>
    </g>
    <g
       inkscape:label=""
       transform="translate(125.19771,292.46602)"
       id="g982">
      <g
         clip-path="url(#clipPath4657)"
         id="g17"
         transform="matrix(0.352778,0,0,0.352778,-0.275608,0.10257)">
        <g
           fill="#000000"
           fill-opacity="1"
           id="g15">
          <g
             id="use13"
             transform="translate(0,9.8030005)">
            <path
               d="m 9.359375,-9.765625 c 0,-0.265625 0,-0.328125 -0.15625,-0.328125 -0.078125,0 -0.09375,0.03125 -0.1875,0.171875 l -0.703125,1.125 C 7.671875,-9.59375 6.703125,-10.09375 5.671875,-10.09375 c -2.625,0 -4.890625,2.265625 -4.890625,5.1875 0,2.96875 2.28125,5.203125 4.890625,5.203125 2.34375,0 3.6875,-2.046875 3.6875,-3.625 0,-0.15625 0,-0.25 -0.171875,-0.25 -0.140625,0 -0.15625,0.078125 -0.15625,0.171875 -0.125,2.28125 -1.78125,3.296875 -3.171875,3.296875 -1.015625,0 -3.75,-0.609375 -3.75,-4.796875 0,-4.140625 2.703125,-4.78125 3.734375,-4.78125 1.5,0 2.8125,1.28125 3.109375,3.4375 0.03125,0.171875 0.03125,0.21875 0.203125,0.21875 0.203125,0 0.203125,-0.046875 0.203125,-0.34375 z m 0,0"
               id="path23" />
          </g>
        </g>
      </g>
    </g>
    <g
       inkscape:label=""
       transform="translate(69.996907,244.10201)"
       id="g1113">
      <g
         fill="#000000"
         fill-opacity="1"
         id="g44"
         transform="matrix(0.352778,0,0,0.352778,-0.214974,0.0461256)">
        <g
           id="use28"
           transform="translate(0,9.9630003)">
          <path
             d="m 6.046875,-4.875 c 1.421875,-0.328125 2.53125,-1.234375 2.53125,-2.34375 0,-1.390625 -1.625,-2.578125 -3.6875,-2.578125 H 0.609375 V -9.375 h 0.28125 c 1.03125,0 1.078125,0.140625 1.078125,0.671875 v 7.609375 c 0,0.53125 -0.046875,0.671875 -1.078125,0.671875 H 0.609375 V 0 c 0.328125,-0.03125 1.5,-0.03125 1.921875,-0.03125 0.40625,0 1.59375,0 1.921875,0.03125 v -0.421875 h -0.28125 c -1.03125,0 -1.078125,-0.140625 -1.078125,-0.671875 v -3.671875 h 1.671875 c 0.5625,0 1.09375,0.15625 1.46875,0.5625 0.5,0.546875 0.5,0.84375 0.5,1.84375 0,1.125 0,1.5 0.625,2.109375 0.21875,0.21875 0.8125,0.546875 1.625,0.546875 1.109375,0 1.296875,-1.25 1.296875,-1.546875 0,-0.078125 0,-0.21875 -0.15625,-0.21875 -0.140625,0 -0.140625,0.09375 -0.15625,0.234375 -0.078125,0.859375 -0.484375,1.25 -0.953125,1.25 -0.65625,0 -0.796875,-0.671875 -0.90625,-1.4375 C 8.09375,-1.515625 8,-2.140625 7.953125,-2.5 7.859375,-3.21875 7.796875,-3.671875 7.375,-4.109375 7.21875,-4.28125 6.84375,-4.65625 6.046875,-4.875 Z M 4.703125,-5.046875 H 3.09375 V -8.8125 c 0,-0.328125 0,-0.5 0.3125,-0.546875 C 3.53125,-9.375 3.953125,-9.375 4.25,-9.375 c 1.15625,0 3,0 3,2.15625 0,1.25 -0.6875,2.171875 -2.546875,2.171875 z m 0,0"
             id="path50" />
        </g>
        <g
           id="use30"
           transform="translate(10.337872,9.9630003)">
          <path
             d="m 5.5,-3.328125 c 0.3125,0 0.34375,0 0.34375,-0.265625 0,-1.453125 -0.78125,-2.796875 -2.515625,-2.796875 -1.640625,0 -2.890625,1.46875 -2.890625,3.25 0,1.890625 1.453125,3.28125 3.046875,3.28125 1.703125,0 2.359375,-1.546875 2.359375,-1.84375 0,-0.09375 -0.078125,-0.140625 -0.15625,-0.140625 -0.125,0 -0.15625,0.0625 -0.171875,0.140625 -0.375,1.203125 -1.34375,1.53125 -1.9375,1.53125 -0.609375,0 -2.0625,-0.40625 -2.0625,-2.890625 V -3.328125 Z M 1.53125,-3.59375 c 0.125,-2.265625 1.375,-2.515625 1.78125,-2.515625 1.53125,0 1.625,2.015625 1.640625,2.515625 z m 0,0"
             id="path54" />
        </g>
        <g
           id="use32"
           transform="translate(16.581339,9.9630003)">
          <path
             d="M 6.296875,-9.953125 C 6.203125,-9.9375 5.890625,-9.875 5.8125,-9.875 c -0.03125,0 -0.0625,0 -0.125,-0.03125 -0.5,-0.1875 -0.9375,-0.1875 -1.171875,-0.1875 -1.484375,0 -3.03125,0.78125 -3.03125,2.265625 V -6.1875 H 0.375 v 0.421875 H 1.484375 V -1.0625 c 0,0.640625 -0.15625,0.640625 -1.078125,0.640625 V 0 C 0.796875,-0.03125 1.5,-0.03125 1.9375,-0.03125 c 0.421875,0 1.140625,0 1.546875,0.03125 v -0.421875 c -0.921875,0 -1.09375,0 -1.09375,-0.640625 v -4.703125 h 3 V -1.0625 c 0,0.640625 -0.15625,0.640625 -1.09375,0.640625 V 0 c 0.40625,-0.03125 1.109375,-0.03125 1.546875,-0.03125 0.421875,0 1.140625,0 1.546875,0.03125 v -0.421875 c -0.921875,0 -1.09375,0 -1.09375,-0.640625 z m -3.9375,3.765625 v -1.609375 c 0,-1.375 1.09375,-2.015625 2.140625,-2.015625 0.5,0 0.53125,0 0.875,0.109375 0,0 0.015625,0.046875 0,0.0625 -0.15625,0.125 -0.265625,0.28125 -0.265625,0.5 0,0.125 0.046875,0.359375 0.28125,0.484375 v 2.46875 z m 0,0"
             id="path58" />
        </g>
        <g
           id="use34"
           transform="translate(24.385672,9.9630003)">
          <path
             d="m 5.5,-3.328125 c 0.3125,0 0.34375,0 0.34375,-0.265625 0,-1.453125 -0.78125,-2.796875 -2.515625,-2.796875 -1.640625,0 -2.890625,1.46875 -2.890625,3.25 0,1.890625 1.453125,3.28125 3.046875,3.28125 1.703125,0 2.359375,-1.546875 2.359375,-1.84375 0,-0.09375 -0.078125,-0.140625 -0.15625,-0.140625 -0.125,0 -0.15625,0.0625 -0.171875,0.140625 -0.375,1.203125 -1.34375,1.53125 -1.9375,1.53125 -0.609375,0 -2.0625,-0.40625 -2.0625,-2.890625 V -3.328125 Z M 1.53125,-3.59375 c 0.125,-2.265625 1.375,-2.515625 1.78125,-2.515625 1.53125,0 1.625,2.015625 1.640625,2.515625 z m 0,0"
             id="path62" />
        </g>
        <g
           id="use36"
           transform="translate(30.629137,9.9630003)">
          <path
             d="m 5.1875,-5.3125 c -0.171875,0 -0.703125,0 -0.703125,0.59375 0,0.34375 0.25,0.59375 0.59375,0.59375 0.328125,0 0.609375,-0.203125 0.609375,-0.625 0,-0.953125 -1.015625,-1.640625 -2.171875,-1.640625 C 1.84375,-6.390625 0.5,-4.90625 0.5,-3.09375 c 0,1.828125 1.375,3.234375 3,3.234375 1.890625,0 2.328125,-1.71875 2.328125,-1.84375 0,-0.140625 -0.109375,-0.140625 -0.140625,-0.140625 -0.140625,0 -0.15625,0.046875 -0.1875,0.21875 -0.328125,1.015625 -1.09375,1.453125 -1.875,1.453125 -0.875,0 -2.03125,-0.765625 -2.03125,-2.9375 0,-2.390625 1.21875,-2.96875 1.9375,-2.96875 0.546875,0 1.328125,0.21875 1.65625,0.765625 z m 0,0"
             id="path66" />
        </g>
        <g
           id="use38"
           transform="translate(36.872604,9.9630003)">
          <path
             d="M 2.40625,-5.765625 H 4.4375 V -6.1875 H 2.40625 V -8.828125 H 2.09375 C 2.078125,-7.46875 1.5625,-6.09375 0.265625,-6.046875 v 0.28125 h 1.21875 v 3.984375 c 0,1.59375 1.046875,1.921875 1.8125,1.921875 0.90625,0 1.375,-0.890625 1.375,-1.921875 v -0.8125 h -0.3125 v 0.78125 c 0,1.03125 -0.421875,1.640625 -0.96875,1.640625 C 2.40625,-0.171875 2.40625,-1.5 2.40625,-1.75 Z m 0,0"
             id="path70" />
        </g>
        <g
           id="use40"
           transform="translate(42.335636,9.9630003)">
          <path
             d="m 6.578125,-3.0625 c 0,-1.859375 -1.40625,-3.328125 -3.0625,-3.328125 -1.71875,0 -3.078125,1.515625 -3.078125,3.328125 0,1.828125 1.421875,3.203125 3.0625,3.203125 1.6875,0 3.078125,-1.40625 3.078125,-3.203125 z m -3.0625,2.890625 c -0.53125,0 -1.171875,-0.234375 -1.59375,-0.9375 C 1.53125,-1.75 1.515625,-2.59375 1.515625,-3.203125 c 0,-0.546875 0,-1.421875 0.453125,-2.0625 C 2.359375,-5.875 3,-6.109375 3.5,-6.109375 c 0.5625,0 1.15625,0.25 1.546875,0.8125 C 5.5,-4.640625 5.5,-3.734375 5.5,-3.203125 c 0,0.5 0,1.390625 -0.375,2.0625 -0.40625,0.703125 -1.0625,0.96875 -1.609375,0.96875 z m 0,0"
             id="path74" />
        </g>
        <g
           id="use42"
           transform="translate(49.359535,9.9630003)">
          <path
             d="m 2.390625,-3.34375 c 0,-1.390625 0.578125,-2.6875 1.6875,-2.6875 0.109375,0 0.140625,0 0.203125,0 C 4.15625,-5.96875 3.9375,-5.875 3.9375,-5.5 c 0,0.421875 0.328125,0.578125 0.546875,0.578125 0.296875,0 0.578125,-0.1875 0.578125,-0.578125 0,-0.421875 -0.390625,-0.828125 -1,-0.828125 -1.21875,0 -1.640625,1.328125 -1.71875,1.59375 H 2.328125 v -1.59375 L 0.40625,-6.171875 V -5.75 c 0.96875,0 1.078125,0.09375 1.078125,0.796875 V -1.0625 c 0,0.640625 -0.15625,0.640625 -1.078125,0.640625 V 0 c 0.390625,-0.03125 1.1875,-0.03125 1.609375,-0.03125 0.390625,0 1.40625,0 1.75,0.03125 V -0.421875 H 3.46875 c -1.046875,0 -1.078125,-0.15625 -1.078125,-0.671875 z m 0,0"
             id="path78" />
        </g>
      </g>
    </g>
    <g
       inkscape:label=""
       transform="translate(62.653681,297.78352)"
       id="g1308">
      <g
         clip-path="url(#clipPath5572)"
         id="g1283"
         transform="matrix(0.352778,0,0,0.352778,-0.176389,-0.0297217)">
        <g
           fill="#000000"
           fill-opacity="1"
           id="g42">
          <g
             id="g1280"
             transform="translate(0,9.8030005)">
            <path
               d="M 9.359375,-9.71875 H 0.765625 L 0.5,-6.53125 h 0.3125 c 0.203125,-2.265625 0.328125,-2.78125 2.59375,-2.78125 0.265625,0 0.671875,0 0.78125,0.03125 0.28125,0.046875 0.296875,0.21875 0.296875,0.546875 v 7.625 c 0,0.5 0,0.6875 -1.40625,0.6875 H 2.5625 V 0 c 0.46875,-0.03125 1.9375,-0.03125 2.5,-0.03125 0.5625,0 2.046875,0 2.515625,0.03125 V -0.421875 H 7.0625 c -1.40625,0 -1.40625,-0.1875 -1.40625,-0.6875 v -7.625 c 0,-0.359375 0.03125,-0.484375 0.25,-0.546875 0.125,-0.03125 0.53125,-0.03125 0.8125,-0.03125 2.265625,0 2.390625,0.515625 2.59375,2.78125 H 9.625 Z m 0,0"
               id="path1278" />
          </g>
        </g>
      </g>
      <g
         clip-path="url(#clipPath2639)"
         id="g68"
         transform="matrix(0.352778,0,0,0.352778,-0.176389,-0.0297217)">
        <g
           fill="#000000"
           fill-opacity="1"
           id="g66">
          <g
             id="use46"
             transform="translate(8.969244,9.8030005)">
            <path
               d="m 2.390625,-3.34375 c 0,-1.390625 0.578125,-2.6875 1.6875,-2.6875 0.109375,0 0.140625,0 0.203125,0 C 4.15625,-5.96875 3.9375,-5.875 3.9375,-5.5 c 0,0.421875 0.328125,0.578125 0.546875,0.578125 0.296875,0 0.578125,-0.1875 0.578125,-0.578125 0,-0.421875 -0.390625,-0.828125 -1,-0.828125 -1.21875,0 -1.640625,1.328125 -1.71875,1.59375 H 2.328125 v -1.59375 L 0.40625,-6.171875 V -5.75 c 0.96875,0 1.078125,0.09375 1.078125,0.796875 V -1.0625 c 0,0.640625 -0.15625,0.640625 -1.078125,0.640625 V 0 c 0.390625,-0.03125 1.1875,-0.03125 1.609375,-0.03125 0.390625,0 1.40625,0 1.75,0.03125 V -0.421875 H 3.46875 c -1.046875,0 -1.078125,-0.15625 -1.078125,-0.671875 z m 0,0"
               id="path1285" />
          </g>
          <g
             id="use48"
             transform="translate(14.432277,9.8030005)">
            <path
               d="m 5.53125,-3.828125 c 0,-0.78125 0,-1.34375 -0.625,-1.90625 -0.5,-0.46875 -1.140625,-0.65625 -1.78125,-0.65625 -1.171875,0 -2.078125,0.765625 -2.078125,1.703125 0,0.40625 0.265625,0.609375 0.609375,0.609375 C 2,-4.078125 2.234375,-4.3125 2.234375,-4.65625 2.234375,-5.25 1.71875,-5.25 1.5,-5.25 c 0.34375,-0.609375 1.03125,-0.859375 1.59375,-0.859375 0.671875,0 1.515625,0.546875 1.515625,1.828125 v 0.578125 C 1.71875,-3.65625 0.625,-2.453125 0.625,-1.34375 c 0,1.125 1.328125,1.484375 2.203125,1.484375 0.9375,0 1.59375,-0.578125 1.859375,-1.265625 0.0625,0.6875 0.5,1.203125 1.125,1.203125 0.296875,0 1.125,-0.203125 1.125,-1.359375 V -2.078125 H 6.625 v 0.796875 c 0,0.828125 -0.34375,0.9375 -0.546875,0.9375 -0.546875,0 -0.546875,-0.765625 -0.546875,-0.96875 z m -0.921875,1.8125 c 0,1.40625 -1.046875,1.875 -1.671875,1.875 -0.703125,0 -1.28125,-0.515625 -1.28125,-1.203125 0,-1.890625 2.4375,-2.0625 2.953125,-2.09375 z m 0,0"
               id="path82" />
          </g>
          <g
             id="use50"
             transform="translate(21.456177,9.8030005)">
            <path
               d="m 6.390625,-3.484375 c 0,-1.328125 0,-1.734375 -0.34375,-2.203125 -0.40625,-0.546875 -1.078125,-0.640625 -1.578125,-0.640625 -1.390625,0 -1.9375,1.1875 -2.046875,1.484375 H 2.40625 v -1.484375 l -1.953125,0.15625 V -5.75 c 0.984375,0 1.09375,0.09375 1.09375,0.796875 V -1.0625 c 0,0.640625 -0.15625,0.640625 -1.09375,0.640625 V 0 c 0.375,-0.03125 1.15625,-0.03125 1.5625,-0.03125 0.40625,0 1.1875,0 1.5625,0.03125 v -0.421875 c -0.921875,0 -1.09375,0 -1.09375,-0.640625 v -2.671875 c 0,-1.5 0.984375,-2.296875 1.875,-2.296875 0.890625,0 1.09375,0.71875 1.09375,1.59375 v 3.375 c 0,0.640625 -0.15625,0.640625 -1.09375,0.640625 V 0 c 0.375,-0.03125 1.15625,-0.03125 1.546875,-0.03125 0.421875,0 1.1875,0 1.5625,0.03125 v -0.421875 c -0.71875,0 -1.078125,0 -1.078125,-0.421875 z m 0,0"
               id="path86" />
          </g>
          <g
             id="use52"
             transform="translate(29.260509,9.8030005)">
            <path
               d="m 4.703125,-6.0625 c 0,-0.265625 0,-0.328125 -0.140625,-0.328125 -0.109375,0 -0.390625,0.3125 -0.484375,0.4375 C 3.625,-6.3125 3.1875,-6.390625 2.71875,-6.390625 c -1.734375,0 -2.25,0.9375 -2.25,1.734375 0,0.15625 0,0.65625 0.546875,1.15625 0.46875,0.40625 0.953125,0.5 1.609375,0.625 0.78125,0.15625 0.96875,0.203125 1.328125,0.5 0.265625,0.203125 0.453125,0.53125 0.453125,0.921875 0,0.625 -0.359375,1.3125 -1.625,1.3125 -0.9375,0 -1.640625,-0.546875 -1.953125,-1.984375 -0.046875,-0.25 -0.046875,-0.265625 -0.0625,-0.28125 -0.03125,-0.0625 -0.09375,-0.0625 -0.140625,-0.0625 -0.15625,0 -0.15625,0.078125 -0.15625,0.328125 V -0.1875 c 0,0.265625 0,0.328125 0.140625,0.328125 0.078125,0 0.09375,-0.015625 0.34375,-0.3125 0.0625,-0.09375 0.0625,-0.125 0.28125,-0.359375 0.546875,0.671875 1.3125,0.671875 1.5625,0.671875 1.5,0 2.25,-0.828125 2.25,-1.96875 0,-0.765625 -0.46875,-1.234375 -0.59375,-1.359375 C 3.9375,-3.625 3.546875,-3.71875 2.59375,-3.890625 2.171875,-3.96875 1.125,-4.171875 1.125,-5.03125 c 0,-0.453125 0.296875,-1.109375 1.59375,-1.109375 1.5625,0 1.640625,1.328125 1.671875,1.78125 C 4.40625,-4.25 4.5,-4.25 4.546875,-4.25 c 0.15625,0 0.15625,-0.0625 0.15625,-0.328125 z m 0,0"
               id="path90" />
          </g>
          <g
             id="use54"
             transform="translate(34.80101,9.8030005)">
            <path
               d="m 10.28125,-3.484375 c 0,-1.328125 0,-1.734375 -0.328125,-2.203125 C 9.53125,-6.234375 8.859375,-6.328125 8.375,-6.328125 c -1.1875,0 -1.796875,0.859375 -2.015625,1.421875 C 6.15625,-6.015625 5.375,-6.328125 4.46875,-6.328125 c -1.390625,0 -1.9375,1.1875 -2.046875,1.484375 H 2.40625 v -1.484375 l -1.953125,0.15625 V -5.75 c 0.984375,0 1.09375,0.09375 1.09375,0.796875 V -1.0625 c 0,0.640625 -0.15625,0.640625 -1.09375,0.640625 V 0 c 0.375,-0.03125 1.15625,-0.03125 1.5625,-0.03125 0.40625,0 1.1875,0 1.5625,0.03125 v -0.421875 c -0.921875,0 -1.09375,0 -1.09375,-0.640625 v -2.671875 c 0,-1.5 0.984375,-2.296875 1.875,-2.296875 0.890625,0 1.09375,0.71875 1.09375,1.59375 v 3.375 c 0,0.640625 -0.15625,0.640625 -1.09375,0.640625 V 0 c 0.375,-0.03125 1.15625,-0.03125 1.546875,-0.03125 0.421875,0 1.1875,0 1.5625,0.03125 v -0.421875 c -0.90625,0 -1.078125,0 -1.078125,-0.640625 v -2.671875 c 0,-1.5 0.984375,-2.296875 1.875,-2.296875 0.890625,0 1.09375,0.71875 1.09375,1.59375 v 3.375 c 0,0.640625 -0.171875,0.640625 -1.09375,0.640625 V 0 c 0.375,-0.03125 1.140625,-0.03125 1.546875,-0.03125 0.421875,0 1.1875,0 1.5625,0.03125 v -0.421875 c -0.71875,0 -1.078125,0 -1.09375,-0.421875 z m 0,0"
               id="path94" />
          </g>
          <g
             id="use56"
             transform="translate(46.507511,9.8030005)">
            <path
               d="m 2.5,-8.828125 c 0,-0.375 -0.3125,-0.703125 -0.703125,-0.703125 -0.375,0 -0.6875,0.296875 -0.6875,0.6875 0,0.421875 0.34375,0.703125 0.6875,0.703125 0.4375,0 0.703125,-0.375 0.703125,-0.6875 z m -1.984375,2.65625 V -5.75 c 0.921875,0 1.046875,0.078125 1.046875,0.78125 v 3.90625 c 0,0.640625 -0.15625,0.640625 -1.09375,0.640625 V 0 C 0.875,-0.03125 1.5625,-0.03125 1.984375,-0.03125 c 0.15625,0 0.984375,0 1.46875,0.03125 v -0.421875 c -0.921875,0 -0.984375,-0.0625 -0.984375,-0.625 v -5.28125 z m 0,0"
               id="path98" />
          </g>
          <g
             id="use58"
             transform="translate(50.409679,9.8030005)">
            <path
               d="M 2.40625,-5.765625 H 4.4375 V -6.1875 H 2.40625 V -8.828125 H 2.09375 C 2.078125,-7.46875 1.5625,-6.09375 0.265625,-6.046875 v 0.28125 h 1.21875 v 3.984375 c 0,1.59375 1.046875,1.921875 1.8125,1.921875 0.90625,0 1.375,-0.890625 1.375,-1.921875 v -0.8125 h -0.3125 v 0.78125 c 0,1.03125 -0.421875,1.640625 -0.96875,1.640625 C 2.40625,-0.171875 2.40625,-1.5 2.40625,-1.75 Z m 0,0"
               id="path102" />
          </g>
          <g
             id="use60"
             transform="translate(55.872711,9.8030005)">
            <path
               d="M 2.40625,-5.765625 H 4.4375 V -6.1875 H 2.40625 V -8.828125 H 2.09375 C 2.078125,-7.46875 1.5625,-6.09375 0.265625,-6.046875 v 0.28125 h 1.21875 v 3.984375 c 0,1.59375 1.046875,1.921875 1.8125,1.921875 0.90625,0 1.375,-0.890625 1.375,-1.921875 v -0.8125 h -0.3125 v 0.78125 c 0,1.03125 -0.421875,1.640625 -0.96875,1.640625 C 2.40625,-0.171875 2.40625,-1.5 2.40625,-1.75 Z m 0,0"
               id="path106" />
          </g>
          <g
             id="use62"
             transform="translate(61.335743,9.8030005)">
            <path
               d="m 5.5,-3.328125 c 0.3125,0 0.34375,0 0.34375,-0.265625 0,-1.453125 -0.78125,-2.796875 -2.515625,-2.796875 -1.640625,0 -2.890625,1.46875 -2.890625,3.25 0,1.890625 1.453125,3.28125 3.046875,3.28125 1.703125,0 2.359375,-1.546875 2.359375,-1.84375 0,-0.09375 -0.078125,-0.140625 -0.15625,-0.140625 -0.125,0 -0.15625,0.0625 -0.171875,0.140625 -0.375,1.203125 -1.34375,1.53125 -1.9375,1.53125 -0.609375,0 -2.0625,-0.40625 -2.0625,-2.890625 V -3.328125 Z M 1.53125,-3.59375 c 0.125,-2.265625 1.375,-2.515625 1.78125,-2.515625 1.53125,0 1.625,2.015625 1.640625,2.515625 z m 0,0"
               id="path110" />
          </g>
          <g
             id="use64"
             transform="translate(67.579208,9.8030005)">
            <path
               d="m 2.390625,-3.34375 c 0,-1.390625 0.578125,-2.6875 1.6875,-2.6875 0.109375,0 0.140625,0 0.203125,0 C 4.15625,-5.96875 3.9375,-5.875 3.9375,-5.5 c 0,0.421875 0.328125,0.578125 0.546875,0.578125 0.296875,0 0.578125,-0.1875 0.578125,-0.578125 0,-0.421875 -0.390625,-0.828125 -1,-0.828125 -1.21875,0 -1.640625,1.328125 -1.71875,1.59375 H 2.328125 v -1.59375 L 0.40625,-6.171875 V -5.75 c 0.96875,0 1.078125,0.09375 1.078125,0.796875 V -1.0625 c 0,0.640625 -0.15625,0.640625 -1.078125,0.640625 V 0 c 0.390625,-0.03125 1.1875,-0.03125 1.609375,-0.03125 0.390625,0 1.40625,0 1.75,0.03125 V -0.421875 H 3.46875 c -1.046875,0 -1.078125,-0.15625 -1.078125,-0.671875 z m 0,0"
               id="path114" />
          </g>
        </g>
      </g>
    </g>
    <g
       inkscape:label=""
       transform="translate(118.36091,297.2771)"
       id="g1568">
      <g
         clip-path="url(#clipPath1495)"
         id="g45"
         transform="matrix(0.352778,0,0,0.352778,-0.214974,-0.00216092)">
        <g
           fill="#000000"
           fill-opacity="1"
           id="g43">
          <g
             id="use31"
             transform="translate(0,9.8030005)">
            <path
               d="m 6.046875,-4.875 c 1.421875,-0.328125 2.53125,-1.234375 2.53125,-2.34375 0,-1.390625 -1.625,-2.578125 -3.6875,-2.578125 H 0.609375 V -9.375 h 0.28125 c 1.03125,0 1.078125,0.140625 1.078125,0.671875 v 7.609375 c 0,0.53125 -0.046875,0.671875 -1.078125,0.671875 H 0.609375 V 0 c 0.328125,-0.03125 1.5,-0.03125 1.921875,-0.03125 0.40625,0 1.59375,0 1.921875,0.03125 v -0.421875 h -0.28125 c -1.03125,0 -1.078125,-0.140625 -1.078125,-0.671875 v -3.671875 h 1.671875 c 0.5625,0 1.09375,0.15625 1.46875,0.5625 0.5,0.546875 0.5,0.84375 0.5,1.84375 0,1.125 0,1.5 0.625,2.109375 0.21875,0.21875 0.8125,0.546875 1.625,0.546875 1.109375,0 1.296875,-1.25 1.296875,-1.546875 0,-0.078125 0,-0.21875 -0.15625,-0.21875 -0.140625,0 -0.140625,0.09375 -0.15625,0.234375 -0.078125,0.859375 -0.484375,1.25 -0.953125,1.25 -0.65625,0 -0.796875,-0.671875 -0.90625,-1.4375 C 8.09375,-1.515625 8,-2.140625 7.953125,-2.5 7.859375,-3.21875 7.796875,-3.671875 7.375,-4.109375 7.21875,-4.28125 6.84375,-4.65625 6.046875,-4.875 Z M 4.703125,-5.046875 H 3.09375 V -8.8125 c 0,-0.328125 0,-0.5 0.3125,-0.546875 C 3.53125,-9.375 3.953125,-9.375 4.25,-9.375 c 1.15625,0 3,0 3,2.15625 0,1.25 -0.6875,2.171875 -2.546875,2.171875 z m 0,0"
               id="path59" />
          </g>
          <g
             id="use33"
             transform="translate(10.337872,9.8030005)">
            <path
               d="m 5.5,-3.328125 c 0.3125,0 0.34375,0 0.34375,-0.265625 0,-1.453125 -0.78125,-2.796875 -2.515625,-2.796875 -1.640625,0 -2.890625,1.46875 -2.890625,3.25 0,1.890625 1.453125,3.28125 3.046875,3.28125 1.703125,0 2.359375,-1.546875 2.359375,-1.84375 0,-0.09375 -0.078125,-0.140625 -0.15625,-0.140625 -0.125,0 -0.15625,0.0625 -0.171875,0.140625 -0.375,1.203125 -1.34375,1.53125 -1.9375,1.53125 -0.609375,0 -2.0625,-0.40625 -2.0625,-2.890625 V -3.328125 Z M 1.53125,-3.59375 c 0.125,-2.265625 1.375,-2.515625 1.78125,-2.515625 1.53125,0 1.625,2.015625 1.640625,2.515625 z m 0,0"
               id="path63" />
          </g>
          <g
             id="use35"
             transform="translate(16.581339,9.8030005)">
            <path
               d="m 5.1875,-5.3125 c -0.171875,0 -0.703125,0 -0.703125,0.59375 0,0.34375 0.25,0.59375 0.59375,0.59375 0.328125,0 0.609375,-0.203125 0.609375,-0.625 0,-0.953125 -1.015625,-1.640625 -2.171875,-1.640625 C 1.84375,-6.390625 0.5,-4.90625 0.5,-3.09375 c 0,1.828125 1.375,3.234375 3,3.234375 1.890625,0 2.328125,-1.71875 2.328125,-1.84375 0,-0.140625 -0.109375,-0.140625 -0.140625,-0.140625 -0.140625,0 -0.15625,0.046875 -0.1875,0.21875 -0.328125,1.015625 -1.09375,1.453125 -1.875,1.453125 -0.875,0 -2.03125,-0.765625 -2.03125,-2.9375 0,-2.390625 1.21875,-2.96875 1.9375,-2.96875 0.546875,0 1.328125,0.21875 1.65625,0.765625 z m 0,0"
               id="path67" />
          </g>
          <g
             id="use37"
             transform="translate(22.824804,9.8030005)">
            <path
               d="m 2.5,-8.828125 c 0,-0.375 -0.3125,-0.703125 -0.703125,-0.703125 -0.375,0 -0.6875,0.296875 -0.6875,0.6875 0,0.421875 0.34375,0.703125 0.6875,0.703125 0.4375,0 0.703125,-0.375 0.703125,-0.6875 z m -1.984375,2.65625 V -5.75 c 0.921875,0 1.046875,0.078125 1.046875,0.78125 v 3.90625 c 0,0.640625 -0.15625,0.640625 -1.09375,0.640625 V 0 C 0.875,-0.03125 1.5625,-0.03125 1.984375,-0.03125 c 0.15625,0 0.984375,0 1.46875,0.03125 v -0.421875 c -0.921875,0 -0.984375,-0.0625 -0.984375,-0.625 v -5.28125 z m 0,0"
               id="path71" />
          </g>
          <g
             id="use39"
             transform="translate(26.726971,9.8030005)">
            <path
               d="m 5.5,-3.328125 c 0.3125,0 0.34375,0 0.34375,-0.265625 0,-1.453125 -0.78125,-2.796875 -2.515625,-2.796875 -1.640625,0 -2.890625,1.46875 -2.890625,3.25 0,1.890625 1.453125,3.28125 3.046875,3.28125 1.703125,0 2.359375,-1.546875 2.359375,-1.84375 0,-0.09375 -0.078125,-0.140625 -0.15625,-0.140625 -0.125,0 -0.15625,0.0625 -0.171875,0.140625 -0.375,1.203125 -1.34375,1.53125 -1.9375,1.53125 -0.609375,0 -2.0625,-0.40625 -2.0625,-2.890625 V -3.328125 Z M 1.53125,-3.59375 c 0.125,-2.265625 1.375,-2.515625 1.78125,-2.515625 1.53125,0 1.625,2.015625 1.640625,2.515625 z m 0,0"
               id="path75" />
          </g>
          <g
             id="use41"
             transform="translate(32.970436,9.8030005)">
            <path
               d="m 5.859375,-4.8125 c 0.125,-0.328125 0.359375,-0.9375 1.28125,-0.953125 V -6.1875 c -0.40625,0.03125 -0.609375,0.03125 -1.0625,0.03125 -0.296875,0 -0.515625,0 -1.171875,-0.03125 v 0.421875 c 0.609375,0.03125 0.671875,0.453125 0.671875,0.609375 0,0.140625 -0.03125,0.203125 -0.09375,0.375 L 4.015625,-1.078125 2.40625,-5.125 c -0.0625,-0.203125 -0.078125,-0.203125 -0.078125,-0.265625 0,-0.375 0.546875,-0.375 0.796875,-0.375 V -6.1875 c -0.359375,0.03125 -1.109375,0.03125 -1.484375,0.03125 -0.484375,0 -0.5,0 -1.375,-0.03125 v 0.421875 c 0.796875,0 0.9375,0.0625 1.109375,0.5 L 3.421875,-0.125 C 3.5,0.078125 3.53125,0.140625 3.703125,0.140625 c 0.09375,0 0.1875,-0.03125 0.28125,-0.265625 z m 0,0"
               id="path79" />
          </g>
        </g>
      </g>
      <g
         clip-path="url(#clipPath2397)"
         id="g53"
         transform="matrix(0.352778,0,0,0.352778,-0.214974,-0.00216092)">
        <g
           fill="#000000"
           fill-opacity="1"
           id="g51">
          <g
             id="use47"
             transform="translate(39.997208,9.8030005)">
            <path
               d="m 5.5,-3.328125 c 0.3125,0 0.34375,0 0.34375,-0.265625 0,-1.453125 -0.78125,-2.796875 -2.515625,-2.796875 -1.640625,0 -2.890625,1.46875 -2.890625,3.25 0,1.890625 1.453125,3.28125 3.046875,3.28125 1.703125,0 2.359375,-1.546875 2.359375,-1.84375 0,-0.09375 -0.078125,-0.140625 -0.15625,-0.140625 -0.125,0 -0.15625,0.0625 -0.171875,0.140625 -0.375,1.203125 -1.34375,1.53125 -1.9375,1.53125 -0.609375,0 -2.0625,-0.40625 -2.0625,-2.890625 V -3.328125 Z M 1.53125,-3.59375 c 0.125,-2.265625 1.375,-2.515625 1.78125,-2.515625 1.53125,0 1.625,2.015625 1.640625,2.515625 z m 0,0"
               id="path83" />
          </g>
          <g
             id="use49"
             transform="translate(46.240673,9.8030005)">
            <path
               d="m 2.390625,-3.34375 c 0,-1.390625 0.578125,-2.6875 1.6875,-2.6875 0.109375,0 0.140625,0 0.203125,0 C 4.15625,-5.96875 3.9375,-5.875 3.9375,-5.5 c 0,0.421875 0.328125,0.578125 0.546875,0.578125 0.296875,0 0.578125,-0.1875 0.578125,-0.578125 0,-0.421875 -0.390625,-0.828125 -1,-0.828125 -1.21875,0 -1.640625,1.328125 -1.71875,1.59375 H 2.328125 v -1.59375 L 0.40625,-6.171875 V -5.75 c 0.96875,0 1.078125,0.09375 1.078125,0.796875 V -1.0625 c 0,0.640625 -0.15625,0.640625 -1.078125,0.640625 V 0 c 0.390625,-0.03125 1.1875,-0.03125 1.609375,-0.03125 0.390625,0 1.40625,0 1.75,0.03125 V -0.421875 H 3.46875 c -1.046875,0 -1.078125,-0.15625 -1.078125,-0.671875 z m 0,0"
               id="path87" />
          </g>
        </g>
      </g>
    </g>
  </g>
</svg>
