<?xml version="1.0" encoding="UTF-8" standalone="no"?>
<!-- Created with Inkscape (http://www.inkscape.org/) -->

<svg
   width="240mm"
   height="120mm"
   viewBox="0 0 240 120"
   version="1.1"
   id="svg8"
   inkscape:version="1.2.1 (9c6d41e, 2022-07-14)"
   sodipodi:docname="normcom.svg"
   xmlns:inkscape="http://www.inkscape.org/namespaces/inkscape"
   xmlns:sodipodi="http://sodipodi.sourceforge.net/DTD/sodipodi-0.dtd"
   xmlns="http://www.w3.org/2000/svg"
   xmlns:svg="http://www.w3.org/2000/svg"
   xmlns:rdf="http://www.w3.org/1999/02/22-rdf-syntax-ns#"
   xmlns:cc="http://creativecommons.org/ns#"
   xmlns:dc="http://purl.org/dc/elements/1.1/">
  <defs
     id="defs2">
    <clipPath
       id="clipPath3950">
      <path
         clip-rule="nonzero"
         d="M 0,0 H 6.503906 V 8.300781 H 0 Z m 0,0"
         id="path1562" />
    </clipPath>
    <clipPath
       id="clipPath9801">
      <path
         clip-rule="nonzero"
         d="M 0,0 H 10 V 8.167969 H 0 Z m 0,0"
         id="path9669" />
    </clipPath>
    <clipPath
       id="clipPath718">
      <path
         clip-rule="nonzero"
         d="m 10,2 h 5 v 6.167969 h -5 z m 0,0"
         id="path7594" />
    </clipPath>
    <clipPath
       id="clipPath1144">
      <path
         clip-rule="nonzero"
         d="m 9,4 h 4 v 6.09375 H 9 Z m 0,0"
         id="path519" />
    </clipPath>
    <clipPath
       id="clipPath7109">
      <path
         clip-rule="nonzero"
         d="m 13,6 h 5 v 4.09375 h -5 z m 0,0"
         id="path6585" />
    </clipPath>
    <clipPath
       id="clipPath9650">
      <path
         clip-rule="nonzero"
         d="m 25,4 h 5 v 6.09375 h -5 z m 0,0"
         id="path1327" />
    </clipPath>
    <clipPath
       id="clipPath8189">
      <path
         clip-rule="nonzero"
         d="m 9,4 h 4 v 6.09375 H 9 Z m 0,0"
         id="path91" />
    </clipPath>
    <clipPath
       id="clipPath6086">
      <path
         clip-rule="nonzero"
         d="m 13,6 h 5 v 4.09375 h -5 z m 0,0"
         id="path4791" />
    </clipPath>
    <clipPath
       id="clipPath4348">
      <path
         clip-rule="nonzero"
         d="m 26,4 h 4 v 6.09375 h -4 z m 0,0"
         id="path3326" />
    </clipPath>
    <marker
       style="overflow:visible"
       id="marker2769"
       refX="0"
       refY="0"
       orient="auto-start-reverse"
       inkscape:stockid="TriangleStart"
       markerWidth="9.3240004"
       markerHeight="10.779191"
       viewBox="0 0 5.3244081 6.1553851"
       inkscape:isstock="true"
       inkscape:collect="always"
       preserveAspectRatio="xMidYMid">
      <path
         transform="scale(0.5)"
         style="fill:context-stroke;fill-rule:evenodd;stroke:context-stroke;stroke-width:1pt"
         d="M 5.77,0 -2.88,5 V -5 Z"
         id="path2767" />
    </marker>
    <marker
       style="overflow:visible"
       id="TriangleStart"
       refX="0"
       refY="0"
       orient="auto-start-reverse"
       inkscape:stockid="TriangleStart"
       markerWidth="10.324"
       markerHeight="11.93526"
       viewBox="0 0 5.3244081 6.1553851"
       inkscape:isstock="true"
       inkscape:collect="always"
       preserveAspectRatio="xMidYMid">
      <path
         transform="scale(0.5)"
         style="fill:context-stroke;fill-rule:evenodd;stroke:context-stroke;stroke-width:1pt"
         d="M 5.77,0 -2.88,5 V -5 Z"
         id="path135" />
    </marker>
  </defs>
  <sodipodi:namedview
     id="base"
     pagecolor="#ffffff"
     bordercolor="#666666"
     borderopacity="1.0"
     inkscape:pageopacity="0.0"
     inkscape:pageshadow="2"
     inkscape:zoom="0.69095412"
     inkscape:cx="296.69119"
     inkscape:cy="151.96378"
     inkscape:document-units="mm"
     inkscape:current-layer="layer1"
     showgrid="false"
     showborder="true"
     width="200mm"
     showguides="true"
     inkscape:guide-bbox="true"
     inkscape:window-width="1309"
     inkscape:window-height="456"
     inkscape:window-x="0"
     inkscape:window-y="25"
     inkscape:window-maximized="0"
     inkscape:showpageshadow="2"
     inkscape:pagecheckerboard="0"
     inkscape:deskcolor="#d1d1d1">
    <inkscape:grid
       type="xygrid"
       id="grid815"
       units="mm"
       spacingx="10"
       spacingy="10"
       empspacing="4"
       dotted="false" />
  </sodipodi:namedview>
  <metadata
     id="metadata5">
    <rdf:RDF>
      <cc:Work
         rdf:about="">
        <dc:format>image/svg+xml</dc:format>
        <dc:type
           rdf:resource="http://purl.org/dc/dcmitype/StillImage" />
        <dc:title />
      </cc:Work>
    </rdf:RDF>
  </metadata>
  <g
     inkscape:label="Layer 1"
     inkscape:groupmode="layer"
     id="layer1"
     transform="translate(0,-177)">
    <path
       style="fill:#000000;fill-opacity:0;stroke:#1a1a1a;stroke-width:0.174441"
       id="path1756"
       sodipodi:type="arc"
       sodipodi:cx="63.667152"
       sodipodi:cy="210.43575"
       sodipodi:rx="17.106556"
       sodipodi:ry="6.1957121"
       sodipodi:start="4.7252087"
       sodipodi:end="4.7238908"
       sodipodi:arc-type="slice"
       d="m 63.886448,204.24054 a 17.106556,6.1957121 0 0 1 16.885926,6.27259 17.106556,6.1957121 0 0 1 -17.313245,6.11787 17.106556,6.1957121 0 0 1 -16.897335,-6.26856 17.106556,6.1957121 0 0 1 17.302111,-6.122 l -0.196753,6.19531 z" />
    <path
       id="rect1758"
       style="fill:#000000;fill-opacity:0;stroke:#1a1a1a;stroke-width:0.174441"
       d="m 32.81415,201.4077 v 1.7379 c 0.06595,-0.0147 0.131172,-0.0307 0.196966,-0.0464 0.436678,-0.10458 0.833363,-0.15228 1.181206,-0.15574 1.846437,-0.0183 2.315876,1.20826 0.0792,1.76901 1.433359,0.63009 0.720892,1.64357 -1.457374,1.44722 v 1.85909 c 0.556061,0.0681 1.113192,0.13304 1.672732,0.19355 2.972705,0.32148 2.412342,2.06167 -0.560346,1.74014 -0.371446,-0.0402 -0.742235,-0.0816 -1.112386,-0.12463 v 2.51282 c 0.499443,0.24084 0.945319,0.52284 1.37046,0.81016 0.511135,0.3276 0.858524,0.71441 1.10141,1.12954 0.113905,0.26223 0.202734,0.52552 0.308502,0.78885 0.105954,0.24801 0.174428,0.49998 0.215654,0.75412 0.05764,0.32169 0.04843,0.64169 -0.03293,0.96143 -0.06449,0.34809 -0.26814,0.66701 -0.565685,0.96933 -0.378158,0.3338 -0.908819,0.56993 -1.511362,0.75275 -0.206406,0.0465 -0.38908,0.11527 -0.619376,0.21229 -0.08853,0.0374 -0.177754,0.0741 -0.266677,0.11105 v 0.93685 c 0.169274,0.0517 0.455496,0.14649 0.670992,0.22347 0.369285,0.14082 0.714368,0.30121 1.069967,0.45312 2.409562,1.02936 0.653789,2.4367 -1.740959,1.45461 v 0.75189 h 4.548325 c 0.08505,-0.2582 0.182766,-0.51506 0.282694,-0.7708 0.120668,-0.39862 0.366641,-0.72724 0.869145,-1.00818 1.487541,0.22378 2.088698,0.22966 2.34135,0.4141 0.529576,-0.01 1.024851,0.14374 1.444619,0.33881 0.736271,0.34216 1.055766,0.71223 1.075603,1.02607 h 9.015963 c 0.01364,-0.0172 0.02636,-0.0327 0.04004,-0.0502 0.124433,-0.13889 0.103475,-0.41991 0.373465,-0.41668 0.02088,2.5e-4 0.03753,6.7e-4 0.05814,10e-4 0.0073,-0.0527 0.01447,-0.10637 0.0703,-0.0887 0.108994,0.0345 0.206573,0.0636 0.307612,0.0944 2.021722,0.0326 2.573994,0.11305 2.579846,0.41135 0.54025,-0.15583 1.074295,-0.31944 1.613701,-0.47547 1.303416,-0.35991 2.441191,-0.67795 3.849745,-0.1829 0.48694,0.17114 0.80221,0.43354 1.07976,0.70737 h 5.86569 c 0.0902,-0.0257 0.18022,-0.0516 0.27053,-0.0772 0.50791,-0.14363 1.79853,-0.50942 2.38436,-0.62914 0.31539,-0.0645 0.64581,-0.10053 0.96881,-0.15076 0.29585,-0.006 0.59642,-0.0483 0.88754,-0.0172 0.23106,0.0247 0.43625,0.0599 0.61878,0.10417 0.4744,-0.28277 0.95005,-0.56487 1.43335,-0.84282 0.58493,-0.22115 0.93984,-0.42116 1.62497,-0.42768 0.0979,-0.001 0.20265,0.002 0.31563,0.01 0.39987,0.0264 0.74388,0.17785 1.11594,0.26679 2.79554,0.66823 -4.75926,1.1277 -1.78279,1.43724 0.44109,0.0459 0.5423,0.0946 0.74278,0.049 0.045,-0.0259 0.0893,-0.0522 0.13438,-0.078 0.0594,-0.009 0.22917,-0.0467 0.17828,-0.0268 -0.13854,0.0541 -0.2331,0.0867 -0.31266,0.10486 -0.15975,0.0923 -0.31855,0.18498 -0.47699,0.27796 h 9.80354 c 0.26205,-0.204 0.53458,-0.40369 0.7668,-0.61987 0.24768,-0.24238 0.46689,-0.49056 0.67248,-0.74604 0.47928,-0.59558 1.1642,-0.85621 1.76528,-0.86568 1.00179,-0.0158 1.7708,0.66616 0.96703,1.65745 -0.15779,0.1946 -0.3236,0.38589 -0.50043,0.57414 h 5.62869 v -0.95404 c -0.055,-0.0469 -0.11328,-0.0965 -0.17799,-0.15351 -0.89729,-0.76664 -2.06737,-1.40604 -3.01294,-2.15045 -0.36081,-0.47512 -0.63546,-0.63122 0.0258,-1.25349 0.19882,-0.18715 0.64551,-0.23075 0.96822,-0.3462 0.28145,-0.10069 0.48258,-0.14619 0.62086,-0.14852 1.12604,-0.019 -1.92033,2.81434 0.20172,1.85324 0.6012,-0.2723 1.35967,-0.54939 0.7312,-1.084 0.20324,0.16135 0.42012,0.31667 0.64311,0.46929 v -2.33456 c -0.58794,-0.14854 -1.11501,-0.56442 -1.22185,-1.24764 -0.13578,-0.86841 -0.25901,-1.73989 -0.34498,-2.61201 -0.0442,-0.72483 -0.15323,-1.44751 -0.26757,-2.16953 -0.10847,-0.68499 0.29481,-1.12518 0.84096,-1.30265 -0.0954,-0.13128 -0.17265,-0.28205 -0.22514,-0.45364 -0.21256,-0.69478 -0.67763,-1.35592 -1.09756,-2.01534 -0.45305,-0.71505 -1.01634,-1.40454 -1.55793,-2.09803 -0.25881,-0.35099 -0.13425,-0.1692 -0.37079,-0.54595 -0.61391,-0.97776 0.16333,-1.5881 1.10497,-1.57631 0.64423,0.008 1.36549,0.30745 1.77092,0.97948 0.16138,0.26752 0.0699,0.12959 0.27794,0.41307 0.36715,0.4702 0.74276,0.93891 1.09103,1.41404 v -3.92565 h -7.03236 c 0.0575,0.61271 -1.03633,0.92434 -2.74448,0.35892 -0.30568,-0.10118 -0.54667,-0.26146 -0.85668,-0.35892 h -0.0134 c 0.003,0.007 0.0135,0.0205 0.005,0.0205 0.49663,0.0549 -0.29067,0.16426 -0.45711,0.20679 -0.43131,0.10503 -0.18375,0.0499 -0.74842,0.15746 -1.34895,0.25701 -2.2747,0.004 -2.57599,-0.38471 z" />
    <path
       style="fill:none;fill-rule:evenodd;stroke:#000000;stroke-width:0.115616px;stroke-linecap:butt;stroke-linejoin:miter;stroke-opacity:1"
       d="m 32.50878,222.47312 v 23.01265"
       id="path1760"
       inkscape:connector-type="polyline"
       inkscape:connector-curvature="0" />
    <path
       style="fill:none;fill-rule:evenodd;stroke:#000000;stroke-width:0.115616px;stroke-linecap:butt;stroke-linejoin:miter;stroke-opacity:1"
       d="m 95.741942,223.00418 v 23.18967"
       id="path1762"
       inkscape:connector-type="polyline"
       inkscape:connector-curvature="0" />
    <path
       style="fill:none;fill-rule:evenodd;stroke:#000000;stroke-width:0.115616px;stroke-linecap:butt;stroke-linejoin:miter;stroke-dasharray:2.77478, 2.77478;stroke-dashoffset:0;stroke-opacity:1"
       d="m 45.949645,210.9668 -0.305473,21.24244"
       id="path1766"
       inkscape:connector-type="polyline"
       inkscape:connector-curvature="0" />
    <path
       style="display:inline;fill:none;fill-rule:evenodd;stroke:#000000;stroke-width:0.115616px;stroke-linecap:butt;stroke-linejoin:miter;stroke-dasharray:2.77478, 2.77478;stroke-dashoffset:0;stroke-opacity:1"
       d="m 80.162762,210.78978 -0.30548,21.24244"
       id="path1768"
       inkscape:connector-type="polyline"
       inkscape:connector-curvature="0" />
    <path
       style="fill:#000000;fill-opacity:0;stroke:#1a1a1a;stroke-width:0.174441;stroke-dasharray:none;stroke-dashoffset:0"
       d="m 80.162762,230.33165 c 1.21127,-1.40384 -4.83798,4.54723 -14.01674,5.95303 -5.93896,0.9096 -13.188089,-0.0837 -20.628383,-6.20337 22.200703,-11.28661 34.645123,0.25034 34.645123,0.25034 z"
       id="path1828"
       sodipodi:nodetypes="cscc" />
    <path
       style="display:inline;fill:none;fill-rule:evenodd;stroke:#000000;stroke-width:0.115616px;stroke-linecap:butt;stroke-linejoin:miter;stroke-opacity:1;marker-end:url(#TriangleStart)"
       d="m 63.787276,204.24029 0.185346,-9.55937"
       id="path1830"
       inkscape:connector-type="polyline"
       inkscape:connector-curvature="0"
       inkscape:connection-start="#path1756" />
    <path
       style="display:inline;fill:none;fill-rule:evenodd;stroke:#000000;stroke-width:0.115616px;stroke-linecap:butt;stroke-linejoin:miter;stroke-opacity:1;marker-end:url(#marker2769)"
       d="m 62.139782,235.21859 -0.61095,17.87905"
       id="path2765"
       inkscape:connector-type="polyline"
       inkscape:connector-curvature="0" />
    <g
       inkscape:label=""
       transform="matrix(1.0460325,0,0,0.96570795,69.219512,192.86889)"
       id="g3897">
      <g
         fill="#000000"
         fill-opacity="1"
         id="g36"
         transform="matrix(0.352778,0,0,0.352778,-0.192925,-0.001808)">
        <g
           id="use34"
           transform="translate(0,8.302)">
          <path
             d="m 8.3125,-2.765625 c 0,-0.046875 0.046875,-0.125 0.046875,-0.171875 0,-0.0625 -0.046875,-0.125 -0.125,-0.125 C 8.1875,-3.0625 8.15625,-3.046875 8.125,-3.015625 8.109375,-3 8.109375,-2.96875 8,-2.734375 7.296875,-1.0625 6.78125,-0.34375 4.859375,-0.34375 H 3.125 c -0.171875,0 -0.203125,0 -0.265625,-0.015625 C 2.71875,-0.375 2.71875,-0.390625 2.71875,-0.484375 c 0,-0.09375 0.015625,-0.15625 0.046875,-0.265625 l 0.8125,-3.296875 h 1.1875 c 0.9375,0 1,0.203125 1,0.5625 0,0.109375 0,0.21875 -0.078125,0.578125 -0.015625,0.046875 -0.03125,0.09375 -0.03125,0.140625 0,0.078125 0.0625,0.109375 0.125,0.109375 0.109375,0 0.125,-0.078125 0.171875,-0.25 l 0.6875,-2.765625 c 0,-0.0625 -0.046875,-0.125 -0.125,-0.125 -0.109375,0 -0.125,0.046875 -0.171875,0.21875 C 6.109375,-4.65625 5.875,-4.40625 4.8125,-4.40625 H 3.671875 L 4.40625,-7.34375 C 4.515625,-7.75 4.546875,-7.796875 5.03125,-7.796875 h 1.703125 c 1.484375,0 1.78125,0.390625 1.78125,1.3125 0,0 0,0.34375 -0.046875,0.734375 -0.015625,0.046875 -0.03125,0.125 -0.03125,0.140625 0,0.09375 0.0625,0.140625 0.140625,0.140625 0.078125,0 0.125,-0.046875 0.140625,-0.265625 l 0.265625,-2.09375 C 8.984375,-7.859375 9,-7.984375 9,-8.015625 c 0,-0.125 -0.109375,-0.125 -0.328125,-0.125 H 2.84375 c -0.21875,0 -0.34375,0 -0.34375,0.21875 0,0.125 0.078125,0.125 0.28125,0.125 0.75,0 0.75,0.09375 0.75,0.21875 0,0.0625 -0.015625,0.109375 -0.046875,0.234375 l -1.625,6.453125 C 1.75,-0.46875 1.734375,-0.34375 0.890625,-0.34375 c -0.21875,0 -0.34375,0 -0.34375,0.21875 C 0.546875,0 0.625,0 0.859375,0 h 6 C 7.125,0 7.140625,-0.015625 7.21875,-0.203125 Z m 0,0"
             id="path68" />
        </g>
      </g>
      <g
         clip-path="url(#clipPath8189)"
         id="g42"
         transform="matrix(0.352778,0,0,0.352778,-0.192925,-0.001808)">
        <g
           fill="#000000"
           fill-opacity="1"
           id="g40">
          <g
             id="use38"
             transform="translate(8.665,10.095)">
            <path
               d="m 2.5,-5.078125 c 0,-0.21875 -0.015625,-0.21875 -0.234375,-0.21875 -0.328125,0.3125 -0.75,0.5 -1.5,0.5 v 0.265625 c 0.21875,0 0.640625,0 1.109375,-0.203125 v 4.078125 c 0,0.296875 -0.03125,0.390625 -0.78125,0.390625 H 0.8125 V 0 c 0.328125,-0.03125 1.015625,-0.03125 1.375,-0.03125 0.359375,0 1.046875,0 1.375,0.03125 V -0.265625 H 3.28125 c -0.75,0 -0.78125,-0.09375 -0.78125,-0.390625 z m 0,0"
               id="path72" />
          </g>
        </g>
      </g>
      <g
         clip-path="url(#clipPath6086)"
         id="g48"
         transform="matrix(0.352778,0,0,0.352778,-0.192925,-0.001808)">
        <g
           fill="#000000"
           fill-opacity="1"
           id="g46">
          <g
             id="use44"
             transform="translate(12.9,10.095)">
            <path
               d="m 1.59375,-1.3125 c 0.03125,-0.109375 0.109375,-0.421875 0.125,-0.53125 0.109375,-0.4375 0.109375,-0.4375 0.296875,-0.703125 0.265625,-0.390625 0.640625,-0.75 1.171875,-0.75 0.28125,0 0.453125,0.171875 0.453125,0.546875 0,0.4375 -0.328125,1.34375 -0.484375,1.734375 -0.109375,0.265625 -0.109375,0.3125 -0.109375,0.421875 0,0.453125 0.375,0.671875 0.71875,0.671875 0.78125,0 1.109375,-1.109375 1.109375,-1.21875 C 4.875,-1.21875 4.8125,-1.25 4.75,-1.25 c -0.09375,0 -0.109375,0.0625 -0.125,0.140625 -0.1875,0.65625 -0.53125,0.96875 -0.828125,0.96875 -0.125,0 -0.1875,-0.078125 -0.1875,-0.265625 0,-0.1875 0.0625,-0.359375 0.140625,-0.5625 0.109375,-0.296875 0.46875,-1.21875 0.46875,-1.65625 0,-0.609375 -0.421875,-0.890625 -0.984375,-0.890625 -0.65625,0 -1.0625,0.390625 -1.296875,0.6875 -0.0625,-0.4375 -0.40625,-0.6875 -0.8125,-0.6875 -0.28125,0 -0.484375,0.1875 -0.609375,0.4375 -0.203125,0.375 -0.28125,0.765625 -0.28125,0.78125 0,0.078125 0.0625,0.109375 0.125,0.109375 0.109375,0 0.109375,-0.03125 0.171875,-0.25 0.09375,-0.390625 0.234375,-0.859375 0.5625,-0.859375 0.21875,0 0.265625,0.203125 0.265625,0.375 0,0.15625 -0.046875,0.296875 -0.109375,0.5625 -0.015625,0.0625 -0.140625,0.53125 -0.171875,0.640625 L 0.78125,-0.515625 c -0.03125,0.125 -0.078125,0.3125 -0.078125,0.34375 0,0.1875 0.15625,0.25 0.265625,0.25 0.140625,0 0.265625,-0.09375 0.3125,-0.1875 C 1.3125,-0.15625 1.375,-0.4375 1.40625,-0.59375 Z m 0,0"
               id="path76" />
          </g>
        </g>
      </g>
      <g
         fill="#000000"
         fill-opacity="1"
         id="g52"
         transform="matrix(0.352778,0,0,0.352778,-0.192925,-0.001808)">
        <g
           id="use50"
           transform="translate(21.469,8.302)">
          <path
             d="m 2.921875,-8.296875 -1.5625,1.625 0.1875,0.1875 1.375,-1.234375 1.375,1.234375 0.1875,-0.1875 z m 0,0"
             id="path80" />
        </g>
      </g>
      <g
         fill="#000000"
         fill-opacity="1"
         id="g56"
         transform="matrix(0.352778,0,0,0.352778,-0.192925,-0.001808)">
        <g
           id="use54"
           transform="translate(18.535999,8.302)">
          <path
             d="M 2.46875,-3.5 C 2.484375,-3.578125 2.78125,-4.171875 3.234375,-4.546875 3.53125,-4.84375 3.9375,-5.03125 4.40625,-5.03125 c 0.484375,0 0.65625,0.359375 0.65625,0.828125 0,0.6875 -0.5,2.046875 -0.734375,2.703125 -0.109375,0.28125 -0.171875,0.4375 -0.171875,0.65625 0,0.53125 0.375,0.96875 0.953125,0.96875 1.109375,0 1.53125,-1.765625 1.53125,-1.828125 0,-0.0625 -0.046875,-0.109375 -0.125,-0.109375 -0.109375,0 -0.125,0.03125 -0.1875,0.234375 C 6.0625,-0.59375 5.609375,-0.125 5.140625,-0.125 c -0.125,0 -0.3125,0 -0.3125,-0.390625 0,-0.296875 0.125,-0.65625 0.203125,-0.828125 C 5.265625,-2 5.765625,-3.328125 5.765625,-4.015625 c 0,-0.71875 -0.40625,-1.25 -1.3125,-1.25 -1.078125,0 -1.625,0.75 -1.84375,1.046875 -0.046875,-0.6875 -0.53125,-1.046875 -1.0625,-1.046875 -0.375,0 -0.640625,0.21875 -0.84375,0.625 -0.21875,0.4375 -0.375,1.15625 -0.375,1.203125 0,0.046875 0.046875,0.109375 0.125,0.109375 0.09375,0 0.109375,-0.015625 0.1875,-0.296875 0.1875,-0.71875 0.40625,-1.40625 0.875,-1.40625 0.28125,0 0.375,0.1875 0.375,0.546875 0,0.265625 -0.125,0.734375 -0.203125,1.109375 l -0.34375,1.28125 c -0.046875,0.234375 -0.171875,0.765625 -0.234375,0.984375 -0.078125,0.3125 -0.21875,0.875 -0.21875,0.9375 0,0.15625 0.140625,0.296875 0.3125,0.296875 0.140625,0 0.3125,-0.078125 0.40625,-0.25 C 1.640625,-0.1875 1.75,-0.609375 1.8125,-0.84375 l 0.25,-1.078125 z m 0,0"
             id="path84" />
        </g>
      </g>
      <g
         clip-path="url(#clipPath4348)"
         id="g62"
         transform="matrix(0.352778,0,0,0.352778,-0.192925,-0.001808)">
        <g
           fill="#000000"
           fill-opacity="1"
           id="g60">
          <g
             id="use58"
             transform="translate(25.523001,10.095)">
            <path
               d="m 2.5,-5.078125 c 0,-0.21875 -0.015625,-0.21875 -0.234375,-0.21875 -0.328125,0.3125 -0.75,0.5 -1.5,0.5 v 0.265625 c 0.21875,0 0.640625,0 1.109375,-0.203125 v 4.078125 c 0,0.296875 -0.03125,0.390625 -0.78125,0.390625 H 0.8125 V 0 c 0.328125,-0.03125 1.015625,-0.03125 1.375,-0.03125 0.359375,0 1.046875,0 1.375,0.03125 V -0.265625 H 3.28125 c -0.75,0 -0.78125,-0.09375 -0.78125,-0.390625 z m 0,0"
               id="path88" />
          </g>
        </g>
      </g>
    </g>
    <g
       inkscape:label=""
       transform="matrix(1.2124282,0,0,1.3174098,55.827327,253.82779)"
       id="g4092">
      <g
         fill="#000000"
         fill-opacity="1"
         id="g4054"
         transform="matrix(0.352778,0,0,0.352778,-0.192925,-0.001808)">
        <g
           id="g4052"
           transform="translate(0,8.302)">
          <path
             d="m 8.3125,-2.765625 c 0,-0.046875 0.046875,-0.125 0.046875,-0.171875 0,-0.0625 -0.046875,-0.125 -0.125,-0.125 C 8.1875,-3.0625 8.15625,-3.046875 8.125,-3.015625 8.109375,-3 8.109375,-2.96875 8,-2.734375 7.296875,-1.0625 6.78125,-0.34375 4.859375,-0.34375 H 3.125 c -0.171875,0 -0.203125,0 -0.265625,-0.015625 C 2.71875,-0.375 2.71875,-0.390625 2.71875,-0.484375 c 0,-0.09375 0.015625,-0.15625 0.046875,-0.265625 l 0.8125,-3.296875 h 1.1875 c 0.9375,0 1,0.203125 1,0.5625 0,0.109375 0,0.21875 -0.078125,0.578125 -0.015625,0.046875 -0.03125,0.09375 -0.03125,0.140625 0,0.078125 0.0625,0.109375 0.125,0.109375 0.109375,0 0.125,-0.078125 0.171875,-0.25 l 0.6875,-2.765625 c 0,-0.0625 -0.046875,-0.125 -0.125,-0.125 -0.109375,0 -0.125,0.046875 -0.171875,0.21875 C 6.109375,-4.65625 5.875,-4.40625 4.8125,-4.40625 H 3.671875 L 4.40625,-7.34375 C 4.515625,-7.75 4.546875,-7.796875 5.03125,-7.796875 h 1.703125 c 1.484375,0 1.78125,0.390625 1.78125,1.3125 0,0 0,0.34375 -0.046875,0.734375 -0.015625,0.046875 -0.03125,0.125 -0.03125,0.140625 0,0.09375 0.0625,0.140625 0.140625,0.140625 0.078125,0 0.125,-0.046875 0.140625,-0.265625 l 0.265625,-2.09375 C 8.984375,-7.859375 9,-7.984375 9,-8.015625 c 0,-0.125 -0.109375,-0.125 -0.328125,-0.125 H 2.84375 c -0.21875,0 -0.34375,0 -0.34375,0.21875 0,0.125 0.078125,0.125 0.28125,0.125 0.75,0 0.75,0.09375 0.75,0.21875 0,0.0625 -0.015625,0.109375 -0.046875,0.234375 l -1.625,6.453125 C 1.75,-0.46875 1.734375,-0.34375 0.890625,-0.34375 c -0.21875,0 -0.34375,0 -0.34375,0.21875 C 0.546875,0 0.625,0 0.859375,0 h 6 C 7.125,0 7.140625,-0.015625 7.21875,-0.203125 Z m 0,0"
             id="path4050" />
        </g>
      </g>
      <g
         clip-path="url(#clipPath1144)"
         id="g4062"
         transform="matrix(0.352778,0,0,0.352778,-0.192925,-0.001808)">
        <g
           fill="#000000"
           fill-opacity="1"
           id="g4060">
          <g
             id="g4058"
             transform="translate(8.665,10.095)">
            <path
               d="m 2.25,-1.625 c 0.125,-0.125 0.453125,-0.390625 0.59375,-0.5 0.484375,-0.453125 0.953125,-0.890625 0.953125,-1.609375 0,-0.953125 -0.796875,-1.5625 -1.78125,-1.5625 -0.96875,0 -1.59375,0.71875 -1.59375,1.4375 0,0.390625 0.3125,0.4375 0.421875,0.4375 0.171875,0 0.421875,-0.109375 0.421875,-0.421875 0,-0.40625 -0.40625,-0.40625 -0.5,-0.40625 C 1,-4.84375 1.53125,-5.03125 1.921875,-5.03125 c 0.734375,0 1.125,0.625 1.125,1.296875 0,0.828125 -0.578125,1.4375 -1.53125,2.390625 l -1,1.046875 C 0.421875,-0.21875 0.421875,-0.203125 0.421875,0 H 3.5625 l 0.234375,-1.421875 h -0.25 C 3.53125,-1.265625 3.46875,-0.875 3.375,-0.71875 c -0.046875,0.0625 -0.65625,0.0625 -0.78125,0.0625 H 1.171875 Z m 0,0"
               id="path4056" />
          </g>
        </g>
      </g>
      <g
         clip-path="url(#clipPath7109)"
         id="g4070"
         transform="matrix(0.352778,0,0,0.352778,-0.192925,-0.001808)">
        <g
           fill="#000000"
           fill-opacity="1"
           id="g4068">
          <g
             id="g4066"
             transform="translate(12.9,10.095)">
            <path
               d="m 1.59375,-1.3125 c 0.03125,-0.109375 0.109375,-0.421875 0.125,-0.53125 0.109375,-0.4375 0.109375,-0.4375 0.296875,-0.703125 0.265625,-0.390625 0.640625,-0.75 1.171875,-0.75 0.28125,0 0.453125,0.171875 0.453125,0.546875 0,0.4375 -0.328125,1.34375 -0.484375,1.734375 -0.109375,0.265625 -0.109375,0.3125 -0.109375,0.421875 0,0.453125 0.375,0.671875 0.71875,0.671875 0.78125,0 1.109375,-1.109375 1.109375,-1.21875 C 4.875,-1.21875 4.8125,-1.25 4.75,-1.25 c -0.09375,0 -0.109375,0.0625 -0.125,0.140625 -0.1875,0.65625 -0.53125,0.96875 -0.828125,0.96875 -0.125,0 -0.1875,-0.078125 -0.1875,-0.265625 0,-0.1875 0.0625,-0.359375 0.140625,-0.5625 0.109375,-0.296875 0.46875,-1.21875 0.46875,-1.65625 0,-0.609375 -0.421875,-0.890625 -0.984375,-0.890625 -0.65625,0 -1.0625,0.390625 -1.296875,0.6875 -0.0625,-0.4375 -0.40625,-0.6875 -0.8125,-0.6875 -0.28125,0 -0.484375,0.1875 -0.609375,0.4375 -0.203125,0.375 -0.28125,0.765625 -0.28125,0.78125 0,0.078125 0.0625,0.109375 0.125,0.109375 0.109375,0 0.109375,-0.03125 0.171875,-0.25 0.09375,-0.390625 0.234375,-0.859375 0.5625,-0.859375 0.21875,0 0.265625,0.203125 0.265625,0.375 0,0.15625 -0.046875,0.296875 -0.109375,0.5625 -0.015625,0.0625 -0.140625,0.53125 -0.171875,0.640625 L 0.78125,-0.515625 c -0.03125,0.125 -0.078125,0.3125 -0.078125,0.34375 0,0.1875 0.15625,0.25 0.265625,0.25 0.140625,0 0.265625,-0.09375 0.3125,-0.1875 C 1.3125,-0.15625 1.375,-0.4375 1.40625,-0.59375 Z m 0,0"
               id="path4064" />
          </g>
        </g>
      </g>
      <g
         fill="#000000"
         fill-opacity="1"
         id="g4076"
         transform="matrix(0.352778,0,0,0.352778,-0.192925,-0.001808)">
        <g
           id="g4074"
           transform="translate(21.469,8.302)">
          <path
             d="m 2.921875,-8.296875 -1.5625,1.625 0.1875,0.1875 1.375,-1.234375 1.375,1.234375 0.1875,-0.1875 z m 0,0"
             id="path4072" />
        </g>
      </g>
      <g
         fill="#000000"
         fill-opacity="1"
         id="g4082"
         transform="matrix(0.352778,0,0,0.352778,-0.192925,-0.001808)">
        <g
           id="g4080"
           transform="translate(18.535999,8.302)">
          <path
             d="M 2.46875,-3.5 C 2.484375,-3.578125 2.78125,-4.171875 3.234375,-4.546875 3.53125,-4.84375 3.9375,-5.03125 4.40625,-5.03125 c 0.484375,0 0.65625,0.359375 0.65625,0.828125 0,0.6875 -0.5,2.046875 -0.734375,2.703125 -0.109375,0.28125 -0.171875,0.4375 -0.171875,0.65625 0,0.53125 0.375,0.96875 0.953125,0.96875 1.109375,0 1.53125,-1.765625 1.53125,-1.828125 0,-0.0625 -0.046875,-0.109375 -0.125,-0.109375 -0.109375,0 -0.125,0.03125 -0.1875,0.234375 C 6.0625,-0.59375 5.609375,-0.125 5.140625,-0.125 c -0.125,0 -0.3125,0 -0.3125,-0.390625 0,-0.296875 0.125,-0.65625 0.203125,-0.828125 C 5.265625,-2 5.765625,-3.328125 5.765625,-4.015625 c 0,-0.71875 -0.40625,-1.25 -1.3125,-1.25 -1.078125,0 -1.625,0.75 -1.84375,1.046875 -0.046875,-0.6875 -0.53125,-1.046875 -1.0625,-1.046875 -0.375,0 -0.640625,0.21875 -0.84375,0.625 -0.21875,0.4375 -0.375,1.15625 -0.375,1.203125 0,0.046875 0.046875,0.109375 0.125,0.109375 0.09375,0 0.109375,-0.015625 0.1875,-0.296875 0.1875,-0.71875 0.40625,-1.40625 0.875,-1.40625 0.28125,0 0.375,0.1875 0.375,0.546875 0,0.265625 -0.125,0.734375 -0.203125,1.109375 l -0.34375,1.28125 c -0.046875,0.234375 -0.171875,0.765625 -0.234375,0.984375 -0.078125,0.3125 -0.21875,0.875 -0.21875,0.9375 0,0.15625 0.140625,0.296875 0.3125,0.296875 0.140625,0 0.3125,-0.078125 0.40625,-0.25 C 1.640625,-0.1875 1.75,-0.609375 1.8125,-0.84375 l 0.25,-1.078125 z m 0,0"
             id="path4078" />
        </g>
      </g>
      <g
         clip-path="url(#clipPath9650)"
         id="g4090"
         transform="matrix(0.352778,0,0,0.352778,-0.192925,-0.001808)">
        <g
           fill="#000000"
           fill-opacity="1"
           id="g4088">
          <g
             id="g4086"
             transform="translate(25.523001,10.095)">
            <path
               d="m 2.25,-1.625 c 0.125,-0.125 0.453125,-0.390625 0.59375,-0.5 0.484375,-0.453125 0.953125,-0.890625 0.953125,-1.609375 0,-0.953125 -0.796875,-1.5625 -1.78125,-1.5625 -0.96875,0 -1.59375,0.71875 -1.59375,1.4375 0,0.390625 0.3125,0.4375 0.421875,0.4375 0.171875,0 0.421875,-0.109375 0.421875,-0.421875 0,-0.40625 -0.40625,-0.40625 -0.5,-0.40625 C 1,-4.84375 1.53125,-5.03125 1.921875,-5.03125 c 0.734375,0 1.125,0.625 1.125,1.296875 0,0.828125 -0.578125,1.4375 -1.53125,2.390625 l -1,1.046875 C 0.421875,-0.21875 0.421875,-0.203125 0.421875,0 H 3.5625 l 0.234375,-1.421875 h -0.25 C 3.53125,-1.265625 3.46875,-0.875 3.375,-0.71875 c -0.046875,0.0625 -0.65625,0.0625 -0.78125,0.0625 H 1.171875 Z m 0,0"
               id="path4084" />
          </g>
        </g>
      </g>
    </g>
    <g
       inkscape:label=""
       transform="matrix(1.5695778,0,0,1.2448904,69.003502,207.39747)"
       id="g4297">
      <g
         clip-path="url(#clipPath9801)"
         id="g24"
         transform="matrix(0.352778,0,0,0.352778,-0.192925,0.127794)">
        <g
           fill="#000000"
           fill-opacity="1"
           id="g22">
          <g
             id="use20"
             transform="translate(0,8.1689997)">
            <path
               d="M 5.15625,-8.3125 C 5.0625,-8.484375 5.046875,-8.53125 4.875,-8.53125 c -0.171875,0 -0.203125,0.046875 -0.28125,0.21875 l -4,8.078125 C 0.578125,-0.203125 0.546875,-0.125 0.546875,-0.078125 0.546875,-0.015625 0.5625,0 0.796875,0 H 8.9375 c 0.25,0 0.25,-0.015625 0.25,-0.078125 0,-0.046875 -0.015625,-0.125 -0.046875,-0.15625 z M 4.5,-7.4375 7.765625,-0.828125 H 1.25 Z m 0,0"
               id="path36" />
          </g>
        </g>
      </g>
      <g
         clip-path="url(#clipPath718)"
         id="g30"
         transform="matrix(0.352778,0,0,0.352778,-0.192925,0.127794)">
        <g
           fill="#000000"
           fill-opacity="1"
           id="g28">
          <g
             id="use26"
             transform="translate(9.7550001,8.1689997)">
            <path
               d="m 2.71875,-2.390625 c 0.203125,0.03125 0.53125,0.109375 0.609375,0.125 0.15625,0.046875 0.6875,0.234375 0.6875,0.8125 0,0.359375 -0.328125,1.328125 -1.71875,1.328125 -0.25,0 -1.15625,-0.03125 -1.390625,-0.6875 C 1.390625,-0.75 1.625,-1.125 1.625,-1.390625 c 0,-0.25 -0.171875,-0.375 -0.40625,-0.375 -0.265625,0 -0.609375,0.203125 -0.609375,0.734375 0,0.703125 0.71875,1.15625 1.671875,1.15625 1.8125,0 2.359375,-1.34375 2.359375,-1.96875 0,-0.171875 0,-0.515625 -0.390625,-0.890625 C 3.953125,-3.03125 3.671875,-3.078125 3.03125,-3.21875 2.703125,-3.28125 2.1875,-3.390625 2.1875,-3.9375 c 0,-0.234375 0.21875,-1.09375 1.34375,-1.09375 0.515625,0 1,0.1875 1.125,0.625 -0.53125,0 -0.5625,0.453125 -0.5625,0.46875 0,0.25 0.234375,0.3125 0.34375,0.3125 0.171875,0 0.5,-0.125 0.5,-0.625 0,-0.5 -0.453125,-1.015625 -1.390625,-1.015625 -1.5625,0 -1.984375,1.21875 -1.984375,1.71875 0,0.90625 0.890625,1.09375 1.15625,1.15625 z m 0,0"
               id="path40" />
          </g>
        </g>
      </g>
    </g>
    <g
       inkscape:label=""
       transform="matrix(2.1414919,0,0,2.1718252,81.088442,218.03165)"
       id="g4507">
      <g
         clip-path="url(#clipPath3950)"
         id="g17"
         transform="matrix(0.352778,0,0,0.352778,-0.132292,-0.001808)">
        <g
           fill="#000000"
           fill-opacity="1"
           id="g15">
          <g
             id="use13"
             transform="translate(0,8.302)">
            <path
               d="m 5.3125,-2.90625 c 0,-1.109375 0,-1.4375 -0.265625,-1.828125 -0.34375,-0.46875 -0.90625,-0.53125 -1.3125,-0.53125 C 2.703125,-5.265625 2.21875,-4.5 2.0625,-4.125 H 2.046875 V -8.296875 L 0.375,-8.15625 v 0.34375 c 0.8125,0 0.921875,0.078125 0.921875,0.671875 v 6.25 c 0,0.546875 -0.140625,0.546875 -0.921875,0.546875 V 0 c 0.3125,-0.03125 0.96875,-0.03125 1.296875,-0.03125 0.34375,0 1,0 1.296875,0.03125 v -0.34375 c -0.75,0 -0.90625,0 -0.90625,-0.546875 v -2.21875 c 0,-1.25 0.828125,-1.921875 1.578125,-1.921875 0.734375,0 0.90625,0.609375 0.90625,1.34375 v 2.796875 c 0,0.546875 -0.140625,0.546875 -0.90625,0.546875 V 0 c 0.296875,-0.03125 0.953125,-0.03125 1.28125,-0.03125 0.34375,0 1,0 1.3125,0.03125 v -0.34375 c -0.609375,0 -0.90625,0 -0.921875,-0.359375 z m 0,0"
               id="path23" />
          </g>
        </g>
      </g>
    </g>
  </g>
</svg>
