<?xml version="1.0" encoding="UTF-8" standalone="no"?>
<!-- Created with Inkscape (http://www.inkscape.org/) -->

<svg
   width="208.11212mm"
   height="85.914467mm"
   viewBox="0 0 208.11212 85.914461"
   version="1.1"
   id="svg8"
   inkscape:version="1.2.1 (9c6d41e, 2022-07-14)"
   sodipodi:docname="distenergy.svg"
   xmlns:inkscape="http://www.inkscape.org/namespaces/inkscape"
   xmlns:sodipodi="http://sodipodi.sourceforge.net/DTD/sodipodi-0.dtd"
   xmlns="http://www.w3.org/2000/svg"
   xmlns:svg="http://www.w3.org/2000/svg"
   xmlns:rdf="http://www.w3.org/1999/02/22-rdf-syntax-ns#"
   xmlns:cc="http://creativecommons.org/ns#"
   xmlns:dc="http://purl.org/dc/elements/1.1/">
  <defs
     id="defs2">
    <clipPath
       id="clipPath5155">
      <path
         clip-rule="nonzero"
         d="m 8,0 h 4 V 14.347656 H 8 Z m 0,0"
         id="path1912" />
    </clipPath>
    <clipPath
       id="clipPath6104">
      <path
         clip-rule="nonzero"
         d="m 18,0 h 5 v 14.347656 h -5 z m 0,0"
         id="path2996" />
    </clipPath>
    <clipPath
       id="clipPath8046">
      <path
         clip-rule="nonzero"
         d="m 12,0 h 4 v 14.347656 h -4 z m 0,0"
         id="path370" />
    </clipPath>
    <clipPath
       id="clipPath805">
      <path
         clip-rule="nonzero"
         d="M 30,0 H 44 V 14.347656 H 30 Z m 0,0"
         id="path8132" />
    </clipPath>
    <clipPath
       id="clipPath633">
      <path
         clip-rule="nonzero"
         d="m 99,4 h 19.78516 v 7 H 99 Z m 0,0"
         id="path983" />
    </clipPath>
    <clipPath
       id="clipPath4355">
      <path
         clip-rule="nonzero"
         d="M 0,0 H 6 V 6.675781 H 0 Z m 0,0"
         id="path2954" />
    </clipPath>
    <clipPath
       id="clipPath9987">
      <path
         clip-rule="nonzero"
         d="m 6,0 h 6 V 6.675781 H 6 Z m 0,0"
         id="path8379" />
    </clipPath>
    <clipPath
       id="clipPath8542">
      <path
         clip-rule="nonzero"
         d="M 0,0 H 5.671875 V 6.175781 H 0 Z m 0,0"
         id="path1839" />
    </clipPath>
  </defs>
  <sodipodi:namedview
     id="base"
     pagecolor="#ffffff"
     bordercolor="#666666"
     borderopacity="1.0"
     inkscape:pageopacity="0.0"
     inkscape:pageshadow="2"
     inkscape:zoom="0.42753361"
     inkscape:cx="536.79991"
     inkscape:cy="652.58028"
     inkscape:document-units="mm"
     inkscape:current-layer="layer1"
     showgrid="false"
     showborder="true"
     width="200mm"
     showguides="true"
     inkscape:guide-bbox="true"
     inkscape:window-width="1440"
     inkscape:window-height="872"
     inkscape:window-x="0"
     inkscape:window-y="28"
     inkscape:window-maximized="0"
     inkscape:showpageshadow="2"
     inkscape:pagecheckerboard="0"
     inkscape:deskcolor="#d1d1d1">
    <inkscape:grid
       type="xygrid"
       id="grid815"
       units="mm"
       spacingx="10"
       spacingy="10"
       empspacing="4"
       dotted="false"
       originx="-0.65016836"
       originy="-13.653532" />
  </sodipodi:namedview>
  <metadata
     id="metadata5">
    <rdf:RDF>
      <cc:Work
         rdf:about="">
        <dc:format>image/svg+xml</dc:format>
        <dc:type
           rdf:resource="http://purl.org/dc/dcmitype/StillImage" />
      </cc:Work>
    </rdf:RDF>
  </metadata>
  <g
     inkscape:label="Layer 1"
     inkscape:groupmode="layer"
     id="layer1"
     transform="translate(-0.65016832,-190.65353)">
    <path
       style="fill:none;fill-opacity:0.054902;stroke:#000000;stroke-width:1.1;stroke-opacity:0.991489"
       d="m 55.344708,203.60803 -0.53216,55.87687 66.520082,-0.53216 -5.32161,-5.32161 5.32161,5.32161 -4.78945,4.25729"
       id="path430" />
    <path
       style="fill:#2bda00;fill-opacity:0.054902;stroke:#000000;stroke-width:1.1;stroke-opacity:0.991489"
       d="m 49.490942,211.05828 5.853766,-6.91809 6.385927,7.45025"
       id="path432"
       sodipodi:nodetypes="ccc" />
    <path
       style="fill:none;fill-opacity:0.054902;stroke:#000000;stroke-width:1.18268;stroke-opacity:0.991489"
       d="M 71.885145,252.02057 C 89.59094,159.49288 90.586847,214.31201 101.06815,250.33792"
       id="path1199"
       sodipodi:nodetypes="cc" />
    <g
       inkscape:label=""
       transform="translate(42.140288,200.22364)"
       id="g3852">
      <g
         fill="#000000"
         fill-opacity="1"
         id="g28"
         transform="matrix(0.352778,0,0,0.352778,0.15434,-0.00317494)">
        <g
           id="use26"
           transform="translate(0,10.759)">
          <path
             d="M 0.609375,1.828125 C 0.515625,2.25 0.453125,2.359375 -0.125,2.359375 c -0.171875,0 -0.3125,0 -0.3125,0.28125 0,0.03125 0,0.140625 0.171875,0.140625 0.171875,0 0.375,-0.03125 0.5625,-0.03125 h 0.625 c 0.296875,0 1.03125,0.03125 1.328125,0.03125 0.09375,0 0.265625,0 0.265625,-0.25 0,-0.171875 -0.109375,-0.171875 -0.34375,-0.171875 C 1.5,2.359375 1.46875,2.265625 1.46875,2.15625 c 0,-0.171875 0.640625,-2.640625 0.71875,-2.96875 0.171875,0.390625 0.546875,0.953125 1.296875,0.953125 1.625,0 3.375,-2.109375 3.375,-4.21875 0,-1.3125 -0.75,-2.25 -1.828125,-2.25 -0.921875,0 -1.6875,0.890625 -1.84375,1.09375 -0.125,-0.71875 -0.671875,-1.09375 -1.25,-1.09375 -0.421875,0 -0.75,0.203125 -1.015625,0.75 C 0.65625,-5.0625 0.453125,-4.1875 0.453125,-4.125 c 0,0.046875 0.0625,0.125 0.15625,0.125 0.125,0 0.140625,-0.015625 0.21875,-0.34375 0.21875,-0.84375 0.484375,-1.6875 1.0625,-1.6875 0.328125,0 0.453125,0.21875 0.453125,0.65625 0,0.34375 -0.046875,0.484375 -0.109375,0.734375 z M 3.09375,-4.46875 C 3.203125,-4.875 3.59375,-5.296875 3.828125,-5.5 3.984375,-5.640625 4.453125,-6.03125 5,-6.03125 c 0.640625,0 0.921875,0.625 0.921875,1.375 0,0.6875 -0.40625,2.296875 -0.765625,3.046875 -0.34375,0.78125 -1.015625,1.46875 -1.671875,1.46875 -0.96875,0 -1.125,-1.234375 -1.125,-1.296875 0,-0.046875 0.015625,-0.15625 0.03125,-0.21875 z m 0,0"
             id="path50" />
        </g>
      </g>
      <g
         clip-path="url(#clipPath5155)"
         id="g34"
         transform="matrix(0.352778,0,0,0.352778,0.15434,-0.00317494)">
        <g
           fill="#000000"
           fill-opacity="1"
           id="g32">
          <g
             id="use30"
             transform="translate(7.0500002,10.759)">
            <path
               d="m 4.65625,3.484375 c 0,-0.046875 0,-0.078125 -0.234375,-0.3125 -1.4375,-1.453125 -2.234375,-3.8125 -2.234375,-6.75 0,-2.78125 0.671875,-5.171875 2.328125,-6.859375 0.140625,-0.140625 0.140625,-0.15625 0.140625,-0.203125 0,-0.09375 -0.0625,-0.109375 -0.125,-0.109375 -0.1875,0 -1.359375,1.03125 -2.0625,2.4375 -0.734375,1.4375 -1.0625,2.984375 -1.0625,4.734375 0,1.28125 0.203125,2.984375 0.953125,4.53125 0.84375,1.71875 2.015625,2.640625 2.171875,2.640625 0.0625,0 0.125,-0.015625 0.125,-0.109375 z m 0,0"
               id="path54" />
          </g>
        </g>
      </g>
      <g
         fill="#000000"
         fill-opacity="1"
         id="g38"
         transform="matrix(0.352778,0,0,0.352778,0.15434,-0.00317494)">
        <g
           id="use36"
           transform="translate(12.513,10.759)">
          <path
             d="m 4.171875,-3.25 c 0.21875,0 0.46875,0 0.46875,-0.234375 0,-0.1875 -0.15625,-0.1875 -0.40625,-0.1875 H 1.90625 c 0.359375,-1.3125 1.203125,-2.09375 2.484375,-2.09375 H 4.8125 c 0.234375,0 0.453125,0 0.453125,-0.234375 0,-0.1875 -0.15625,-0.1875 -0.421875,-0.1875 H 4.359375 c -1.765625,0 -3.703125,1.40625 -3.703125,3.65625 0,1.59375 1.078125,2.671875 2.5,2.671875 0.921875,0 1.828125,-0.578125 1.828125,-0.71875 C 4.984375,-0.65625 4.9375,-0.75 4.84375,-0.75 c -0.03125,0 -0.0625,0.015625 -0.140625,0.078125 -0.546875,0.359375 -1.078125,0.53125 -1.5,0.53125 -0.765625,0 -1.5625,-0.5 -1.5625,-1.890625 0,-0.28125 0.015625,-0.65625 0.15625,-1.21875 z m 0,0"
             id="path58" />
        </g>
      </g>
      <g
         clip-path="url(#clipPath6104)"
         id="g44"
         transform="matrix(0.352778,0,0,0.352778,0.15434,-0.00317494)">
        <g
           fill="#000000"
           fill-opacity="1"
           id="g42">
          <g
             id="use40"
             transform="translate(18.184999,10.759)">
            <path
               d="M 4.046875,-3.578125 C 4.046875,-4.65625 3.90625,-6.4375 3.09375,-8.109375 2.25,-9.828125 1.078125,-10.75 0.921875,-10.75 c -0.0625,0 -0.140625,0.01563 -0.140625,0.109375 0,0.04687 0,0.0625 0.25,0.3125 1.4375,1.453125 2.234375,3.8125 2.234375,6.75 0,2.78125 -0.671875,5.171875 -2.328125,6.859375 -0.15625,0.125 -0.15625,0.15625 -0.15625,0.203125 0,0.09375 0.078125,0.109375 0.140625,0.109375 0.1875,0 1.359375,-1.03125 2.0625,-2.4375 0.734375,-1.453125 1.0625,-3 1.0625,-4.734375 z m 0,0"
               id="path62" />
          </g>
        </g>
      </g>
    </g>
    <g
       inkscape:label=""
       transform="translate(73.565037,194.42792)"
       id="g3981">
      <g
         fill="#000000"
         fill-opacity="1"
         id="g53"
         transform="matrix(0.352778,0,0,0.352778,-0.23151,-0.00317494)">
        <g
           id="use51"
           transform="translate(0,10.759)">
          <path
             d="m 4.265625,-4.671875 h 1.375 c 1.09375,0 1.171875,0.234375 1.171875,0.65625 0,0.1875 -0.03125,0.390625 -0.09375,0.703125 -0.03125,0.0625 -0.046875,0.125 -0.046875,0.15625 0,0.09375 0.0625,0.15625 0.15625,0.15625 0.109375,0 0.125,-0.0625 0.1875,-0.28125 L 7.84375,-6.625 c 0,-0.0625 -0.046875,-0.140625 -0.140625,-0.140625 -0.125,0 -0.140625,0.046875 -0.203125,0.296875 -0.296875,1.078125 -0.59375,1.375 -1.828125,1.375 h -1.3125 l 0.9375,-3.71875 c 0.125,-0.5 0.15625,-0.546875 0.734375,-0.546875 h 1.921875 c 1.796875,0 2.0625,0.53125 2.0625,1.5625 0,0.078125 0,0.390625 -0.046875,0.765625 -0.015625,0.0625 -0.046875,0.25 -0.046875,0.296875 0,0.125 0.078125,0.171875 0.15625,0.171875 0.109375,0 0.15625,-0.0625 0.1875,-0.328125 l 0.3125,-2.5 c 0,-0.046875 0.01563,-0.1875 0.01563,-0.21875 0,-0.15625 -0.125,-0.15625 -0.375,-0.15625 h -6.8125 c -0.265625,0 -0.40625,0 -0.40625,0.25 0,0.15625 0.09375,0.15625 0.34375,0.15625 0.890625,0 0.890625,0.109375 0.890625,0.265625 0,0.078125 -0.015625,0.125 -0.0625,0.28125 l -1.9375,7.75 c -0.125,0.5 -0.15625,0.640625 -1.15625,0.640625 -0.28125,0 -0.421875,0 -0.421875,0.265625 C 0.65625,0 0.78125,0 0.875,0 1.140625,0 1.4375,-0.03125 1.703125,-0.03125 h 1.875 c 0.3125,0 0.65625,0.03125 0.96875,0.03125 0.125,0 0.296875,0 0.296875,-0.265625 0,-0.15625 -0.078125,-0.15625 -0.390625,-0.15625 -1.140625,0 -1.171875,-0.09375 -1.171875,-0.3125 0,-0.0625 0.03125,-0.1875 0.0625,-0.28125 z m 0,0"
             id="path107" />
        </g>
      </g>
      <g
         clip-path="url(#clipPath8046)"
         id="g59"
         transform="matrix(0.352778,0,0,0.352778,-0.23151,-0.00317494)">
        <g
           fill="#000000"
           fill-opacity="1"
           id="g57">
          <g
             id="use55"
             transform="translate(11.044,10.759)">
            <path
               d="m 4.65625,3.484375 c 0,-0.046875 0,-0.078125 -0.234375,-0.3125 -1.4375,-1.453125 -2.234375,-3.8125 -2.234375,-6.75 0,-2.78125 0.671875,-5.171875 2.328125,-6.859375 0.140625,-0.140625 0.140625,-0.15625 0.140625,-0.203125 0,-0.09375 -0.0625,-0.109375 -0.125,-0.109375 -0.1875,0 -1.359375,1.03125 -2.0625,2.4375 -0.734375,1.4375 -1.0625,2.984375 -1.0625,4.734375 0,1.28125 0.203125,2.984375 0.953125,4.53125 0.84375,1.71875 2.015625,2.640625 2.171875,2.640625 0.0625,0 0.125,-0.015625 0.125,-0.109375 z m 0,0"
               id="path111" />
          </g>
        </g>
      </g>
      <g
         fill="#000000"
         fill-opacity="1"
         id="g63"
         transform="matrix(0.352778,0,0,0.352778,-0.23151,-0.00317494)">
        <g
           id="use61"
           transform="translate(16.507,10.759)">
          <path
             d="m 4.171875,-3.25 c 0.21875,0 0.46875,0 0.46875,-0.234375 0,-0.1875 -0.15625,-0.1875 -0.40625,-0.1875 H 1.90625 c 0.359375,-1.3125 1.203125,-2.09375 2.484375,-2.09375 H 4.8125 c 0.234375,0 0.453125,0 0.453125,-0.234375 0,-0.1875 -0.15625,-0.1875 -0.421875,-0.1875 H 4.359375 c -1.765625,0 -3.703125,1.40625 -3.703125,3.65625 0,1.59375 1.078125,2.671875 2.5,2.671875 0.921875,0 1.828125,-0.578125 1.828125,-0.71875 C 4.984375,-0.65625 4.9375,-0.75 4.84375,-0.75 c -0.03125,0 -0.0625,0.015625 -0.140625,0.078125 -0.546875,0.359375 -1.078125,0.53125 -1.5,0.53125 -0.765625,0 -1.5625,-0.5 -1.5625,-1.890625 0,-0.28125 0.015625,-0.65625 0.15625,-1.21875 z m 0,0"
             id="path115" />
        </g>
      </g>
      <g
         fill="#000000"
         fill-opacity="1"
         id="g67"
         transform="matrix(0.352778,0,0,0.352778,-0.23151,-0.00317494)">
        <g
           id="use65"
           transform="translate(22.179001,10.759)">
          <path
             d="m 3.9375,-6.125 c 0.015625,-0.203125 0.015625,-0.546875 -0.359375,-0.546875 -0.21875,0 -0.40625,0.1875 -0.359375,0.375 v 0.1875 l 0.1875,2.21875 -1.828125,-1.328125 c -0.125,-0.078125 -0.15625,-0.109375 -0.265625,-0.109375 -0.1875,0 -0.375,0.203125 -0.375,0.40625 0,0.234375 0.140625,0.28125 0.28125,0.359375 L 3.25,-3.578125 1.28125,-2.625 c -0.234375,0.109375 -0.34375,0.171875 -0.34375,0.390625 0,0.21875 0.1875,0.390625 0.375,0.390625 0.109375,0 0.140625,0 0.5,-0.265625 l 1.59375,-1.15625 -0.203125,2.40625 c 0,0.296875 0.25,0.375 0.375,0.375 0.171875,0 0.375,-0.109375 0.375,-0.375 L 3.75,-3.265625 5.578125,-1.9375 c 0.125,0.078125 0.15625,0.09375 0.265625,0.09375 0.1875,0 0.375,-0.1875 0.375,-0.390625 0,-0.21875 -0.125,-0.296875 -0.296875,-0.375 C 5.0625,-3.046875 5.03125,-3.046875 3.90625,-3.578125 L 5.875,-4.53125 c 0.234375,-0.109375 0.34375,-0.171875 0.34375,-0.390625 0,-0.21875 -0.1875,-0.40625 -0.375,-0.40625 -0.109375,0 -0.140625,0 -0.5,0.28125 L 3.75,-3.890625 Z m 0,0"
             id="path119" />
        </g>
      </g>
      <g
         clip-path="url(#clipPath805)"
         id="g77"
         transform="matrix(0.352778,0,0,0.352778,-0.23151,-0.00317494)">
        <g
           fill="#000000"
           fill-opacity="1"
           id="g75">
          <g
             id="use69"
             transform="translate(29.351999,10.759)">
            <path
               d="M 4.046875,-3.578125 C 4.046875,-4.65625 3.90625,-6.4375 3.09375,-8.109375 2.25,-9.828125 1.078125,-10.75 0.921875,-10.75 c -0.0625,0 -0.140625,0.01563 -0.140625,0.109375 0,0.04687 0,0.0625 0.25,0.3125 1.4375,1.453125 2.234375,3.8125 2.234375,6.75 0,2.78125 -0.671875,5.171875 -2.328125,6.859375 -0.15625,0.125 -0.15625,0.15625 -0.15625,0.203125 0,0.09375 0.078125,0.109375 0.140625,0.109375 0.1875,0 1.359375,-1.03125 2.0625,-2.4375 0.734375,-1.453125 1.0625,-3 1.0625,-4.734375 z m 0,0"
               id="path123" />
          </g>
          <g
             id="use71"
             transform="translate(34.815033,10.759)">
            <path
               d="m 2.5,-8.828125 c 0,-0.375 -0.3125,-0.703125 -0.703125,-0.703125 -0.375,0 -0.6875,0.296875 -0.6875,0.6875 0,0.421875 0.34375,0.703125 0.6875,0.703125 0.4375,0 0.703125,-0.375 0.703125,-0.6875 z m -1.984375,2.65625 V -5.75 c 0.921875,0 1.046875,0.078125 1.046875,0.78125 v 3.90625 c 0,0.640625 -0.15625,0.640625 -1.09375,0.640625 V 0 C 0.875,-0.03125 1.5625,-0.03125 1.984375,-0.03125 c 0.15625,0 0.984375,0 1.46875,0.03125 v -0.421875 c -0.921875,0 -0.984375,-0.0625 -0.984375,-0.625 v -5.28125 z m 0,0"
               id="path127" />
          </g>
          <g
             id="use73"
             transform="translate(38.717197,10.759)">
            <path
               d="m 4.703125,-6.0625 c 0,-0.265625 0,-0.328125 -0.140625,-0.328125 -0.109375,0 -0.390625,0.3125 -0.484375,0.4375 C 3.625,-6.3125 3.1875,-6.390625 2.71875,-6.390625 c -1.734375,0 -2.25,0.9375 -2.25,1.734375 0,0.15625 0,0.65625 0.546875,1.15625 0.46875,0.40625 0.953125,0.5 1.609375,0.625 0.78125,0.15625 0.96875,0.203125 1.328125,0.5 0.265625,0.203125 0.453125,0.53125 0.453125,0.921875 0,0.625 -0.359375,1.3125 -1.625,1.3125 -0.9375,0 -1.640625,-0.546875 -1.953125,-1.984375 -0.046875,-0.25 -0.046875,-0.265625 -0.0625,-0.28125 -0.03125,-0.0625 -0.09375,-0.0625 -0.140625,-0.0625 -0.15625,0 -0.15625,0.078125 -0.15625,0.328125 V -0.1875 c 0,0.265625 0,0.328125 0.140625,0.328125 0.078125,0 0.09375,-0.015625 0.34375,-0.3125 0.0625,-0.09375 0.0625,-0.125 0.28125,-0.359375 0.546875,0.671875 1.3125,0.671875 1.5625,0.671875 1.5,0 2.25,-0.828125 2.25,-1.96875 0,-0.765625 -0.46875,-1.234375 -0.59375,-1.359375 C 3.9375,-3.625 3.546875,-3.71875 2.59375,-3.890625 2.171875,-3.96875 1.125,-4.171875 1.125,-5.03125 c 0,-0.453125 0.296875,-1.109375 1.59375,-1.109375 1.5625,0 1.640625,1.328125 1.671875,1.78125 C 4.40625,-4.25 4.5,-4.25 4.546875,-4.25 c 0.15625,0 0.15625,-0.0625 0.15625,-0.328125 z m 0,0"
               id="path131" />
          </g>
        </g>
      </g>
      <g
         fill="#000000"
         fill-opacity="1"
         id="g81"
         transform="matrix(0.352778,0,0,0.352778,-0.23151,-0.00317494)">
        <g
           id="use79"
           transform="translate(48.934563,10.759)">
          <path
             d="m 5.53125,-3.828125 c 0,-0.78125 0,-1.34375 -0.625,-1.90625 -0.5,-0.46875 -1.140625,-0.65625 -1.78125,-0.65625 -1.171875,0 -2.078125,0.765625 -2.078125,1.703125 0,0.40625 0.265625,0.609375 0.609375,0.609375 C 2,-4.078125 2.234375,-4.3125 2.234375,-4.65625 2.234375,-5.25 1.71875,-5.25 1.5,-5.25 c 0.34375,-0.609375 1.03125,-0.859375 1.59375,-0.859375 0.671875,0 1.515625,0.546875 1.515625,1.828125 v 0.578125 C 1.71875,-3.65625 0.625,-2.453125 0.625,-1.34375 c 0,1.125 1.328125,1.484375 2.203125,1.484375 0.9375,0 1.59375,-0.578125 1.859375,-1.265625 0.0625,0.6875 0.5,1.203125 1.125,1.203125 0.296875,0 1.125,-0.203125 1.125,-1.359375 V -2.078125 H 6.625 v 0.796875 c 0,0.828125 -0.34375,0.9375 -0.546875,0.9375 -0.546875,0 -0.546875,-0.765625 -0.546875,-0.96875 z m -0.921875,1.8125 c 0,1.40625 -1.046875,1.875 -1.671875,1.875 -0.703125,0 -1.28125,-0.515625 -1.28125,-1.203125 0,-1.890625 2.4375,-2.0625 2.953125,-2.09375 z m 0,0"
             id="path135" />
        </g>
      </g>
      <g
         fill="#000000"
         fill-opacity="1"
         id="g93"
         transform="matrix(0.352778,0,0,0.352778,-0.23151,-0.00317494)">
        <g
           id="use83"
           transform="translate(60.64967,10.759)">
          <path
             d="m 10.28125,-3.484375 c 0,-1.328125 0,-1.734375 -0.328125,-2.203125 C 9.53125,-6.234375 8.859375,-6.328125 8.375,-6.328125 c -1.1875,0 -1.796875,0.859375 -2.015625,1.421875 C 6.15625,-6.015625 5.375,-6.328125 4.46875,-6.328125 c -1.390625,0 -1.9375,1.1875 -2.046875,1.484375 H 2.40625 v -1.484375 l -1.953125,0.15625 V -5.75 c 0.984375,0 1.09375,0.09375 1.09375,0.796875 V -1.0625 c 0,0.640625 -0.15625,0.640625 -1.09375,0.640625 V 0 c 0.375,-0.03125 1.15625,-0.03125 1.5625,-0.03125 0.40625,0 1.1875,0 1.5625,0.03125 v -0.421875 c -0.921875,0 -1.09375,0 -1.09375,-0.640625 v -2.671875 c 0,-1.5 0.984375,-2.296875 1.875,-2.296875 0.890625,0 1.09375,0.71875 1.09375,1.59375 v 3.375 c 0,0.640625 -0.15625,0.640625 -1.09375,0.640625 V 0 c 0.375,-0.03125 1.15625,-0.03125 1.546875,-0.03125 0.421875,0 1.1875,0 1.5625,0.03125 v -0.421875 c -0.90625,0 -1.078125,0 -1.078125,-0.640625 v -2.671875 c 0,-1.5 0.984375,-2.296875 1.875,-2.296875 0.890625,0 1.09375,0.71875 1.09375,1.59375 v 3.375 c 0,0.640625 -0.171875,0.640625 -1.09375,0.640625 V 0 c 0.375,-0.03125 1.140625,-0.03125 1.546875,-0.03125 0.421875,0 1.1875,0 1.5625,0.03125 v -0.421875 c -0.71875,0 -1.078125,0 -1.09375,-0.421875 z m 0,0"
             id="path139" />
        </g>
        <g
           id="use85"
           transform="translate(72.356171,10.759)">
          <path
             d="m 2.5,-8.828125 c 0,-0.375 -0.3125,-0.703125 -0.703125,-0.703125 -0.375,0 -0.6875,0.296875 -0.6875,0.6875 0,0.421875 0.34375,0.703125 0.6875,0.703125 0.4375,0 0.703125,-0.375 0.703125,-0.6875 z m -1.984375,2.65625 V -5.75 c 0.921875,0 1.046875,0.078125 1.046875,0.78125 v 3.90625 c 0,0.640625 -0.15625,0.640625 -1.09375,0.640625 V 0 C 0.875,-0.03125 1.5625,-0.03125 1.984375,-0.03125 c 0.15625,0 0.984375,0 1.46875,0.03125 v -0.421875 c -0.921875,0 -0.984375,-0.0625 -0.984375,-0.625 v -5.28125 z m 0,0"
             id="path143" />
        </g>
        <g
           id="use87"
           transform="translate(76.258339,10.759)">
          <path
             d="m 6.390625,-3.484375 c 0,-1.328125 0,-1.734375 -0.34375,-2.203125 -0.40625,-0.546875 -1.078125,-0.640625 -1.578125,-0.640625 -1.390625,0 -1.9375,1.1875 -2.046875,1.484375 H 2.40625 v -1.484375 l -1.953125,0.15625 V -5.75 c 0.984375,0 1.09375,0.09375 1.09375,0.796875 V -1.0625 c 0,0.640625 -0.15625,0.640625 -1.09375,0.640625 V 0 c 0.375,-0.03125 1.15625,-0.03125 1.5625,-0.03125 0.40625,0 1.1875,0 1.5625,0.03125 v -0.421875 c -0.921875,0 -1.09375,0 -1.09375,-0.640625 v -2.671875 c 0,-1.5 0.984375,-2.296875 1.875,-2.296875 0.890625,0 1.09375,0.71875 1.09375,1.59375 v 3.375 c 0,0.640625 -0.15625,0.640625 -1.09375,0.640625 V 0 c 0.375,-0.03125 1.15625,-0.03125 1.546875,-0.03125 0.421875,0 1.1875,0 1.5625,0.03125 v -0.421875 c -0.71875,0 -1.078125,0 -1.078125,-0.421875 z m 0,0"
             id="path147" />
        </g>
        <g
           id="use89"
           transform="translate(84.062668,10.759)">
          <path
             d="m 2.5,-8.828125 c 0,-0.375 -0.3125,-0.703125 -0.703125,-0.703125 -0.375,0 -0.6875,0.296875 -0.6875,0.6875 0,0.421875 0.34375,0.703125 0.6875,0.703125 0.4375,0 0.703125,-0.375 0.703125,-0.6875 z m -1.984375,2.65625 V -5.75 c 0.921875,0 1.046875,0.078125 1.046875,0.78125 v 3.90625 c 0,0.640625 -0.15625,0.640625 -1.09375,0.640625 V 0 C 0.875,-0.03125 1.5625,-0.03125 1.984375,-0.03125 c 0.15625,0 0.984375,0 1.46875,0.03125 v -0.421875 c -0.921875,0 -0.984375,-0.0625 -0.984375,-0.625 v -5.28125 z m 0,0"
             id="path151" />
        </g>
        <g
           id="use91"
           transform="translate(87.964836,10.759)">
          <path
             d="m 10.28125,-3.484375 c 0,-1.328125 0,-1.734375 -0.328125,-2.203125 C 9.53125,-6.234375 8.859375,-6.328125 8.375,-6.328125 c -1.1875,0 -1.796875,0.859375 -2.015625,1.421875 C 6.15625,-6.015625 5.375,-6.328125 4.46875,-6.328125 c -1.390625,0 -1.9375,1.1875 -2.046875,1.484375 H 2.40625 v -1.484375 l -1.953125,0.15625 V -5.75 c 0.984375,0 1.09375,0.09375 1.09375,0.796875 V -1.0625 c 0,0.640625 -0.15625,0.640625 -1.09375,0.640625 V 0 c 0.375,-0.03125 1.15625,-0.03125 1.5625,-0.03125 0.40625,0 1.1875,0 1.5625,0.03125 v -0.421875 c -0.921875,0 -1.09375,0 -1.09375,-0.640625 v -2.671875 c 0,-1.5 0.984375,-2.296875 1.875,-2.296875 0.890625,0 1.09375,0.71875 1.09375,1.59375 v 3.375 c 0,0.640625 -0.15625,0.640625 -1.09375,0.640625 V 0 c 0.375,-0.03125 1.15625,-0.03125 1.546875,-0.03125 0.421875,0 1.1875,0 1.5625,0.03125 v -0.421875 c -0.90625,0 -1.078125,0 -1.078125,-0.640625 v -2.671875 c 0,-1.5 0.984375,-2.296875 1.875,-2.296875 0.890625,0 1.09375,0.71875 1.09375,1.59375 v 3.375 c 0,0.640625 -0.171875,0.640625 -1.09375,0.640625 V 0 c 0.375,-0.03125 1.140625,-0.03125 1.546875,-0.03125 0.421875,0 1.1875,0 1.5625,0.03125 v -0.421875 c -0.71875,0 -1.078125,0 -1.09375,-0.421875 z m 0,0"
             id="path155" />
        </g>
      </g>
      <g
         clip-path="url(#clipPath633)"
         id="g101"
         transform="matrix(0.352778,0,0,0.352778,-0.23151,-0.00317494)">
        <g
           fill="#000000"
           fill-opacity="1"
           id="g99">
          <g
             id="use95"
             transform="translate(99.269638,10.759)">
            <path
               d="M 4.359375,-6.171875 V -5.75 c 0.96875,0 1.09375,0.09375 1.09375,0.796875 V -2.375 c 0,1.21875 -0.640625,2.234375 -1.71875,2.234375 -1.1875,0 -1.25,-0.671875 -1.25,-1.4375 v -4.75 l -2.03125,0.15625 V -5.75 c 1.09375,0 1.09375,0.046875 1.09375,1.3125 v 2.15625 c 0,0.890625 0,1.40625 0.4375,1.875 0.34375,0.375 0.921875,0.546875 1.65625,0.546875 0.25,0 0.703125,0 1.1875,-0.40625 0.421875,-0.34375 0.65625,-0.875 0.65625,-0.875 v 1.28125 L 7.46875,0 v -0.421875 c -0.96875,0 -1.078125,-0.09375 -1.078125,-0.796875 v -5.109375 z m 0,0"
               id="path159" />
          </g>
          <g
             id="use97"
             transform="translate(107.07397,10.759)">
            <path
               d="m 10.28125,-3.484375 c 0,-1.328125 0,-1.734375 -0.328125,-2.203125 C 9.53125,-6.234375 8.859375,-6.328125 8.375,-6.328125 c -1.1875,0 -1.796875,0.859375 -2.015625,1.421875 C 6.15625,-6.015625 5.375,-6.328125 4.46875,-6.328125 c -1.390625,0 -1.9375,1.1875 -2.046875,1.484375 H 2.40625 v -1.484375 l -1.953125,0.15625 V -5.75 c 0.984375,0 1.09375,0.09375 1.09375,0.796875 V -1.0625 c 0,0.640625 -0.15625,0.640625 -1.09375,0.640625 V 0 c 0.375,-0.03125 1.15625,-0.03125 1.5625,-0.03125 0.40625,0 1.1875,0 1.5625,0.03125 v -0.421875 c -0.921875,0 -1.09375,0 -1.09375,-0.640625 v -2.671875 c 0,-1.5 0.984375,-2.296875 1.875,-2.296875 0.890625,0 1.09375,0.71875 1.09375,1.59375 v 3.375 c 0,0.640625 -0.15625,0.640625 -1.09375,0.640625 V 0 c 0.375,-0.03125 1.15625,-0.03125 1.546875,-0.03125 0.421875,0 1.1875,0 1.5625,0.03125 v -0.421875 c -0.90625,0 -1.078125,0 -1.078125,-0.640625 v -2.671875 c 0,-1.5 0.984375,-2.296875 1.875,-2.296875 0.890625,0 1.09375,0.71875 1.09375,1.59375 v 3.375 c 0,0.640625 -0.171875,0.640625 -1.09375,0.640625 V 0 c 0.375,-0.03125 1.140625,-0.03125 1.546875,-0.03125 0.421875,0 1.1875,0 1.5625,0.03125 v -0.421875 c -0.71875,0 -1.078125,0 -1.09375,-0.421875 z m 0,0"
               id="path163" />
          </g>
        </g>
      </g>
    </g>
    <g
       inkscape:label=""
       transform="matrix(1.5919396,0,0,2.2813768,84.960015,266.81954)"
       id="g4198">
      <g
         clip-path="url(#clipPath4355)"
         id="g24"
         transform="matrix(0.352778,0,0,0.352778,-0.23151,-0.0011025)">
        <g
           fill="#000000"
           fill-opacity="1"
           id="g22">
          <g
             id="use20"
             transform="translate(0,6.6750002)">
            <path
               d="m 4.171875,-3.25 c 0.21875,0 0.46875,0 0.46875,-0.234375 0,-0.1875 -0.15625,-0.1875 -0.40625,-0.1875 H 1.90625 c 0.359375,-1.3125 1.203125,-2.09375 2.484375,-2.09375 H 4.8125 c 0.234375,0 0.453125,0 0.453125,-0.234375 0,-0.1875 -0.15625,-0.1875 -0.421875,-0.1875 H 4.359375 c -1.765625,0 -3.703125,1.40625 -3.703125,3.65625 0,1.59375 1.078125,2.671875 2.5,2.671875 0.921875,0 1.828125,-0.578125 1.828125,-0.71875 C 4.984375,-0.65625 4.9375,-0.75 4.84375,-0.75 c -0.03125,0 -0.0625,0.015625 -0.140625,0.078125 -0.546875,0.359375 -1.078125,0.53125 -1.5,0.53125 -0.765625,0 -1.5625,-0.5 -1.5625,-1.890625 0,-0.28125 0.015625,-0.65625 0.15625,-1.21875 z m 0,0"
               id="path36" />
          </g>
        </g>
      </g>
      <g
         clip-path="url(#clipPath9987)"
         id="g30"
         transform="matrix(0.352778,0,0,0.352778,-0.23151,-0.0011025)">
        <g
           fill="#000000"
           fill-opacity="1"
           id="g4195">
          <g
             id="g4193"
             transform="translate(5.6719999,6.6750002)">
            <path
               d="m 3.9375,-6.125 c 0.015625,-0.203125 0.015625,-0.546875 -0.359375,-0.546875 -0.21875,0 -0.40625,0.1875 -0.359375,0.375 v 0.1875 l 0.1875,2.21875 -1.828125,-1.328125 c -0.125,-0.078125 -0.15625,-0.109375 -0.265625,-0.109375 -0.1875,0 -0.375,0.203125 -0.375,0.40625 0,0.234375 0.140625,0.28125 0.28125,0.359375 L 3.25,-3.578125 1.28125,-2.625 c -0.234375,0.109375 -0.34375,0.171875 -0.34375,0.390625 0,0.21875 0.1875,0.390625 0.375,0.390625 0.109375,0 0.140625,0 0.5,-0.265625 l 1.59375,-1.15625 -0.203125,2.40625 c 0,0.296875 0.25,0.375 0.375,0.375 0.171875,0 0.375,-0.109375 0.375,-0.375 L 3.75,-3.265625 5.578125,-1.9375 c 0.125,0.078125 0.15625,0.09375 0.265625,0.09375 0.1875,0 0.375,-0.1875 0.375,-0.390625 0,-0.21875 -0.125,-0.296875 -0.296875,-0.375 C 5.0625,-3.046875 5.03125,-3.046875 3.90625,-3.578125 L 5.875,-4.53125 c 0.234375,-0.109375 0.34375,-0.171875 0.34375,-0.390625 0,-0.21875 -0.1875,-0.40625 -0.375,-0.40625 -0.109375,0 -0.140625,0 -0.5,0.28125 L 3.75,-3.890625 Z m 0,0"
               id="path40" />
          </g>
        </g>
      </g>
    </g>
    <path
       style="fill:none;fill-opacity:0.054902;stroke:#000000;stroke-width:1.1;stroke-opacity:0.991489"
       d="m 86.588514,201.13123 0.23658,57.96225"
       id="path4579" />
    <g
       inkscape:label=""
       transform="matrix(3.4733444,0,0,2.737424,124.32342,256.48482)"
       id="g5128">
      <g
         clip-path="url(#clipPath8542)"
         id="g17"
         transform="matrix(0.352778,0,0,0.352778,-0.23151,0.00370415)">
        <g
           fill="#000000"
           fill-opacity="1"
           id="g15">
          <g
             id="use13"
             transform="translate(0,6.177)">
            <path
               d="m 4.171875,-3.25 c 0.21875,0 0.46875,0 0.46875,-0.234375 0,-0.1875 -0.15625,-0.1875 -0.40625,-0.1875 H 1.90625 c 0.359375,-1.3125 1.203125,-2.09375 2.484375,-2.09375 H 4.8125 c 0.234375,0 0.453125,0 0.453125,-0.234375 0,-0.1875 -0.15625,-0.1875 -0.421875,-0.1875 H 4.359375 c -1.765625,0 -3.703125,1.40625 -3.703125,3.65625 0,1.59375 1.078125,2.671875 2.5,2.671875 0.921875,0 1.828125,-0.578125 1.828125,-0.71875 C 4.984375,-0.65625 4.9375,-0.75 4.84375,-0.75 c -0.03125,0 -0.0625,0.015625 -0.140625,0.078125 -0.546875,0.359375 -1.078125,0.53125 -1.5,0.53125 -0.765625,0 -1.5625,-0.5 -1.5625,-1.890625 0,-0.28125 0.015625,-0.65625 0.15625,-1.21875 z m 0,0"
               id="path23" />
          </g>
        </g>
      </g>
    </g>
  </g>
</svg>
