<?xml version="1.0" encoding="UTF-8" standalone="no"?>
<!-- Created with Inkscape (http://www.inkscape.org/) -->

<svg
   width="210mm"
   height="37.765553mm"
   viewBox="0 0 210 37.765552"
   version="1.1"
   id="svg8"
   inkscape:version="1.2.1 (9c6d41e, 2022-07-14)"
   sodipodi:docname="magtan.svg"
   xmlns:inkscape="http://www.inkscape.org/namespaces/inkscape"
   xmlns:sodipodi="http://sodipodi.sourceforge.net/DTD/sodipodi-0.dtd"
   xmlns="http://www.w3.org/2000/svg"
   xmlns:svg="http://www.w3.org/2000/svg"
   xmlns:rdf="http://www.w3.org/1999/02/22-rdf-syntax-ns#"
   xmlns:cc="http://creativecommons.org/ns#"
   xmlns:dc="http://purl.org/dc/elements/1.1/">
  <defs
     id="defs2">
    <clipPath
       clipPathUnits="userSpaceOnUse"
       id="clipPath450">
      <path
         d="m 381.836,87.953 h 4.141 v 6.754 h -4.141 z"
         id="path448" />
    </clipPath>
    <clipPath
       clipPathUnits="userSpaceOnUse"
       id="clipPath460">
      <path
         d="M 0,0 H 595 V 99 H 0 Z"
         id="path458" />
    </clipPath>
    <clipPath
       clipPathUnits="userSpaceOnUse"
       id="clipPath418">
      <path
         d="m 348.398,87.953 h 30.531 v 6.754 h -30.531 z"
         id="path416" />
    </clipPath>
    <clipPath
       clipPathUnits="userSpaceOnUse"
       id="clipPath428">
      <path
         d="M 0,0 H 595 V 99 H 0 Z"
         id="path426" />
    </clipPath>
    <clipPath
       clipPathUnits="userSpaceOnUse"
       id="clipPath396">
      <path
         d="m 375.828,17.738 h 3.637 v 6.75 h -3.637 z"
         id="path394" />
    </clipPath>
    <clipPath
       clipPathUnits="userSpaceOnUse"
       id="clipPath406">
      <path
         d="M 0,0 H 595 V 99 H 0 Z"
         id="path404" />
    </clipPath>
    <clipPath
       clipPathUnits="userSpaceOnUse"
       id="clipPath364">
      <path
         d="m 342.391,17.738 h 30.531 v 6.75 h -30.531 z"
         id="path362" />
    </clipPath>
    <clipPath
       clipPathUnits="userSpaceOnUse"
       id="clipPath374">
      <path
         d="M 0,0 H 595 V 99 H 0 Z"
         id="path372" />
    </clipPath>
    <clipPath
       clipPathUnits="userSpaceOnUse"
       id="clipPath342">
      <path
         d="m 324.375,38.543 h 4.727 v 6.75 h -4.727 z"
         id="path340" />
    </clipPath>
    <clipPath
       clipPathUnits="userSpaceOnUse"
       id="clipPath352">
      <path
         d="M 0,0 H 595 V 99 H 0 Z"
         id="path350" />
    </clipPath>
    <clipPath
       clipPathUnits="userSpaceOnUse"
       id="clipPath320">
      <path
         d="m 364.051,61.707 h 2.91 v 3.207 h -2.91 z"
         id="path318" />
    </clipPath>
    <clipPath
       clipPathUnits="userSpaceOnUse"
       id="clipPath330">
      <path
         d="M 0,0 H 595 V 99 H 0 Z"
         id="path328" />
    </clipPath>
    <clipPath
       clipPathUnits="userSpaceOnUse"
       id="clipPath294">
      <path
         d="m 357.762,79.215 h 2.91 v 4.832 h -2.91 z"
         id="path292" />
    </clipPath>
    <clipPath
       clipPathUnits="userSpaceOnUse"
       id="clipPath304">
      <path
         d="M 0,0 H 595 V 99 H 0 Z"
         id="path302" />
    </clipPath>
    <clipPath
       clipPathUnits="userSpaceOnUse"
       id="clipPath268">
      <path
         d="m 358.895,31.621 h 2.91 v 4.832 h -2.91 z"
         id="path266" />
    </clipPath>
    <clipPath
       clipPathUnits="userSpaceOnUse"
       id="clipPath278">
      <path
         d="M 0,0 H 595 V 99 H 0 Z"
         id="path276" />
    </clipPath>
    <clipPath
       clipPathUnits="userSpaceOnUse"
       id="clipPath242">
      <path
         d="m 298.684,72.367 h 2.91 v 4.852 h -2.91 z"
         id="path240" />
    </clipPath>
    <clipPath
       clipPathUnits="userSpaceOnUse"
       id="clipPath252">
      <path
         d="M 0,0 H 595 V 99 H 0 Z"
         id="path250" />
    </clipPath>
    <clipPath
       clipPathUnits="userSpaceOnUse"
       id="clipPath220">
      <path
         d="m 295.777,72.367 h 3.633 v 4.852 h -3.633 z"
         id="path218" />
    </clipPath>
    <clipPath
       clipPathUnits="userSpaceOnUse"
       id="clipPath230">
      <path
         d="M 0,0 H 595 V 99 H 0 Z"
         id="path228" />
    </clipPath>
    <clipPath
       clipPathUnits="userSpaceOnUse"
       id="clipPath188">
      <path
         d="m 305.664,8.164 h 2.906 v 4.852 h -2.906 z"
         id="path186" />
    </clipPath>
    <clipPath
       clipPathUnits="userSpaceOnUse"
       id="clipPath198">
      <path
         d="M 0,0 H 595 V 99 H 0 Z"
         id="path196" />
    </clipPath>
    <clipPath
       clipPathUnits="userSpaceOnUse"
       id="clipPath166">
      <path
         d="m 303.48,8.164 h 2.184 v 4.852 h -2.184 z"
         id="path164" />
    </clipPath>
    <clipPath
       clipPathUnits="userSpaceOnUse"
       id="clipPath176">
      <path
         d="M 0,0 H 595 V 99 H 0 Z"
         id="path174" />
    </clipPath>
    <clipPath
       id="clipPath2223">
      <path
         clip-rule="nonzero"
         d="M 0,0 H 8.773438 V 8.167969 H 0 Z m 0,0"
         id="path1966" />
    </clipPath>
    <clipPath
       id="clipPath6682">
      <path
         clip-rule="nonzero"
         d="M 0,0 H 8.773438 V 8.167969 H 0 Z m 0,0"
         id="path593" />
    </clipPath>
    <clipPath
       id="clipPath4631">
      <path
         clip-rule="nonzero"
         d="m 6,6 h 4 v 4.09375 H 6 Z m 0,0"
         id="path4110" />
    </clipPath>
  </defs>
  <sodipodi:namedview
     id="base"
     pagecolor="#ffffff"
     bordercolor="#666666"
     borderopacity="1.0"
     inkscape:pageopacity="0.0"
     inkscape:pageshadow="2"
     inkscape:zoom="0.89695549"
     inkscape:cx="359.54961"
     inkscape:cy="188.41515"
     inkscape:document-units="mm"
     inkscape:current-layer="layer1"
     showgrid="false"
     showborder="true"
     width="200mm"
     showguides="true"
     inkscape:guide-bbox="true"
     inkscape:window-width="1440"
     inkscape:window-height="872"
     inkscape:window-x="0"
     inkscape:window-y="28"
     inkscape:window-maximized="0"
     inkscape:showpageshadow="2"
     inkscape:pagecheckerboard="0"
     inkscape:deskcolor="#d1d1d1">
    <inkscape:grid
       type="xygrid"
       id="grid815"
       units="mm"
       spacingx="10"
       spacingy="10"
       empspacing="4"
       dotted="false"
       originx="-4.4861023"
       originy="10.648131" />
  </sodipodi:namedview>
  <metadata
     id="metadata5">
    <rdf:RDF>
      <cc:Work
         rdf:about="">
        <dc:format>image/svg+xml</dc:format>
        <dc:type
           rdf:resource="http://purl.org/dc/dcmitype/StillImage" />
      </cc:Work>
    </rdf:RDF>
  </metadata>
  <g
     inkscape:label="Layer 1"
     inkscape:groupmode="layer"
     id="layer1"
     transform="translate(-4.4861023,-166.35163)">
    <g
       id="g142"
       transform="matrix(0.35277777,0,0,0.35277777,0.51353505,167.26263)">
      <g
         id="g144">
        <path
           d="m 207.395,66.219 c 74.433,-68.543 152.746,0 152.746,0"
           style="fill:none;stroke:#1a1a1a;stroke-width:0.870114;stroke-linecap:butt;stroke-linejoin:miter;stroke-miterlimit:4;stroke-dasharray:none;stroke-opacity:1"
           id="path146" />
      </g>
      <g
         id="g148">
        <path
           d="m 252.363,21.969 h 68.234 v 34.703 h -68.234 z"
           style="fill:none;stroke:#1a1a1a;stroke-width:0.870114;stroke-linecap:butt;stroke-linejoin:miter;stroke-miterlimit:4;stroke-dasharray:none;stroke-opacity:1"
           id="path150" />
      </g>
      <path
         d="m 283.242,4.797 c -0.066,-0.141 -0.078,-0.18 -0.203,-0.18 -0.125,0 -0.148,0.039 -0.207,0.18 l -2.906,6.57 c -0.012,0.024 -0.035,0.09 -0.035,0.125 0,0.051 0.011,0.067 0.183,0.067 h 5.918 c 0.18,0 0.18,-0.016 0.18,-0.067 0,-0.035 -0.012,-0.101 -0.035,-0.125 z m -0.476,0.711 2.375,5.375 h -4.739 z"
         style="fill:#000000;fill-opacity:1;fill-rule:nonzero;stroke:none"
         id="path152" />
      <path
         d="m 294.434,5.992 c 0.191,-0.371 0.386,-0.738 0.91,-0.789 0.078,-0.012 0.156,-0.027 0.156,-0.18 0,-0.101 -0.078,-0.101 -0.102,-0.101 -0.023,0 -0.078,0.016 -0.66,0.016 -0.258,0 -0.519,-0.016 -0.781,-0.016 -0.047,0 -0.148,0 -0.148,0.18 0,0.089 0.066,0.101 0.113,0.101 0.183,0 0.453,0.063 0.453,0.367 0,0.129 -0.031,0.192 -0.125,0.356 l -2.359,4.652 -0.321,-5.07 c 0,-0.113 0.102,-0.305 0.582,-0.305 0.114,0 0.203,0 0.203,-0.191 0,-0.09 -0.089,-0.09 -0.136,-0.09 -0.297,0 -0.625,0.016 -0.93,0.016 h -0.457 c -0.125,0 -0.281,-0.016 -0.418,-0.016 -0.047,0 -0.148,0 -0.148,0.18 0,0.101 0.054,0.101 0.203,0.101 0.398,0 0.398,0 0.433,0.598 l 0.02,0.355 -2.246,4.422 -0.321,-5.019 c 0,-0.102 0,-0.356 0.594,-0.356 0.09,0 0.192,0 0.192,-0.18 0,-0.101 -0.079,-0.101 -0.137,-0.101 -0.293,0 -0.625,0.016 -0.93,0.016 h -0.457 c -0.125,0 -0.281,-0.016 -0.418,-0.016 -0.047,0 -0.148,0 -0.148,0.18 0,0.101 0.066,0.101 0.183,0.101 0.407,0 0.418,0.051 0.442,0.367 l 0.375,5.961 c 0.011,0.164 0.023,0.231 0.125,0.231 0.09,0 0.101,-0.039 0.179,-0.18 l 2.59,-5.07 0.321,5.019 c 0.011,0.164 0.023,0.231 0.125,0.231 0.089,0 0.113,-0.051 0.179,-0.18 z"
         style="fill:#000000;fill-opacity:1;fill-rule:nonzero;stroke:none"
         id="path154" />
      <path
         d="m 295.984,11.086 c 0,-0.277 -0.214,-0.469 -0.418,-0.469 -0.25,0 -0.421,0.227 -0.421,0.469 0,0.281 0.203,0.473 0.41,0.473 0.25,0 0.429,-0.231 0.429,-0.473 z"
         style="fill:#000000;fill-opacity:1;fill-rule:nonzero;stroke:none"
         id="path156" />
    </g>
    <g
       id="g160"
       transform="matrix(0.35277777,0,0,0.35277777,0.51353505,167.26263)">
      <g
         id="g162"
         clip-path="url(#clipPath166)">
        <g
           id="g168">
          <g
             id="g170">
            <g
               id="g172"
               clip-path="url(#clipPath176)">
              <g
                 id="g178">
                <path
                   d="m 304.863,8.887 c 0,-0.18 -0.011,-0.18 -0.172,-0.18 -0.238,0.254 -0.546,0.406 -1.089,0.406 v 0.219 c 0.16,0 0.464,0 0.804,-0.168 v 3.316 c 0,0.243 -0.019,0.321 -0.566,0.321 h -0.203 v 0.215 c 0.238,-0.024 0.738,-0.024 0.996,-0.024 0.262,0 0.762,0 1,0.024 v -0.215 h -0.203 c -0.547,0 -0.567,-0.078 -0.567,-0.321 z"
                   style="fill:#000000;fill-opacity:1;fill-rule:nonzero;stroke:none"
                   id="path180" />
              </g>
            </g>
          </g>
        </g>
      </g>
    </g>
    <g
       id="g182"
       transform="matrix(0.35277777,0,0,0.35277777,0.51353505,167.26263)">
      <g
         id="g184"
         clip-path="url(#clipPath188)">
        <g
           id="g190">
          <g
             id="g192">
            <g
               id="g194"
               clip-path="url(#clipPath198)">
              <g
                 id="g200">
                <path
                   d="m 307.406,10.438 h 0.567 c 0.101,0 0.172,0 0.172,-0.129 0,-0.09 -0.071,-0.09 -0.172,-0.09 h -0.52 l 0.203,-0.914 c 0.024,-0.102 0.024,-0.129 0.024,-0.141 0,-0.141 -0.094,-0.203 -0.196,-0.203 -0.191,0 -0.238,0.18 -0.293,0.473 l -0.183,0.785 h -0.555 c -0.113,0 -0.183,0 -0.183,0.129 0,0.09 0.07,0.09 0.171,0.09 h 0.52 l -0.352,1.546 c -0.031,0.168 -0.078,0.395 -0.078,0.485 0,0.394 0.285,0.609 0.59,0.609 0.613,0 0.965,-0.914 0.965,-0.988 0,-0.078 -0.043,-0.09 -0.078,-0.09 -0.067,0 -0.067,0.023 -0.113,0.125 -0.114,0.32 -0.411,0.777 -0.762,0.777 -0.113,0 -0.192,-0.09 -0.192,-0.304 0,-0.129 0.02,-0.192 0.032,-0.282 z"
                   style="fill:#000000;fill-opacity:1;fill-rule:nonzero;stroke:none"
                   id="path202" />
              </g>
            </g>
          </g>
        </g>
      </g>
    </g>
    <g
       id="g204"
       transform="matrix(0.352778,0,0,0.352778,0.51353235,167.26263)">
      <path
         d="m 276.266,68.996 c -0.071,-0.141 -0.082,-0.176 -0.207,-0.176 -0.125,0 -0.149,0.035 -0.204,0.176 l -2.91,6.57 c -0.007,0.028 -0.031,0.09 -0.031,0.129 0,0.051 0.012,0.063 0.18,0.063 h 5.918 c 0.183,0 0.183,-0.012 0.183,-0.063 0,-0.039 -0.011,-0.101 -0.035,-0.129 z m -0.481,0.711 2.375,5.379 h -4.734 z"
         style="fill:#000000;fill-opacity:1;fill-rule:nonzero;stroke:none"
         id="path206" />
      <path
         d="m 287.457,70.191 c 0.191,-0.367 0.383,-0.738 0.906,-0.789 0.078,-0.011 0.16,-0.023 0.16,-0.175 0,-0.102 -0.082,-0.102 -0.101,-0.102 -0.024,0 -0.082,0.012 -0.66,0.012 -0.262,0 -0.524,-0.012 -0.785,-0.012 -0.043,0 -0.145,0 -0.145,0.176 0,0.09 0.066,0.101 0.113,0.101 0.18,0 0.453,0.067 0.453,0.371 0,0.125 -0.035,0.192 -0.125,0.356 l -2.363,4.652 -0.316,-5.074 c 0,-0.113 0.101,-0.305 0.578,-0.305 0.113,0 0.203,0 0.203,-0.187 0,-0.09 -0.09,-0.09 -0.133,-0.09 -0.297,0 -0.625,0.012 -0.933,0.012 h -0.454 c -0.125,0 -0.285,-0.012 -0.421,-0.012 -0.043,0 -0.149,0 -0.149,0.176 0,0.101 0.059,0.101 0.207,0.101 0.395,0 0.395,0 0.43,0.598 l 0.023,0.355 -2.25,4.426 -0.316,-5.023 c 0,-0.102 0,-0.356 0.59,-0.356 0.09,0 0.195,0 0.195,-0.175 0,-0.102 -0.082,-0.102 -0.137,-0.102 -0.297,0 -0.625,0.012 -0.933,0.012 h -0.453 c -0.125,0 -0.286,-0.012 -0.422,-0.012 -0.043,0 -0.145,0 -0.145,0.176 0,0.101 0.067,0.101 0.18,0.101 0.41,0 0.422,0.051 0.441,0.371 l 0.375,5.961 c 0.012,0.164 0.024,0.227 0.125,0.227 0.094,0 0.106,-0.039 0.184,-0.176 l 2.59,-5.074 0.316,5.023 c 0.012,0.164 0.024,0.227 0.125,0.227 0.094,0 0.113,-0.051 0.184,-0.176 z"
         style="fill:#000000;fill-opacity:1;fill-rule:nonzero;stroke:none"
         id="path208" />
      <path
         d="m 289.008,75.289 c 0,-0.281 -0.215,-0.473 -0.422,-0.473 -0.25,0 -0.418,0.231 -0.418,0.473 0,0.277 0.203,0.469 0.406,0.469 0.25,0 0.434,-0.227 0.434,-0.469 z"
         style="fill:#000000;fill-opacity:1;fill-rule:nonzero;stroke:none"
         id="path210" />
      <g
         inkscape:label=""
         transform="matrix(2.7425189,0,0,2.570931,296.14474,4.152845)"
         id="g1863">
        <g
           clip-path="url(#clipPath2223)"
           id="g17"
           transform="matrix(0.352778,0,0,0.352778,-0.170877,-0.0044978)">
          <g
             fill="#000000"
             fill-opacity="1"
             id="g15">
            <g
               id="use13"
               transform="translate(0,8.1689997)">
              <path
                 d="m 7.140625,-7.25 c 0,-0.453125 0.03125,-0.5625 0.890625,-0.5625 H 8.265625 V -8.15625 C 7.984375,-8.140625 7,-8.140625 6.65625,-8.140625 c -0.359375,0 -1.34375,0 -1.625,-0.015625 v 0.34375 h 0.234375 c 0.859375,0 0.90625,0.109375 0.90625,0.5625 v 2.828125 H 2.59375 V -7.25 c 0,-0.453125 0.03125,-0.5625 0.890625,-0.5625 h 0.25 v -0.34375 c -0.296875,0.015625 -1.265625,0.015625 -1.625,0.015625 -0.359375,0 -1.328125,0 -1.625,-0.015625 v 0.34375 h 0.25 C 1.59375,-7.8125 1.625,-7.703125 1.625,-7.25 v 6.34375 c 0,0.4375 -0.03125,0.5625 -0.890625,0.5625 h -0.25 V 0 c 0.296875,-0.03125 1.265625,-0.03125 1.625,-0.03125 0.359375,0 1.328125,0 1.625,0.03125 v -0.34375 h -0.25 c -0.859375,0 -0.890625,-0.125 -0.890625,-0.5625 v -3.171875 h 3.578125 v 3.171875 c 0,0.4375 -0.046875,0.5625 -0.90625,0.5625 H 5.03125 V 0 c 0.28125,-0.03125 1.265625,-0.03125 1.609375,-0.03125 0.359375,0 1.34375,0 1.625,0.03125 V -0.34375 H 8.03125 c -0.859375,0 -0.890625,-0.125 -0.890625,-0.5625 z m 0,0"
                 id="path23" />
            </g>
          </g>
        </g>
      </g>
      <g
         inkscape:label=""
         transform="matrix(2.4661155,0,0,2.6588273,289.48092,68.650154)"
         id="g2369">
        <g
           clip-path="url(#clipPath6682)"
           id="g2367"
           transform="matrix(0.352778,0,0,0.352778,-0.170877,-0.0044978)">
          <g
             fill="#000000"
             fill-opacity="1"
             id="g2365">
            <g
               id="g2363"
               transform="translate(0,8.1689997)">
              <path
                 d="m 7.140625,-7.25 c 0,-0.453125 0.03125,-0.5625 0.890625,-0.5625 H 8.265625 V -8.15625 C 7.984375,-8.140625 7,-8.140625 6.65625,-8.140625 c -0.359375,0 -1.34375,0 -1.625,-0.015625 v 0.34375 h 0.234375 c 0.859375,0 0.90625,0.109375 0.90625,0.5625 v 2.828125 H 2.59375 V -7.25 c 0,-0.453125 0.03125,-0.5625 0.890625,-0.5625 h 0.25 v -0.34375 c -0.296875,0.015625 -1.265625,0.015625 -1.625,0.015625 -0.359375,0 -1.328125,0 -1.625,-0.015625 v 0.34375 h 0.25 C 1.59375,-7.8125 1.625,-7.703125 1.625,-7.25 v 6.34375 c 0,0.4375 -0.03125,0.5625 -0.890625,0.5625 h -0.25 V 0 c 0.296875,-0.03125 1.265625,-0.03125 1.625,-0.03125 0.359375,0 1.328125,0 1.625,0.03125 v -0.34375 h -0.25 c -0.859375,0 -0.890625,-0.125 -0.890625,-0.5625 v -3.171875 h 3.578125 v 3.171875 c 0,0.4375 -0.046875,0.5625 -0.90625,0.5625 H 5.03125 V 0 c 0.28125,-0.03125 1.265625,-0.03125 1.609375,-0.03125 0.359375,0 1.34375,0 1.625,0.03125 V -0.34375 H 8.03125 c -0.859375,0 -0.890625,-0.125 -0.890625,-0.5625 z m 0,0"
                 id="path2361" />
            </g>
          </g>
        </g>
      </g>
    </g>
    <g
       id="g214"
       transform="matrix(0.35277777,0,0,0.35277777,0.51353505,167.26263)">
      <g
         id="g216"
         clip-path="url(#clipPath220)">
        <g
           id="g222">
          <g
             id="g224">
            <g
               id="g226"
               clip-path="url(#clipPath230)">
              <g
                 id="g232">
                <path
                   d="m 297.703,75.895 c 0.09,-0.102 0.328,-0.317 0.43,-0.407 0.351,-0.367 0.695,-0.722 0.695,-1.308 0,-0.778 -0.582,-1.27 -1.297,-1.27 -0.703,0 -1.16,0.582 -1.16,1.168 0,0.317 0.231,0.356 0.309,0.356 0.125,0 0.304,-0.09 0.304,-0.344 0,-0.328 -0.293,-0.328 -0.363,-0.328 0.172,-0.485 0.559,-0.637 0.844,-0.637 0.531,0 0.816,0.508 0.816,1.055 0,0.672 -0.422,1.168 -1.113,1.945 l -0.727,0.852 c -0.07,0.062 -0.07,0.074 -0.07,0.238 h 2.285 l 0.172,-1.156 h -0.183 c -0.012,0.129 -0.059,0.445 -0.125,0.574 -0.036,0.051 -0.477,0.051 -0.567,0.051 h -1.035 z"
                   style="fill:#000000;fill-opacity:1;fill-rule:nonzero;stroke:none"
                   id="path234" />
              </g>
            </g>
          </g>
        </g>
      </g>
    </g>
    <g
       id="g236"
       transform="matrix(0.35277777,0,0,0.35277777,0.51353505,167.26263)">
      <g
         id="g238"
         clip-path="url(#clipPath242)">
        <g
           id="g244">
          <g
             id="g246">
            <g
               id="g248"
               clip-path="url(#clipPath252)">
              <g
                 id="g254">
                <path
                   d="m 300.426,74.637 h 0.57 c 0.102,0 0.168,0 0.168,-0.129 0,-0.086 -0.066,-0.086 -0.168,-0.086 h -0.523 l 0.203,-0.918 c 0.023,-0.102 0.023,-0.125 0.023,-0.137 0,-0.14 -0.09,-0.203 -0.191,-0.203 -0.196,0 -0.238,0.176 -0.297,0.469 l -0.18,0.789 h -0.558 c -0.114,0 -0.18,0 -0.18,0.125 0,0.09 0.066,0.09 0.168,0.09 h 0.523 l -0.351,1.551 c -0.035,0.164 -0.078,0.394 -0.078,0.484 0,0.39 0.281,0.609 0.59,0.609 0.613,0 0.964,-0.918 0.964,-0.992 0,-0.078 -0.047,-0.09 -0.078,-0.09 -0.07,0 -0.07,0.028 -0.117,0.129 -0.113,0.317 -0.406,0.774 -0.758,0.774 -0.113,0 -0.195,-0.09 -0.195,-0.305 0,-0.125 0.023,-0.192 0.035,-0.277 z"
                   style="fill:#000000;fill-opacity:1;fill-rule:nonzero;stroke:none"
                   id="path256" />
              </g>
            </g>
          </g>
        </g>
      </g>
    </g>
    <g
       id="g336"
       transform="matrix(0.35277777,0,0,0.35277777,0.51353505,167.26263)">
      <g
         id="g338"
         clip-path="url(#clipPath342)">
        <g
           id="g344">
          <g
             id="g346">
            <g
               id="g348"
               clip-path="url(#clipPath352)">
              <g
                 id="g354">
                <path
                   d="m 328.234,42.93 c 0,-0.903 0,-1.168 -0.191,-1.485 -0.25,-0.383 -0.66,-0.433 -0.953,-0.433 -0.75,0 -1.102,0.625 -1.215,0.929 h -0.012 v -3.394 l -1.215,0.113 v 0.281 c 0.59,0 0.668,0.063 0.668,0.547 v 5.082 c 0,0.446 -0.101,0.446 -0.668,0.446 v 0.281 c 0.227,-0.027 0.704,-0.027 0.942,-0.027 0.25,0 0.726,0 0.941,0.027 v -0.281 c -0.543,0 -0.656,0 -0.656,-0.446 v -1.804 c 0,-1.016 0.602,-1.563 1.145,-1.563 0.535,0 0.66,0.496 0.66,1.094 v 2.273 c 0,0.446 -0.102,0.446 -0.66,0.446 v 0.281 c 0.214,-0.027 0.695,-0.027 0.933,-0.027 0.25,0 0.727,0 0.953,0.027 v -0.281 c -0.445,0 -0.66,0 -0.672,-0.293 z"
                   style="fill:#000000;fill-opacity:1;fill-rule:nonzero;stroke:none"
                   id="path356" />
              </g>
            </g>
          </g>
        </g>
      </g>
    </g>
    <g
       id="g358"
       transform="matrix(0.35277777,0,0,0.35277777,0.51353505,167.26263)">
      <g
         id="g360"
         clip-path="url(#clipPath364)">
        <g
           id="g366">
          <g
             id="g368">
            <g
               id="g370"
               clip-path="url(#clipPath374)">
              <g
                 id="g376">
                <path
                   d="m 344.391,18.035 c -0.059,-0.18 -0.067,-0.18 -0.274,-0.18 h -1.34 v 0.282 h 0.172 c 0.625,0 0.645,0.09 0.645,0.457 v 4.894 c 0,0.266 0,0.723 -0.817,0.723 v 0.281 c 0.227,-0.027 0.684,-0.027 0.93,-0.027 0.242,0 0.695,0 0.922,0.027 v -0.281 c -0.817,0 -0.817,-0.457 -0.817,-0.723 v -5.3 l 2.102,6.113 c 0.031,0.113 0.055,0.191 0.145,0.191 0.082,0 0.093,-0.051 0.148,-0.191 l 2.113,-6.164 v 5.617 c 0,0.355 -0.023,0.457 -0.648,0.457 h -0.168 v 0.281 c 0.191,-0.027 0.894,-0.027 1.144,-0.027 0.25,0 0.946,0 1.149,0.027 v -0.281 h -0.184 c -0.621,0 -0.644,-0.102 -0.644,-0.457 v -5.16 c 0,-0.367 0.023,-0.457 0.644,-0.457 h 0.184 v -0.282 h -1.352 c -0.191,0 -0.191,0 -0.273,0.192 l -1.883,5.527 z"
                   style="fill:#000000;fill-opacity:1;fill-rule:nonzero;stroke:none"
                   id="path378" />
                <path
                   d="m 353.516,22.242 c 0.195,0 0.207,0 0.207,-0.191 0,-0.977 -0.469,-1.895 -1.524,-1.895 -0.988,0 -1.75,1.004 -1.75,2.199 0,1.286 0.887,2.239 1.852,2.239 1.035,0 1.422,-1.055 1.422,-1.258 0,-0.066 -0.035,-0.102 -0.094,-0.102 -0.067,0 -0.09,0.051 -0.102,0.102 -0.226,0.812 -0.804,1.039 -1.179,1.039 -0.364,0 -1.239,-0.277 -1.239,-1.957 v -0.176 z m -2.395,-0.191 c 0.067,-1.524 0.828,-1.703 1.078,-1.703 0.93,0 0.977,1.371 0.989,1.703 z"
                   style="fill:#000000;fill-opacity:1;fill-rule:nonzero;stroke:none"
                   id="path380" />
                <path
                   d="m 356.57,17.855 v 0.282 c 0.602,0 0.672,0.062 0.672,0.547 v 2.148 c -0.183,-0.293 -0.558,-0.625 -1.09,-0.625 -1.011,0 -1.875,0.953 -1.875,2.199 0,1.235 0.817,2.188 1.782,2.188 0.66,0 1.035,-0.496 1.16,-0.676 v 0.676 l 1.226,-0.102 v -0.281 c -0.59,0 -0.66,-0.074 -0.66,-0.547 v -5.922 z m 0.649,5.493 c 0,0.175 0,0.214 -0.125,0.418 -0.203,0.343 -0.555,0.625 -1,0.625 -0.215,0 -1.156,-0.09 -1.156,-1.985 0,-0.699 0.101,-1.078 0.292,-1.41 0.172,-0.293 0.524,-0.598 0.954,-0.598 0.546,0 0.843,0.434 0.933,0.598 0.102,0.164 0.102,0.18 0.102,0.356 z"
                   style="fill:#000000;fill-opacity:1;fill-rule:nonzero;stroke:none"
                   id="path382" />
                <path
                   d="m 360.207,18.504 c 0,-0.254 -0.18,-0.481 -0.418,-0.481 -0.227,0 -0.422,0.204 -0.422,0.469 0,0.293 0.207,0.469 0.422,0.469 0.262,0 0.418,-0.238 0.418,-0.457 z m -1.191,1.805 v 0.281 c 0.546,0 0.625,0.062 0.625,0.535 v 2.641 c 0,0.445 -0.09,0.445 -0.661,0.445 v 0.281 c 0.25,-0.027 0.661,-0.027 0.922,-0.027 0.09,0 0.59,0 0.887,0.027 v -0.281 c -0.559,0 -0.59,-0.051 -0.59,-0.43 v -3.574 z"
                   style="fill:#000000;fill-opacity:1;fill-rule:nonzero;stroke:none"
                   id="path384" />
                <path
                   d="m 363.707,20.309 v 0.281 c 0.594,0 0.66,0.074 0.66,0.547 v 1.742 c 0,0.824 -0.398,1.512 -1.047,1.512 -0.715,0 -0.758,-0.457 -0.758,-0.969 v -3.215 l -1.226,0.102 v 0.281 c 0.668,0 0.668,0.039 0.668,0.902 v 1.449 c 0,0.61 0,0.954 0.262,1.282 0.203,0.242 0.558,0.371 1,0.371 0.148,0 0.429,0 0.726,-0.293 0.25,-0.215 0.387,-0.586 0.387,-0.586 v 0.879 l 1.215,-0.102 v -0.281 c -0.59,0 -0.672,-0.074 -0.672,-0.547 v -3.457 z"
                   style="fill:#000000;fill-opacity:1;fill-rule:nonzero;stroke:none"
                   id="path386" />
                <path
                   d="m 372.023,22.129 c 0,-0.902 0,-1.172 -0.203,-1.488 -0.25,-0.383 -0.66,-0.434 -0.953,-0.434 -0.726,0 -1.09,0.586 -1.226,0.953 -0.125,-0.75 -0.59,-0.953 -1.137,-0.953 -0.852,0 -1.18,0.801 -1.25,0.992 v -0.992 l -1.192,0.102 v 0.281 c 0.59,0 0.668,0.074 0.668,0.547 v 2.629 c 0,0.445 -0.101,0.445 -0.668,0.445 v 0.281 c 0.227,-0.027 0.704,-0.027 0.942,-0.027 0.25,0 0.726,0 0.945,0.027 v -0.281 c -0.547,0 -0.66,0 -0.66,-0.445 v -1.805 c 0,-1.016 0.602,-1.563 1.149,-1.563 0.531,0 0.656,0.497 0.656,1.094 v 2.274 c 0,0.445 -0.102,0.445 -0.656,0.445 v 0.281 c 0.214,-0.027 0.691,-0.027 0.929,-0.027 0.25,0 0.727,0 0.953,0.027 v -0.281 c -0.554,0 -0.668,0 -0.668,-0.445 v -1.805 c 0,-1.016 0.602,-1.563 1.145,-1.563 0.535,0 0.66,0.497 0.66,1.094 v 2.274 c 0,0.445 -0.102,0.445 -0.66,0.445 v 0.281 c 0.23,-0.027 0.695,-0.027 0.933,-0.027 0.25,0 0.727,0 0.954,0.027 v -0.281 c -0.442,0 -0.661,0 -0.661,-0.293 z"
                   style="fill:#000000;fill-opacity:1;fill-rule:nonzero;stroke:none"
                   id="path388" />
              </g>
            </g>
          </g>
        </g>
      </g>
    </g>
    <g
       id="g390"
       transform="matrix(0.35277777,0,0,0.35277777,0.51353505,167.26263)">
      <g
         id="g392"
         clip-path="url(#clipPath396)">
        <g
           id="g398">
          <g
             id="g400">
            <g
               id="g402"
               clip-path="url(#clipPath406)">
              <g
                 id="g408">
                <path
                   d="m 378.211,18.266 c 0,-0.231 0,-0.243 -0.168,-0.243 -0.203,0.266 -0.648,0.622 -1.535,0.622 v 0.281 c 0.195,0 0.625,0 1.113,-0.242 v 5.058 c 0,0.356 -0.031,0.469 -0.793,0.469 h -0.273 v 0.281 c 0.238,-0.027 1.078,-0.027 1.363,-0.027 0.293,0 1.125,0 1.363,0.027 v -0.281 h -0.273 c -0.762,0 -0.797,-0.113 -0.797,-0.469 z"
                   style="fill:#000000;fill-opacity:1;fill-rule:nonzero;stroke:none"
                   id="path410" />
              </g>
            </g>
          </g>
        </g>
      </g>
    </g>
    <g
       id="g412"
       transform="matrix(0.35277777,0,0,0.35277777,0.51353505,167.26263)">
      <g
         id="g414"
         clip-path="url(#clipPath418)">
        <g
           id="g420">
          <g
             id="g422">
            <g
               id="g424"
               clip-path="url(#clipPath428)">
              <g
                 id="g430">
                <path
                   d="m 350.398,88.25 c -0.058,-0.176 -0.07,-0.176 -0.273,-0.176 h -1.34 v 0.278 h 0.172 c 0.621,0 0.645,0.089 0.645,0.457 v 4.894 c 0,0.266 0,0.723 -0.817,0.723 v 0.281 c 0.227,-0.027 0.68,-0.027 0.93,-0.027 0.238,0 0.695,0 0.922,0.027 v -0.281 c -0.817,0 -0.817,-0.457 -0.817,-0.723 v -5.301 l 2.098,6.114 c 0.035,0.113 0.059,0.191 0.148,0.191 0.082,0 0.09,-0.051 0.149,-0.191 l 2.113,-6.164 v 5.617 c 0,0.355 -0.023,0.457 -0.648,0.457 h -0.168 v 0.281 c 0.191,-0.027 0.894,-0.027 1.144,-0.027 0.25,0 0.946,0 1.149,0.027 v -0.281 h -0.184 c -0.625,0 -0.644,-0.102 -0.644,-0.457 v -5.16 c 0,-0.368 0.019,-0.457 0.644,-0.457 h 0.184 v -0.278 h -1.352 c -0.195,0 -0.195,0 -0.273,0.188 l -1.887,5.531 z"
                   style="fill:#000000;fill-opacity:1;fill-rule:nonzero;stroke:none"
                   id="path432" />
                <path
                   d="m 359.523,92.457 c 0.192,0 0.204,0 0.204,-0.191 0,-0.977 -0.465,-1.895 -1.52,-1.895 -0.988,0 -1.75,1.004 -1.75,2.199 0,1.285 0.887,2.239 1.852,2.239 1.035,0 1.418,-1.055 1.418,-1.258 0,-0.063 -0.032,-0.102 -0.09,-0.102 -0.067,0 -0.09,0.051 -0.102,0.102 -0.226,0.812 -0.805,1.043 -1.18,1.043 -0.363,0 -1.238,-0.282 -1.238,-1.957 v -0.18 z m -2.394,-0.191 c 0.066,-1.524 0.828,-1.704 1.078,-1.704 0.93,0 0.977,1.376 0.988,1.704 z"
                   style="fill:#000000;fill-opacity:1;fill-rule:nonzero;stroke:none"
                   id="path434" />
                <path
                   d="m 362.578,88.074 v 0.278 c 0.602,0 0.672,0.062 0.672,0.546 v 2.149 c -0.184,-0.293 -0.559,-0.625 -1.09,-0.625 -1.012,0 -1.875,0.953 -1.875,2.199 0,1.234 0.817,2.188 1.781,2.188 0.661,0 1.036,-0.497 1.161,-0.676 v 0.676 l 1.226,-0.102 v -0.281 c -0.59,0 -0.66,-0.074 -0.66,-0.547 v -5.922 z m 0.649,5.488 c 0,0.18 0,0.215 -0.125,0.418 -0.204,0.344 -0.559,0.625 -1,0.625 -0.215,0 -1.161,-0.089 -1.161,-1.984 0,-0.699 0.106,-1.078 0.297,-1.41 0.172,-0.293 0.524,-0.598 0.953,-0.598 0.547,0 0.84,0.434 0.934,0.598 0.102,0.164 0.102,0.18 0.102,0.355 z"
                   style="fill:#000000;fill-opacity:1;fill-rule:nonzero;stroke:none"
                   id="path436" />
                <path
                   d="m 366.215,88.719 c 0,-0.254 -0.18,-0.481 -0.418,-0.481 -0.227,0 -0.422,0.203 -0.422,0.469 0,0.293 0.203,0.473 0.422,0.473 0.262,0 0.418,-0.242 0.418,-0.461 z m -1.192,1.804 v 0.282 c 0.547,0 0.625,0.062 0.625,0.535 v 2.64 c 0,0.446 -0.089,0.446 -0.66,0.446 v 0.281 c 0.25,-0.027 0.66,-0.027 0.922,-0.027 0.09,0 0.59,0 0.887,0.027 v -0.281 c -0.559,0 -0.594,-0.051 -0.594,-0.43 v -3.574 z"
                   style="fill:#000000;fill-opacity:1;fill-rule:nonzero;stroke:none"
                   id="path438" />
                <path
                   d="m 369.715,90.523 v 0.282 c 0.59,0 0.66,0.078 0.66,0.547 v 1.742 c 0,0.824 -0.398,1.511 -1.047,1.511 -0.715,0 -0.758,-0.457 -0.758,-0.964 v -3.219 l -1.23,0.101 v 0.282 c 0.672,0 0.672,0.039 0.672,0.902 v 1.449 c 0,0.61 0,0.953 0.261,1.285 0.204,0.239 0.555,0.368 1,0.368 0.149,0 0.43,0 0.727,-0.293 0.25,-0.215 0.387,-0.586 0.387,-0.586 v 0.879 l 1.215,-0.102 v -0.281 c -0.59,0 -0.672,-0.074 -0.672,-0.547 v -3.457 z"
                   style="fill:#000000;fill-opacity:1;fill-rule:nonzero;stroke:none"
                   id="path440" />
                <path
                   d="m 378.031,92.344 c 0,-0.903 0,-1.172 -0.203,-1.489 -0.25,-0.382 -0.66,-0.433 -0.953,-0.433 -0.727,0 -1.09,0.586 -1.227,0.953 -0.125,-0.75 -0.593,-0.953 -1.136,-0.953 -0.852,0 -1.18,0.801 -1.25,0.992 v -0.992 l -1.192,0.101 v 0.282 c 0.59,0 0.668,0.078 0.668,0.547 v 2.628 c 0,0.446 -0.101,0.446 -0.668,0.446 v 0.281 c 0.227,-0.027 0.703,-0.027 0.942,-0.027 0.25,0 0.726,0 0.941,0.027 v -0.281 c -0.543,0 -0.656,0 -0.656,-0.446 v -1.804 c 0,-1.016 0.601,-1.563 1.144,-1.563 0.536,0 0.661,0.496 0.661,1.094 v 2.273 c 0,0.446 -0.102,0.446 -0.661,0.446 v 0.281 c 0.219,-0.027 0.696,-0.027 0.934,-0.027 0.25,0 0.727,0 0.953,0.027 v -0.281 c -0.555,0 -0.668,0 -0.668,-0.446 v -1.804 c 0,-1.016 0.602,-1.563 1.145,-1.563 0.535,0 0.66,0.496 0.66,1.094 v 2.273 c 0,0.446 -0.102,0.446 -0.66,0.446 v 0.281 c 0.226,-0.027 0.695,-0.027 0.933,-0.027 0.25,0 0.727,0 0.953,0.027 v -0.281 c -0.441,0 -0.66,0 -0.66,-0.293 z"
                   style="fill:#000000;fill-opacity:1;fill-rule:nonzero;stroke:none"
                   id="path442" />
              </g>
            </g>
          </g>
        </g>
      </g>
    </g>
    <g
       id="g444"
       transform="matrix(0.35277777,0,0,0.35277777,0.51353505,167.26263)">
      <g
         id="g446"
         clip-path="url(#clipPath450)">
        <g
           id="g452">
          <g
             id="g454">
            <g
               id="g456"
               clip-path="url(#clipPath460)">
              <g
                 id="g462">
                <path
                   d="m 385.551,93.066 h -0.196 c -0.035,0.164 -0.101,0.711 -0.179,0.864 -0.071,0.09 -0.559,0.09 -0.821,0.09 h -1.613 c 0.238,-0.227 0.774,-0.852 0.988,-1.079 1.329,-1.359 1.821,-1.871 1.821,-2.836 0,-1.117 -0.797,-1.867 -1.809,-1.867 -1,0 -1.601,0.965 -1.601,1.805 0,0.496 0.386,0.496 0.41,0.496 0.191,0 0.41,-0.152 0.41,-0.457 0,-0.281 -0.16,-0.461 -0.41,-0.461 -0.071,0 -0.09,0 -0.113,0.016 0.16,-0.66 0.636,-1.121 1.191,-1.121 0.738,0 1.191,0.699 1.191,1.589 0,0.829 -0.418,1.551 -0.918,2.172 l -1.761,2.2 v 0.23 h 3.179 z"
                   style="fill:#000000;fill-opacity:1;fill-rule:nonzero;stroke:none"
                   id="path464" />
              </g>
            </g>
          </g>
        </g>
      </g>
    </g>
    <g
       id="g466"
       transform="matrix(0.35277777,0,0,0.35277777,0.51353505,167.26263)">
      <g
         id="g468">
        <path
           d="m 248.613,43.816 3.836,-8.898 3.016,9.512"
           style="fill:none;stroke:#1a1a1a;stroke-width:0.870114;stroke-linecap:butt;stroke-linejoin:miter;stroke-miterlimit:4;stroke-dasharray:none;stroke-opacity:1"
           id="path470" />
      </g>
      <g
         id="g472">
        <path
           d="m 291.102,51.789 -7.95,4.297 7.403,5.215"
           style="fill:none;stroke:#1a1a1a;stroke-width:0.870114;stroke-linecap:butt;stroke-linejoin:miter;stroke-miterlimit:4;stroke-dasharray:none;stroke-opacity:1"
           id="path474" />
      </g>
      <g
         id="g476">
        <path
           d="m 281.508,18.047 10.691,3.988 -10.418,4.91"
           style="fill:none;stroke:#1a1a1a;stroke-width:0.870114;stroke-linecap:butt;stroke-linejoin:miter;stroke-miterlimit:4;stroke-dasharray:none;stroke-opacity:1"
           id="path478" />
      </g>
      <g
         id="g480">
        <path
           d="m 314.953,32.16 5.207,9.508 4.387,-10.121"
           style="fill:none;stroke:#1a1a1a;stroke-width:0.870114;stroke-linecap:butt;stroke-linejoin:miter;stroke-miterlimit:4;stroke-dasharray:none;stroke-opacity:1"
           id="path482" />
      </g>
    </g>
    <g
       inkscape:label=""
       transform="translate(125.21041,181.7327)"
       id="g3801">
      <g
         fill="#000000"
         fill-opacity="1"
         id="g19"
         transform="matrix(0.352778,0,0,0.352778,-0.23151,-0.001808)">
        <g
           id="use17"
           transform="translate(0,8.302)">
          <path
             d="m 3.359375,-8 c 0.015625,-0.046875 0.03125,-0.109375 0.03125,-0.171875 0,-0.125 -0.109375,-0.125 -0.140625,-0.125 -0.015625,0 -0.4375,0.03125 -0.65625,0.0625 C 2.390625,-8.21875 2.21875,-8.203125 2,-8.1875 c -0.296875,0.03125 -0.375,0.03125 -0.375,0.25 0,0.125 0.125,0.125 0.234375,0.125 0.609375,0 0.609375,0.109375 0.609375,0.21875 0,0.046875 0,0.078125 -0.046875,0.296875 L 0.703125,-0.46875 C 0.65625,-0.28125 0.65625,-0.265625 0.65625,-0.1875 c 0,0.265625 0.203125,0.3125 0.328125,0.3125 0.328125,0 0.40625,-0.265625 0.5,-0.640625 L 2.046875,-2.75 c 0.859375,0.09375 1.375,0.453125 1.375,1.03125 0,0.0625 0,0.109375 -0.046875,0.296875 -0.046875,0.171875 -0.046875,0.328125 -0.046875,0.375 0,0.703125 0.46875,1.171875 1.078125,1.171875 0.546875,0 0.828125,-0.5 0.921875,-0.671875 0.25,-0.4375 0.40625,-1.109375 0.40625,-1.15625 0,-0.0625 -0.046875,-0.109375 -0.109375,-0.109375 -0.109375,0 -0.125,0.046875 -0.171875,0.234375 C 5.28125,-0.953125 5.03125,-0.125 4.421875,-0.125 4.1875,-0.125 4.03125,-0.234375 4.03125,-0.6875 c 0,-0.234375 0.046875,-0.5 0.09375,-0.671875 0.046875,-0.21875 0.046875,-0.234375 0.046875,-0.375 0,-0.703125 -0.640625,-1.09375 -1.734375,-1.234375 0.4375,-0.265625 0.859375,-0.734375 1.03125,-0.921875 0.671875,-0.765625 1.140625,-1.140625 1.6875,-1.140625 0.28125,0 0.359375,0.078125 0.4375,0.140625 -0.4375,0.046875 -0.609375,0.359375 -0.609375,0.59375 0,0.296875 0.234375,0.390625 0.390625,0.390625 0.328125,0 0.609375,-0.28125 0.609375,-0.65625 0,-0.34375 -0.265625,-0.703125 -0.8125,-0.703125 -0.65625,0 -1.1875,0.453125 -2.046875,1.421875 -0.109375,0.140625 -0.5625,0.59375 -1,0.765625 z m 0,0"
             id="path31" />
        </g>
      </g>
      <g
         clip-path="url(#clipPath4631)"
         id="g25"
         transform="matrix(0.352778,0,0,0.352778,-0.23151,-0.001808)">
        <g
           fill="#000000"
           fill-opacity="1"
           id="g23">
          <g
             id="use21"
             transform="translate(6.0879998,10.095)">
            <path
               d="m 3.21875,-3 c -0.1875,0.03125 -0.359375,0.171875 -0.359375,0.375 0,0.140625 0.09375,0.25 0.265625,0.25 0.125,0 0.375,-0.09375 0.375,-0.453125 0,-0.484375 -0.515625,-0.6875 -1.015625,-0.6875 -1.0625,0 -1.40625,0.765625 -1.40625,1.171875 0,0.078125 0,0.359375 0.296875,0.578125 0.1875,0.140625 0.328125,0.171875 0.734375,0.25 0.28125,0.0625 0.734375,0.140625 0.734375,0.546875 0,0.21875 -0.15625,0.46875 -0.375,0.625 -0.296875,0.1875 -0.6875,0.203125 -0.8125,0.203125 -0.1875,0 -0.734375,-0.03125 -0.9375,-0.359375 0.40625,-0.015625 0.46875,-0.34375 0.46875,-0.4375 0,-0.234375 -0.21875,-0.296875 -0.3125,-0.296875 -0.125,0 -0.453125,0.109375 -0.453125,0.546875 0,0.46875 0.5,0.765625 1.234375,0.765625 1.390625,0 1.6875,-0.984375 1.6875,-1.3125 0,-0.71875 -0.78125,-0.875 -1.078125,-0.921875 C 1.875,-2.234375 1.5625,-2.28125 1.5625,-2.625 c 0,-0.140625 0.140625,-0.671875 0.921875,-0.671875 0.296875,0 0.609375,0.09375 0.734375,0.296875 z m 0,0"
               id="path35" />
          </g>
        </g>
      </g>
    </g>
  </g>
</svg>
