<?xml version="1.0" encoding="UTF-8" standalone="no"?>
<!-- Created with Inkscape (http://www.inkscape.org/) -->

<svg
   width="211.19754mm"
   height="94.016098mm"
   viewBox="0 0 211.19754 94.016098"
   version="1.1"
   id="svg8"
   inkscape:version="1.2.1 (9c6d41e, 2022-07-14)"
   sodipodi:docname="oblique.svg"
   xmlns:inkscape="http://www.inkscape.org/namespaces/inkscape"
   xmlns:sodipodi="http://sodipodi.sourceforge.net/DTD/sodipodi-0.dtd"
   xmlns="http://www.w3.org/2000/svg"
   xmlns:svg="http://www.w3.org/2000/svg"
   xmlns:rdf="http://www.w3.org/1999/02/22-rdf-syntax-ns#"
   xmlns:cc="http://creativecommons.org/ns#"
   xmlns:dc="http://purl.org/dc/elements/1.1/">
  <defs
     id="defs2">
    <clipPath
       id="clipPath449">
      <path
         clip-rule="nonzero"
         d="M 0,0 H 49 V 9.964844 H 0 Z m 0,0"
         id="path8660" />
    </clipPath>
    <clipPath
       id="clipPath3191">
      <path
         clip-rule="nonzero"
         d="m 55,0 h 5 v 9.964844 h -5 z m 0,0"
         id="path6937" />
    </clipPath>
    <clipPath
       id="clipPath126">
      <path
         clip-rule="nonzero"
         d="M 0,0 H 49 V 9.964844 H 0 Z m 0,0"
         id="path7918" />
    </clipPath>
    <clipPath
       id="clipPath7371">
      <path
         clip-rule="nonzero"
         d="m 54,0 h 6.871094 V 9.964844 H 54 Z m 0,0"
         id="path6520" />
    </clipPath>
    <clipPath
       id="clipPath4697">
      <path
         clip-rule="nonzero"
         d="M 0,3 H 8 V 9.246094 H 0 Z m 0,0"
         id="path3419" />
    </clipPath>
    <clipPath
       id="clipPath530">
      <path
         clip-rule="nonzero"
         d="m 27,0 h 7 v 9.246094 h -7 z m 0,0"
         id="path3676" />
    </clipPath>
    <clipPath
       id="clipPath188">
      <path
         clip-rule="nonzero"
         d="M 0,0 H 8 V 6.175781 H 0 Z m 0,0"
         id="path1262" />
    </clipPath>
    <clipPath
       id="clipPath963">
      <path
         clip-rule="nonzero"
         d="M 28,0 H 41 V 6.175781 H 28 Z m 0,0"
         id="path1825" />
    </clipPath>
    <clipPath
       id="clipPath1630">
      <path
         clip-rule="nonzero"
         d="m 6,5 h 4 v 7.214844 H 6 Z m 0,0"
         id="path8731" />
    </clipPath>
    <clipPath
       id="clipPath9518">
      <path
         clip-rule="nonzero"
         d="m 6,7 h 6 v 5.113281 H 6 Z m 0,0"
         id="path9265" />
    </clipPath>
    <clipPath
       id="clipPath4831">
      <path
         clip-rule="nonzero"
         d="M 0,0 H 6 V 6.175781 H 0 Z m 0,0"
         id="path6690" />
    </clipPath>
    <clipPath
       id="clipPath9523">
      <path
         clip-rule="nonzero"
         d="m 10,8 h 4 v 8.105469 h -4 z m 0,0"
         id="path2011" />
    </clipPath>
    <clipPath
       id="clipPath8635">
      <path
         clip-rule="nonzero"
         d="m 10,11 h 6 v 5.003906 h -6 z m 0,0"
         id="path7997" />
    </clipPath>
    <clipPath
       id="clipPath6126">
      <path
         clip-rule="nonzero"
         d="m 11,11 h 6 v 5.003906 h -6 z m 0,0"
         id="path1033" />
    </clipPath>
    <clipPath
       id="clipPath223">
      <path
         clip-rule="nonzero"
         d="m 11,8 h 4 v 8.105469 h -4 z m 0,0"
         id="path4943" />
    </clipPath>
    <clipPath
       id="clipPath6047">
      <path
         clip-rule="nonzero"
         d="m 8,5 h 4 v 7.214844 H 8 Z m 0,0"
         id="path8920" />
    </clipPath>
    <clipPath
       id="clipPath5290">
      <path
         clip-rule="nonzero"
         d="m 8,7 h 6 v 5.113281 H 8 Z m 0,0"
         id="path4013" />
    </clipPath>
    <clipPath
       id="clipPath1003">
      <path
         clip-rule="nonzero"
         d="m 10,4 h 4 v 8.058594 h -4 z m 0,0"
         id="path4804" />
    </clipPath>
    <clipPath
       id="clipPath7378">
      <path
         clip-rule="nonzero"
         d="m 14,4 h 6 v 8.058594 h -6 z m 0,0"
         id="path274" />
    </clipPath>
    <clipPath
       id="clipPath5972">
      <path
         clip-rule="nonzero"
         d="m 60,7 h 6 v 5.058594 h -6 z m 0,0"
         id="path7632" />
    </clipPath>
    <clipPath
       id="clipPath6347">
      <path
         clip-rule="nonzero"
         d="m 66,4 h 5 v 8.058594 h -5 z m 0,0"
         id="path9423" />
    </clipPath>
    <clipPath
       id="clipPath8631">
      <path
         clip-rule="nonzero"
         d="M 0,0 H 7.414062 V 6.175781 H 0 Z m 0,0"
         id="path4312" />
    </clipPath>
    <clipPath
       id="clipPath7319">
      <path
         clip-rule="nonzero"
         d="M 0,0 H 11 V 9.5625 H 0 Z m 0,0"
         id="path1226" />
    </clipPath>
  </defs>
  <sodipodi:namedview
     id="base"
     pagecolor="#ffffff"
     bordercolor="#666666"
     borderopacity="1.0"
     inkscape:pageopacity="0.0"
     inkscape:pageshadow="2"
     inkscape:zoom="0.44187618"
     inkscape:cx="483.16703"
     inkscape:cy="644.97706"
     inkscape:document-units="mm"
     inkscape:current-layer="layer1"
     showgrid="false"
     showborder="true"
     width="200mm"
     showguides="true"
     inkscape:guide-bbox="true"
     inkscape:window-width="1440"
     inkscape:window-height="872"
     inkscape:window-x="0"
     inkscape:window-y="28"
     inkscape:window-maximized="0"
     inkscape:showpageshadow="2"
     inkscape:pagecheckerboard="0"
     inkscape:deskcolor="#d1d1d1">
    <inkscape:grid
       type="xygrid"
       id="grid815"
       units="mm"
       spacingx="10"
       spacingy="10"
       empspacing="4"
       dotted="false"
       originx="1.1975451"
       originy="0" />
  </sodipodi:namedview>
  <metadata
     id="metadata5">
    <rdf:RDF>
      <cc:Work
         rdf:about="">
        <dc:format>image/svg+xml</dc:format>
        <dc:type
           rdf:resource="http://purl.org/dc/dcmitype/StillImage" />
      </cc:Work>
    </rdf:RDF>
  </metadata>
  <g
     inkscape:label="Layer 1"
     inkscape:groupmode="layer"
     id="layer1"
     transform="translate(1.1975451,-177)">
    <path
       style="fill:none;fill-opacity:0.054902;stroke:#000000;stroke-width:1.1;stroke-opacity:0.991489"
       d="m 93.42993,185.31227 0.997471,68.82561"
       id="path459" />
    <path
       style="fill:none;fill-opacity:0.054902;stroke:#000000;stroke-width:1.1;stroke-opacity:0.991489"
       d="m 62.840771,223.54872 h 65.168209 l -7.64729,-2.99242 7.64729,3.32491 -7.3148,2.65993"
       id="path461" />
    <path
       style="fill:none;fill-opacity:0.054902;stroke:#000000;stroke-width:1.1;stroke-opacity:0.991489"
       d="M 63.505754,250.48048 94.09491,223.54872 61.843297,196.28447"
       id="path463" />
    <path
       style="fill:none;fill-opacity:0.054902;stroke:#000000;stroke-width:1.1;stroke-opacity:0.991489"
       d="m 84.452676,231.19601 c 0,0 -8.312272,-1.32996 -4.322382,-6.98231 -4.987361,-6.31732 4.322383,-8.97725 4.322383,-8.97725"
       id="path465" />
    <g
       inkscape:label=""
       transform="translate(58.684638,182.65267)"
       id="g507">
      <g
         clip-path="url(#clipPath449)"
         id="g45"
         transform="matrix(0.352778,0,0,0.352778,-0.159852,-0.00348379)">
        <g
           fill="#000000"
           fill-opacity="1"
           id="g43">
          <g
             id="use31"
             transform="translate(0,9.9630003)">
            <path
               d="m 10.28125,-3.484375 c 0,-1.328125 0,-1.734375 -0.328125,-2.203125 C 9.53125,-6.234375 8.859375,-6.328125 8.375,-6.328125 c -1.1875,0 -1.796875,0.859375 -2.015625,1.421875 C 6.15625,-6.015625 5.375,-6.328125 4.46875,-6.328125 c -1.390625,0 -1.9375,1.1875 -2.046875,1.484375 H 2.40625 v -1.484375 l -1.953125,0.15625 V -5.75 c 0.984375,0 1.09375,0.09375 1.09375,0.796875 V -1.0625 c 0,0.640625 -0.15625,0.640625 -1.09375,0.640625 V 0 c 0.375,-0.03125 1.15625,-0.03125 1.5625,-0.03125 0.40625,0 1.1875,0 1.5625,0.03125 v -0.421875 c -0.921875,0 -1.09375,0 -1.09375,-0.640625 v -2.671875 c 0,-1.5 0.984375,-2.296875 1.875,-2.296875 0.890625,0 1.09375,0.71875 1.09375,1.59375 v 3.375 c 0,0.640625 -0.15625,0.640625 -1.09375,0.640625 V 0 c 0.375,-0.03125 1.15625,-0.03125 1.546875,-0.03125 0.421875,0 1.1875,0 1.5625,0.03125 v -0.421875 c -0.90625,0 -1.078125,0 -1.078125,-0.640625 v -2.671875 c 0,-1.5 0.984375,-2.296875 1.875,-2.296875 0.890625,0 1.09375,0.71875 1.09375,1.59375 v 3.375 c 0,0.640625 -0.171875,0.640625 -1.09375,0.640625 V 0 c 0.375,-0.03125 1.140625,-0.03125 1.546875,-0.03125 0.421875,0 1.1875,0 1.5625,0.03125 v -0.421875 c -0.71875,0 -1.078125,0 -1.09375,-0.421875 z m 0,0"
               id="path57" />
          </g>
          <g
             id="use33"
             transform="translate(11.706499,9.9630003)">
            <path
               d="m 5.5,-3.328125 c 0.3125,0 0.34375,0 0.34375,-0.265625 0,-1.453125 -0.78125,-2.796875 -2.515625,-2.796875 -1.640625,0 -2.890625,1.46875 -2.890625,3.25 0,1.890625 1.453125,3.28125 3.046875,3.28125 1.703125,0 2.359375,-1.546875 2.359375,-1.84375 0,-0.09375 -0.078125,-0.140625 -0.15625,-0.140625 -0.125,0 -0.15625,0.0625 -0.171875,0.140625 -0.375,1.203125 -1.34375,1.53125 -1.9375,1.53125 -0.609375,0 -2.0625,-0.40625 -2.0625,-2.890625 V -3.328125 Z M 1.53125,-3.59375 c 0.125,-2.265625 1.375,-2.515625 1.78125,-2.515625 1.53125,0 1.625,2.015625 1.640625,2.515625 z m 0,0"
               id="path61" />
          </g>
          <g
             id="use35"
             transform="translate(17.949965,9.9630003)">
            <path
               d="M 4.296875,-9.796875 V -9.375 c 0.984375,0 1.09375,0.09375 1.09375,0.796875 V -5.40625 C 5.09375,-5.828125 4.46875,-6.328125 3.59375,-6.328125 c -1.65625,0 -3.09375,1.40625 -3.09375,3.25 0,1.8125 1.359375,3.21875 2.9375,3.21875 1.09375,0 1.71875,-0.71875 1.921875,-0.984375 V 0.140625 L 7.390625,0 v -0.421875 c -0.984375,0 -1.09375,-0.09375 -1.09375,-0.796875 v -8.734375 z m 1.0625,8.125 c 0,0.25 0,0.296875 -0.203125,0.609375 -0.34375,0.5 -0.921875,0.921875 -1.640625,0.921875 -0.375,0 -1.921875,-0.140625 -1.921875,-2.921875 0,-1.046875 0.171875,-1.609375 0.484375,-2.09375 0.28125,-0.4375 0.859375,-0.875 1.578125,-0.875 0.890625,0 1.390625,0.640625 1.53125,0.875 0.171875,0.234375 0.171875,0.265625 0.171875,0.515625 z m 0,0"
               id="path65" />
          </g>
          <g
             id="use37"
             transform="translate(25.754297,9.9630003)">
            <path
               d="m 2.5,-8.828125 c 0,-0.375 -0.3125,-0.703125 -0.703125,-0.703125 -0.375,0 -0.6875,0.296875 -0.6875,0.6875 0,0.421875 0.34375,0.703125 0.6875,0.703125 0.4375,0 0.703125,-0.375 0.703125,-0.6875 z m -1.984375,2.65625 V -5.75 c 0.921875,0 1.046875,0.078125 1.046875,0.78125 v 3.90625 c 0,0.640625 -0.15625,0.640625 -1.09375,0.640625 V 0 C 0.875,-0.03125 1.5625,-0.03125 1.984375,-0.03125 c 0.15625,0 0.984375,0 1.46875,0.03125 v -0.421875 c -0.921875,0 -0.984375,-0.0625 -0.984375,-0.625 v -5.28125 z m 0,0"
               id="path69" />
          </g>
          <g
             id="use39"
             transform="translate(29.656466,9.9630003)">
            <path
               d="M 4.359375,-6.171875 V -5.75 c 0.96875,0 1.09375,0.09375 1.09375,0.796875 V -2.375 c 0,1.21875 -0.640625,2.234375 -1.71875,2.234375 -1.1875,0 -1.25,-0.671875 -1.25,-1.4375 v -4.75 l -2.03125,0.15625 V -5.75 c 1.09375,0 1.09375,0.046875 1.09375,1.3125 v 2.15625 c 0,0.890625 0,1.40625 0.4375,1.875 0.34375,0.375 0.921875,0.546875 1.65625,0.546875 0.25,0 0.703125,0 1.1875,-0.40625 0.421875,-0.34375 0.65625,-0.875 0.65625,-0.875 v 1.28125 L 7.46875,0 v -0.421875 c -0.96875,0 -1.078125,-0.09375 -1.078125,-0.796875 v -5.109375 z m 0,0"
               id="path73" />
          </g>
          <g
             id="use41"
             transform="translate(37.460796,9.9630003)">
            <path
               d="m 10.28125,-3.484375 c 0,-1.328125 0,-1.734375 -0.328125,-2.203125 C 9.53125,-6.234375 8.859375,-6.328125 8.375,-6.328125 c -1.1875,0 -1.796875,0.859375 -2.015625,1.421875 C 6.15625,-6.015625 5.375,-6.328125 4.46875,-6.328125 c -1.390625,0 -1.9375,1.1875 -2.046875,1.484375 H 2.40625 v -1.484375 l -1.953125,0.15625 V -5.75 c 0.984375,0 1.09375,0.09375 1.09375,0.796875 V -1.0625 c 0,0.640625 -0.15625,0.640625 -1.09375,0.640625 V 0 c 0.375,-0.03125 1.15625,-0.03125 1.5625,-0.03125 0.40625,0 1.1875,0 1.5625,0.03125 v -0.421875 c -0.921875,0 -1.09375,0 -1.09375,-0.640625 v -2.671875 c 0,-1.5 0.984375,-2.296875 1.875,-2.296875 0.890625,0 1.09375,0.71875 1.09375,1.59375 v 3.375 c 0,0.640625 -0.15625,0.640625 -1.09375,0.640625 V 0 c 0.375,-0.03125 1.15625,-0.03125 1.546875,-0.03125 0.421875,0 1.1875,0 1.5625,0.03125 v -0.421875 c -0.90625,0 -1.078125,0 -1.078125,-0.640625 v -2.671875 c 0,-1.5 0.984375,-2.296875 1.875,-2.296875 0.890625,0 1.09375,0.71875 1.09375,1.59375 v 3.375 c 0,0.640625 -0.171875,0.640625 -1.09375,0.640625 V 0 c 0.375,-0.03125 1.140625,-0.03125 1.546875,-0.03125 0.421875,0 1.1875,0 1.5625,0.03125 v -0.421875 c -0.71875,0 -1.078125,0 -1.09375,-0.421875 z m 0,0"
               id="path77" />
          </g>
        </g>
      </g>
      <g
         clip-path="url(#clipPath3191)"
         id="g51"
         transform="matrix(0.352778,0,0,0.352778,-0.159852,-0.00348379)">
        <g
           fill="#000000"
           fill-opacity="1"
           id="g49">
          <g
             id="use47"
             transform="translate(53.844158,9.9630003)">
            <path
               d="m 4.125,-9.1875 c 0,-0.34375 0,-0.34375 -0.28125,-0.34375 C 3.5,-9.15625 2.78125,-8.625 1.3125,-8.625 v 0.421875 c 0.328125,0 1.046875,0 1.828125,-0.375 v 7.46875 c 0,0.515625 -0.046875,0.6875 -1.296875,0.6875 H 1.390625 V 0 c 0.390625,-0.03125 1.78125,-0.03125 2.25,-0.03125 0.46875,0 1.859375,0 2.234375,0.03125 V -0.421875 H 5.4375 c -1.265625,0 -1.3125,-0.171875 -1.3125,-0.6875 z m 0,0"
               id="path81" />
          </g>
        </g>
      </g>
    </g>
    <g
       inkscape:label=""
       transform="translate(113.21314,183.31765)"
       id="g644">
      <g
         clip-path="url(#clipPath126)"
         id="g634"
         transform="matrix(0.352778,0,0,0.352778,-0.159852,-0.00348379)">
        <g
           fill="#000000"
           fill-opacity="1"
           id="g632">
          <g
             id="g610"
             transform="translate(0,9.9630003)">
            <path
               d="m 10.28125,-3.484375 c 0,-1.328125 0,-1.734375 -0.328125,-2.203125 C 9.53125,-6.234375 8.859375,-6.328125 8.375,-6.328125 c -1.1875,0 -1.796875,0.859375 -2.015625,1.421875 C 6.15625,-6.015625 5.375,-6.328125 4.46875,-6.328125 c -1.390625,0 -1.9375,1.1875 -2.046875,1.484375 H 2.40625 v -1.484375 l -1.953125,0.15625 V -5.75 c 0.984375,0 1.09375,0.09375 1.09375,0.796875 V -1.0625 c 0,0.640625 -0.15625,0.640625 -1.09375,0.640625 V 0 c 0.375,-0.03125 1.15625,-0.03125 1.5625,-0.03125 0.40625,0 1.1875,0 1.5625,0.03125 v -0.421875 c -0.921875,0 -1.09375,0 -1.09375,-0.640625 v -2.671875 c 0,-1.5 0.984375,-2.296875 1.875,-2.296875 0.890625,0 1.09375,0.71875 1.09375,1.59375 v 3.375 c 0,0.640625 -0.15625,0.640625 -1.09375,0.640625 V 0 c 0.375,-0.03125 1.15625,-0.03125 1.546875,-0.03125 0.421875,0 1.1875,0 1.5625,0.03125 v -0.421875 c -0.90625,0 -1.078125,0 -1.078125,-0.640625 v -2.671875 c 0,-1.5 0.984375,-2.296875 1.875,-2.296875 0.890625,0 1.09375,0.71875 1.09375,1.59375 v 3.375 c 0,0.640625 -0.171875,0.640625 -1.09375,0.640625 V 0 c 0.375,-0.03125 1.140625,-0.03125 1.546875,-0.03125 0.421875,0 1.1875,0 1.5625,0.03125 v -0.421875 c -0.71875,0 -1.078125,0 -1.09375,-0.421875 z m 0,0"
               id="path608" />
          </g>
          <g
             id="g614"
             transform="translate(11.706499,9.9630003)">
            <path
               d="m 5.5,-3.328125 c 0.3125,0 0.34375,0 0.34375,-0.265625 0,-1.453125 -0.78125,-2.796875 -2.515625,-2.796875 -1.640625,0 -2.890625,1.46875 -2.890625,3.25 0,1.890625 1.453125,3.28125 3.046875,3.28125 1.703125,0 2.359375,-1.546875 2.359375,-1.84375 0,-0.09375 -0.078125,-0.140625 -0.15625,-0.140625 -0.125,0 -0.15625,0.0625 -0.171875,0.140625 -0.375,1.203125 -1.34375,1.53125 -1.9375,1.53125 -0.609375,0 -2.0625,-0.40625 -2.0625,-2.890625 V -3.328125 Z M 1.53125,-3.59375 c 0.125,-2.265625 1.375,-2.515625 1.78125,-2.515625 1.53125,0 1.625,2.015625 1.640625,2.515625 z m 0,0"
               id="path612" />
          </g>
          <g
             id="g618"
             transform="translate(17.949965,9.9630003)">
            <path
               d="M 4.296875,-9.796875 V -9.375 c 0.984375,0 1.09375,0.09375 1.09375,0.796875 V -5.40625 C 5.09375,-5.828125 4.46875,-6.328125 3.59375,-6.328125 c -1.65625,0 -3.09375,1.40625 -3.09375,3.25 0,1.8125 1.359375,3.21875 2.9375,3.21875 1.09375,0 1.71875,-0.71875 1.921875,-0.984375 V 0.140625 L 7.390625,0 v -0.421875 c -0.984375,0 -1.09375,-0.09375 -1.09375,-0.796875 v -8.734375 z m 1.0625,8.125 c 0,0.25 0,0.296875 -0.203125,0.609375 -0.34375,0.5 -0.921875,0.921875 -1.640625,0.921875 -0.375,0 -1.921875,-0.140625 -1.921875,-2.921875 0,-1.046875 0.171875,-1.609375 0.484375,-2.09375 0.28125,-0.4375 0.859375,-0.875 1.578125,-0.875 0.890625,0 1.390625,0.640625 1.53125,0.875 0.171875,0.234375 0.171875,0.265625 0.171875,0.515625 z m 0,0"
               id="path616" />
          </g>
          <g
             id="g622"
             transform="translate(25.754297,9.9630003)">
            <path
               d="m 2.5,-8.828125 c 0,-0.375 -0.3125,-0.703125 -0.703125,-0.703125 -0.375,0 -0.6875,0.296875 -0.6875,0.6875 0,0.421875 0.34375,0.703125 0.6875,0.703125 0.4375,0 0.703125,-0.375 0.703125,-0.6875 z m -1.984375,2.65625 V -5.75 c 0.921875,0 1.046875,0.078125 1.046875,0.78125 v 3.90625 c 0,0.640625 -0.15625,0.640625 -1.09375,0.640625 V 0 C 0.875,-0.03125 1.5625,-0.03125 1.984375,-0.03125 c 0.15625,0 0.984375,0 1.46875,0.03125 v -0.421875 c -0.921875,0 -0.984375,-0.0625 -0.984375,-0.625 v -5.28125 z m 0,0"
               id="path620" />
          </g>
          <g
             id="g626"
             transform="translate(29.656466,9.9630003)">
            <path
               d="M 4.359375,-6.171875 V -5.75 c 0.96875,0 1.09375,0.09375 1.09375,0.796875 V -2.375 c 0,1.21875 -0.640625,2.234375 -1.71875,2.234375 -1.1875,0 -1.25,-0.671875 -1.25,-1.4375 v -4.75 l -2.03125,0.15625 V -5.75 c 1.09375,0 1.09375,0.046875 1.09375,1.3125 v 2.15625 c 0,0.890625 0,1.40625 0.4375,1.875 0.34375,0.375 0.921875,0.546875 1.65625,0.546875 0.25,0 0.703125,0 1.1875,-0.40625 0.421875,-0.34375 0.65625,-0.875 0.65625,-0.875 v 1.28125 L 7.46875,0 v -0.421875 c -0.96875,0 -1.078125,-0.09375 -1.078125,-0.796875 v -5.109375 z m 0,0"
               id="path624" />
          </g>
          <g
             id="g630"
             transform="translate(37.460796,9.9630003)">
            <path
               d="m 10.28125,-3.484375 c 0,-1.328125 0,-1.734375 -0.328125,-2.203125 C 9.53125,-6.234375 8.859375,-6.328125 8.375,-6.328125 c -1.1875,0 -1.796875,0.859375 -2.015625,1.421875 C 6.15625,-6.015625 5.375,-6.328125 4.46875,-6.328125 c -1.390625,0 -1.9375,1.1875 -2.046875,1.484375 H 2.40625 v -1.484375 l -1.953125,0.15625 V -5.75 c 0.984375,0 1.09375,0.09375 1.09375,0.796875 V -1.0625 c 0,0.640625 -0.15625,0.640625 -1.09375,0.640625 V 0 c 0.375,-0.03125 1.15625,-0.03125 1.5625,-0.03125 0.40625,0 1.1875,0 1.5625,0.03125 v -0.421875 c -0.921875,0 -1.09375,0 -1.09375,-0.640625 v -2.671875 c 0,-1.5 0.984375,-2.296875 1.875,-2.296875 0.890625,0 1.09375,0.71875 1.09375,1.59375 v 3.375 c 0,0.640625 -0.15625,0.640625 -1.09375,0.640625 V 0 c 0.375,-0.03125 1.15625,-0.03125 1.546875,-0.03125 0.421875,0 1.1875,0 1.5625,0.03125 v -0.421875 c -0.90625,0 -1.078125,0 -1.078125,-0.640625 v -2.671875 c 0,-1.5 0.984375,-2.296875 1.875,-2.296875 0.890625,0 1.09375,0.71875 1.09375,1.59375 v 3.375 c 0,0.640625 -0.171875,0.640625 -1.09375,0.640625 V 0 c 0.375,-0.03125 1.140625,-0.03125 1.546875,-0.03125 0.421875,0 1.1875,0 1.5625,0.03125 v -0.421875 c -0.71875,0 -1.078125,0 -1.09375,-0.421875 z m 0,0"
               id="path628" />
          </g>
        </g>
      </g>
      <g
         clip-path="url(#clipPath7371)"
         id="g642"
         transform="matrix(0.352778,0,0,0.352778,-0.159852,-0.00348379)">
        <g
           fill="#000000"
           fill-opacity="1"
           id="g640">
          <g
             id="g638"
             transform="translate(53.844158,9.9630003)">
            <path
               d="M 6.3125,-2.40625 H 6 c -0.046875,0.234375 -0.15625,1.03125 -0.3125,1.265625 -0.09375,0.125 -0.90625,0.125 -1.34375,0.125 H 1.6875 c 0.390625,-0.328125 1.265625,-1.25 1.640625,-1.59375 2.1875,-2.015625 2.984375,-2.75 2.984375,-4.171875 0,-1.65625 -1.3125,-2.75 -2.96875,-2.75 -1.671875,0 -2.640625,1.40625 -2.640625,2.640625 0,0.734375 0.625,0.734375 0.671875,0.734375 0.296875,0 0.671875,-0.21875 0.671875,-0.671875 C 2.046875,-7.234375 1.78125,-7.5 1.375,-7.5 1.25,-7.5 1.21875,-7.5 1.171875,-7.484375 1.453125,-8.46875 2.21875,-9.125 3.15625,-9.125 4.375,-9.125 5.125,-8.109375 5.125,-6.78125 5.125,-5.5625 4.421875,-4.5 3.59375,-3.578125 L 0.703125,-0.34375 V 0 H 5.9375 Z m 0,0"
               id="path636" />
          </g>
        </g>
      </g>
    </g>
    <g
       inkscape:label=""
       transform="translate(64.336983,187.64003)"
       id="g798">
      <g
         clip-path="url(#clipPath4697)"
         id="g27"
         transform="matrix(0.352778,0,0,0.352778,-0.192925,0.100983)">
        <g
           fill="#000000"
           fill-opacity="1"
           id="g25">
          <g
             id="use23"
             transform="translate(0,9.2449999)">
            <path
               d="m 7.28125,-5.40625 c 0.1875,0 0.671875,0 0.671875,-0.453125 0,-0.328125 -0.28125,-0.328125 -0.53125,-0.328125 H 4.25 c -2.15625,0 -3.703125,2.40625 -3.703125,4.09375 0,1.21875 0.78125,2.234375 2.078125,2.234375 1.6875,0 3.546875,-1.8125 3.546875,-3.96875 0,-0.5625 -0.140625,-1.109375 -0.484375,-1.578125 z m -4.640625,5.265625 c -0.734375,0 -1.265625,-0.5625 -1.265625,-1.546875 0,-0.859375 0.515625,-3.71875 2.625,-3.71875 0.625,0 1.3125,0.296875 1.3125,1.40625 0,0.5 -0.234375,1.703125 -0.734375,2.53125 -0.515625,0.859375 -1.296875,1.328125 -1.9375,1.328125 z m 0,0"
               id="path43" />
          </g>
        </g>
      </g>
      <g
         fill="#000000"
         fill-opacity="1"
         id="g31"
         transform="matrix(0.352778,0,0,0.352778,-0.192925,0.100983)">
        <g
           id="use29"
           transform="translate(12.484,9.2449999)">
          <path
             d="m 9.6875,-4.640625 c 0.203125,0 0.453125,0 0.453125,-0.265625 0,-0.265625 -0.25,-0.265625 -0.453125,-0.265625 H 1.234375 c -0.203125,0 -0.453125,0 -0.453125,0.25 0,0.28125 0.234375,0.28125 0.453125,0.28125 z m 0,2.65625 c 0.203125,0 0.453125,0 0.453125,-0.25 0,-0.28125 -0.25,-0.28125 -0.453125,-0.28125 H 1.234375 c -0.203125,0 -0.453125,0 -0.453125,0.265625 0,0.265625 0.234375,0.265625 0.453125,0.265625 z m 0,0"
             id="path47" />
        </g>
      </g>
      <g
         clip-path="url(#clipPath530)"
         id="g37"
         transform="matrix(0.352778,0,0,0.352778,-0.192925,0.100983)">
        <g
           fill="#000000"
           fill-opacity="1"
           id="g35">
          <g
             id="g794"
             transform="translate(27.39831,9.2449999)">
            <path
               d="m 6.421875,-4.59375 c 0,-1.1875 -0.0625,-2.34375 -0.578125,-3.4375 -0.59375,-1.1875 -1.625,-1.5 -2.328125,-1.5 -0.828125,0 -1.859375,0.40625 -2.375,1.59375 -0.40625,0.90625 -0.546875,1.796875 -0.546875,3.34375 0,1.390625 0.09375,2.4375 0.609375,3.453125 0.5625,1.09375 1.546875,1.4375 2.296875,1.4375 1.25,0 1.96875,-0.734375 2.375,-1.578125 0.515625,-1.078125 0.546875,-2.484375 0.546875,-3.3125 z M 3.5,0.015625 C 3.046875,0.015625 2.109375,-0.25 1.84375,-1.8125 1.671875,-2.671875 1.671875,-3.765625 1.671875,-4.765625 1.671875,-5.9375 1.671875,-7 1.90625,-7.84375 2.15625,-8.8125 2.890625,-9.25 3.5,-9.25 c 0.546875,0 1.375,0.328125 1.65625,1.5625 0.171875,0.8125 0.171875,1.953125 0.171875,2.921875 0,0.96875 0,2.046875 -0.15625,2.921875 C 4.90625,-0.265625 4,0.015625 3.5,0.015625 Z m 0,0"
               id="path51" />
          </g>
        </g>
      </g>
    </g>
    <g
       inkscape:label=""
       transform="translate(118.2005,189.30249)"
       id="g976">
      <g
         clip-path="url(#clipPath188)"
         id="g28"
         transform="matrix(0.352778,0,0,0.352778,-0.192925,0.0588257)">
        <g
           fill="#000000"
           fill-opacity="1"
           id="g26">
          <g
             id="use24"
             transform="translate(0,6.177)">
            <path
               d="m 7.28125,-5.40625 c 0.1875,0 0.671875,0 0.671875,-0.453125 0,-0.328125 -0.28125,-0.328125 -0.53125,-0.328125 H 4.25 c -2.15625,0 -3.703125,2.40625 -3.703125,4.09375 0,1.21875 0.78125,2.234375 2.078125,2.234375 1.6875,0 3.546875,-1.8125 3.546875,-3.96875 0,-0.5625 -0.140625,-1.109375 -0.484375,-1.578125 z m -4.640625,5.265625 c -0.734375,0 -1.265625,-0.5625 -1.265625,-1.546875 0,-0.859375 0.515625,-3.71875 2.625,-3.71875 0.625,0 1.3125,0.296875 1.3125,1.40625 0,0.5 -0.234375,1.703125 -0.734375,2.53125 -0.515625,0.859375 -1.296875,1.328125 -1.9375,1.328125 z m 0,0"
               id="path44" />
          </g>
        </g>
      </g>
      <g
         fill="#000000"
         fill-opacity="1"
         id="g32"
         transform="matrix(0.352778,0,0,0.352778,-0.192925,0.0588257)">
        <g
           id="use30"
           transform="translate(12.484,6.177)">
          <path
             d="m 9.6875,-4.640625 c 0.203125,0 0.453125,0 0.453125,-0.265625 0,-0.265625 -0.25,-0.265625 -0.453125,-0.265625 H 1.234375 c -0.203125,0 -0.453125,0 -0.453125,0.25 0,0.28125 0.234375,0.28125 0.453125,0.28125 z m 0,2.65625 c 0.203125,0 0.453125,0 0.453125,-0.25 0,-0.28125 -0.25,-0.28125 -0.453125,-0.28125 H 1.234375 c -0.203125,0 -0.453125,0 -0.453125,0.265625 0,0.265625 0.234375,0.265625 0.453125,0.265625 z m 0,0"
             id="path48" />
        </g>
      </g>
      <g
         clip-path="url(#clipPath963)"
         id="g38"
         transform="matrix(0.352778,0,0,0.352778,-0.192925,0.0588257)">
        <g
           fill="#000000"
           fill-opacity="1"
           id="g36">
          <g
             id="use34"
             transform="translate(27.393999,6.177)">
            <path
               d="M 7.28125,-3.890625 C 6.515625,-4.859375 6.34375,-5.078125 5.890625,-5.4375 5.09375,-6.078125 4.28125,-6.34375 3.5625,-6.34375 c -1.6875,0 -2.78125,1.578125 -2.78125,3.265625 0,1.640625 1.0625,3.234375 2.71875,3.234375 1.65625,0 2.84375,-1.296875 3.546875,-2.453125 0.765625,0.984375 0.9375,1.1875 1.390625,1.546875 0.796875,0.65625 1.609375,0.90625 2.328125,0.90625 1.6875,0 2.78125,-1.578125 2.78125,-3.25 0,-1.65625 -1.0625,-3.25 -2.71875,-3.25 -1.640625,0 -2.84375,1.3125 -3.546875,2.453125 z m 0.375,0.484375 C 8.25,-4.4375 9.3125,-5.875 10.9375,-5.875 c 1.515625,0 2.28125,1.484375 2.28125,2.78125 0,1.40625 -0.953125,2.5625 -2.21875,2.5625 -0.828125,0 -1.46875,-0.609375 -1.78125,-0.90625 -0.359375,-0.390625 -0.6875,-0.828125 -1.5625,-1.96875 z m -0.984375,0.625 c -0.59375,1.03125 -1.65625,2.484375 -3.265625,2.484375 -1.53125,0 -2.296875,-1.5 -2.296875,-2.78125 0,-1.40625 0.953125,-2.578125 2.21875,-2.578125 0.828125,0 1.484375,0.609375 1.78125,0.90625 0.359375,0.390625 0.6875,0.828125 1.5625,1.96875 z m 0,0"
               id="path52" />
          </g>
        </g>
      </g>
    </g>
    <g
       inkscape:label=""
       transform="translate(73.646727,226.54146)"
       id="g1181">
      <g
         fill="#000000"
         fill-opacity="1"
         id="g19"
         transform="matrix(0.352778,0,0,0.352778,-0.20395,0.0461256)">
        <g
           id="use17"
           transform="translate(0,9.9630003)">
          <path
             d="m 6.359375,-7.21875 c 0,-1.453125 -0.46875,-2.875 -1.640625,-2.875 -2,0 -4.140625,4.203125 -4.140625,7.359375 0,0.65625 0.140625,2.875 1.640625,2.875 1.953125,0 4.140625,-4.09375 4.140625,-7.359375 z M 2.015625,-5.1875 C 2.21875,-6.03125 2.53125,-7.25 3.09375,-8.265625 3.578125,-9.125 4.078125,-9.8125 4.703125,-9.8125 5.171875,-9.8125 5.5,-9.40625 5.5,-8.03125 5.5,-7.515625 5.453125,-6.796875 5.03125,-5.1875 Z M 4.9375,-4.765625 c -0.359375,1.40625 -0.65625,2.3125 -1.171875,3.21875 -0.421875,0.734375 -0.921875,1.40625 -1.53125,1.40625 -0.4375,0 -0.796875,-0.34375 -0.796875,-1.765625 0,-0.9375 0.21875,-1.90625 0.453125,-2.859375 z m 0,0"
             id="path31" />
        </g>
      </g>
      <g
         clip-path="url(#clipPath1630)"
         id="g1179"
         transform="matrix(0.352778,0,0,0.352778,-0.20395,0.0461256)">
        <g
           fill="#000000"
           fill-opacity="1"
           id="g23">
          <g
             id="use21"
             transform="translate(6.546,12.216)">
            <path
               d="m 3.09375,-6.8125 c 0,-0.21875 -0.15625,-0.390625 -0.40625,-0.390625 -0.28125,0 -0.578125,0.28125 -0.578125,0.578125 0,0.203125 0.140625,0.390625 0.40625,0.390625 0.25,0 0.578125,-0.25 0.578125,-0.578125 z m -0.828125,4.09375 c 0.140625,-0.3125 0.140625,-0.328125 0.25,-0.625 0.078125,-0.21875 0.140625,-0.375 0.140625,-0.578125 0,-0.5 -0.359375,-0.90625 -0.90625,-0.90625 -1.015625,0 -1.4375,1.59375 -1.4375,1.6875 0,0.109375 0.109375,0.109375 0.140625,0.109375 0.109375,0 0.109375,-0.015625 0.171875,-0.203125 0.296875,-1.015625 0.734375,-1.34375 1.09375,-1.34375 0.09375,0 0.28125,0 0.28125,0.34375 C 2,-4 1.921875,-3.78125 1.875,-3.671875 1.78125,-3.375 1.296875,-2.109375 1.125,-1.640625 1.015625,-1.359375 0.875,-1 0.875,-0.78125 c 0,0.515625 0.375,0.90625 0.890625,0.90625 1.03125,0 1.4375,-1.59375 1.4375,-1.6875 0,-0.109375 -0.109375,-0.109375 -0.140625,-0.109375 -0.109375,0 -0.109375,0.03125 -0.15625,0.203125 -0.203125,0.6875 -0.5625,1.34375 -1.125,1.34375 -0.171875,0 -0.25,-0.109375 -0.25,-0.359375 0,-0.265625 0.0625,-0.421875 0.3125,-1.09375 z m 0,0"
               id="path35" />
          </g>
        </g>
      </g>
    </g>
    <g
       inkscape:label=""
       transform="translate(72.649254,213.57432)"
       id="g1406">
      <g
         fill="#000000"
         fill-opacity="1"
         id="g1396"
         transform="matrix(0.352778,0,0,0.352778,-0.20395,0.0461256)">
        <g
           id="g1394"
           transform="translate(0,9.9630003)">
          <path
             d="m 6.359375,-7.21875 c 0,-1.453125 -0.46875,-2.875 -1.640625,-2.875 -2,0 -4.140625,4.203125 -4.140625,7.359375 0,0.65625 0.140625,2.875 1.640625,2.875 1.953125,0 4.140625,-4.09375 4.140625,-7.359375 z M 2.015625,-5.1875 C 2.21875,-6.03125 2.53125,-7.25 3.09375,-8.265625 3.578125,-9.125 4.078125,-9.8125 4.703125,-9.8125 5.171875,-9.8125 5.5,-9.40625 5.5,-8.03125 5.5,-7.515625 5.453125,-6.796875 5.03125,-5.1875 Z M 4.9375,-4.765625 c -0.359375,1.40625 -0.65625,2.3125 -1.171875,3.21875 -0.421875,0.734375 -0.921875,1.40625 -1.53125,1.40625 -0.4375,0 -0.796875,-0.34375 -0.796875,-1.765625 0,-0.9375 0.21875,-1.90625 0.453125,-2.859375 z m 0,0"
             id="path1392" />
        </g>
      </g>
      <g
         clip-path="url(#clipPath9518)"
         id="g1404"
         transform="matrix(0.352778,0,0,0.352778,-0.20395,0.0461256)">
        <g
           fill="#000000"
           fill-opacity="1"
           id="g1402">
          <g
             id="g1400"
             transform="translate(6.546,12.115)">
            <path
               d="m 0.953125,-0.640625 c -0.03125,0.15625 -0.09375,0.40625 -0.09375,0.46875 0,0.1875 0.15625,0.296875 0.3125,0.296875 0.140625,0 0.328125,-0.09375 0.40625,-0.3125 0.03125,-0.046875 0.390625,-1.53125 0.4375,-1.71875 0.09375,-0.359375 0.28125,-1.125 0.34375,-1.421875 C 2.40625,-3.46875 2.71875,-3.984375 2.984375,-4.21875 3.0625,-4.296875 3.375,-4.578125 3.84375,-4.578125 c 0.296875,0 0.453125,0.125 0.46875,0.125 -0.328125,0.0625 -0.578125,0.3125 -0.578125,0.609375 0,0.171875 0.125,0.375 0.421875,0.375 0.296875,0 0.59375,-0.25 0.59375,-0.640625 0,-0.390625 -0.34375,-0.71875 -0.90625,-0.71875 -0.703125,0 -1.1875,0.546875 -1.390625,0.84375 -0.09375,-0.484375 -0.484375,-0.84375 -0.984375,-0.84375 -0.515625,0 -0.71875,0.4375 -0.8125,0.625 -0.203125,0.375 -0.34375,1.03125 -0.34375,1.0625 0,0.109375 0.109375,0.109375 0.140625,0.109375 0.109375,0 0.109375,-0.015625 0.171875,-0.25 0.1875,-0.78125 0.40625,-1.296875 0.796875,-1.296875 0.1875,0 0.34375,0.078125 0.34375,0.5 0,0.234375 -0.03125,0.34375 -0.171875,0.921875 z m 0,0"
               id="path1398" />
          </g>
        </g>
      </g>
    </g>
    <g
       inkscape:label=""
       transform="translate(130.83515,222.21908)"
       id="g1641">
      <g
         clip-path="url(#clipPath4831)"
         id="g17"
         transform="matrix(0.352778,0,0,0.352778,-0.137804,0.00370415)">
        <g
           fill="#000000"
           fill-opacity="1"
           id="g15">
          <g
             id="use13"
             transform="translate(0,6.177)">
            <path
               d="m 5.46875,-5.78125 c 0.125,-0.15625 0.125,-0.1875 0.125,-0.25 C 5.59375,-6.1875 5.5,-6.1875 5.25,-6.1875 h -4.5 l -0.15625,2.28125 h 0.3125 c 0.078125,-1.453125 0.359375,-1.984375 1.921875,-1.984375 h 1.65625 l -4.09375,5.625 C 0.390625,0 0.421875,0 0.734375,0 H 5.40625 l 0.234375,-2.640625 h -0.3125 C 5.1875,-1 4.953125,-0.3125 3.234375,-0.3125 H 1.5 Z m 0,0"
               id="path23" />
          </g>
        </g>
      </g>
    </g>
    <g
       inkscape:label=""
       transform="translate(56.024712,254.47069)"
       id="g1896">
      <g
         fill="#000000"
         fill-opacity="1"
         id="g22"
         transform="matrix(0.352778,0,0,0.352778,-0.23151,0.00330716)">
        <g
           id="use20"
           transform="translate(2.7119999,10.225)">
          <path
             d="M 7.671875,-8.5625 C 7.5,-8.40625 6.96875,-7.90625 6.96875,-7.703125 c 0,0.140625 0.125,0.265625 0.28125,0.265625 0.125,0 0.1875,-0.078125 0.28125,-0.21875 0.34375,-0.4375 0.734375,-0.703125 1.0625,-0.890625 0.140625,-0.09375 0.234375,-0.125 0.234375,-0.28125 0,-0.140625 -0.109375,-0.203125 -0.1875,-0.28125 C 8.234375,-9.375 8.140625,-9.765625 8.09375,-9.9375 8.046875,-10.0625 8,-10.234375 7.796875,-10.234375 c -0.078125,0 -0.25,0.0625 -0.25,0.28125 0,0.125 0.078125,0.46875 0.359375,0.859375 H 3.078125 c -0.234375,0 -0.484375,0 -0.484375,0.265625 0,0.265625 0.265625,0.265625 0.484375,0.265625 z m 0,0"
             id="path38" />
        </g>
      </g>
      <g
         fill="#000000"
         fill-opacity="1"
         id="g1889"
         transform="matrix(0.352778,0,0,0.352778,-0.23151,0.00330716)">
        <g
           id="g1887"
           transform="translate(0,13.852)">
          <path
             d="m 9.96875,-3.328125 c 0.015625,-0.046875 0.0625,-0.140625 0.0625,-0.203125 0,-0.0625 -0.0625,-0.140625 -0.140625,-0.140625 -0.0625,0 -0.09375,0.015625 -0.140625,0.0625 -0.03125,0.015625 -0.03125,0.03125 -0.15625,0.328125 -0.84375,2 -1.453125,2.859375 -3.75,2.859375 H 3.75 c -0.203125,0 -0.234375,0 -0.328125,-0.015625 -0.15625,0 -0.171875,-0.03125 -0.171875,-0.15625 0,-0.09375 0.03125,-0.1875 0.0625,-0.3125 L 4.296875,-4.859375 H 5.71875 c 1.125,0 1.203125,0.234375 1.203125,0.671875 0,0.140625 0,0.265625 -0.09375,0.703125 -0.03125,0.0625 -0.046875,0.109375 -0.046875,0.15625 0,0.09375 0.078125,0.140625 0.15625,0.140625 0.140625,0 0.140625,-0.09375 0.203125,-0.296875 l 0.8125,-3.328125 c 0,-0.078125 -0.046875,-0.140625 -0.140625,-0.140625 -0.125,0 -0.140625,0.046875 -0.203125,0.25 -0.28125,1.109375 -0.5625,1.421875 -1.84375,1.421875 H 4.40625 L 5.296875,-8.8125 c 0.125,-0.5 0.15625,-0.546875 0.734375,-0.546875 h 2.0625 c 1.765625,0 2.125,0.484375 2.125,1.578125 0,0 0,0.40625 -0.0625,0.875 -0.01563,0.0625 -0.03125,0.15625 -0.03125,0.171875 0,0.125 0.07813,0.171875 0.15625,0.171875 0.109375,0 0.15625,-0.0625 0.1875,-0.328125 l 0.296875,-2.5 c 0,-0.046875 0.03125,-0.1875 0.03125,-0.21875 0,-0.15625 -0.125,-0.15625 -0.390625,-0.15625 h -7 c -0.265625,0 -0.40625,0 -0.40625,0.25 0,0.15625 0.09375,0.15625 0.34375,0.15625 0.890625,0 0.890625,0.109375 0.890625,0.265625 0,0.078125 -0.015625,0.125 -0.0625,0.28125 l -1.9375,7.75 c -0.125,0.5 -0.15625,0.640625 -1.15625,0.640625 -0.28125,0 -0.421875,0 -0.421875,0.265625 C 0.65625,0 0.75,0 1.03125,0 H 8.234375 C 8.546875,0 8.5625,-0.015625 8.65625,-0.25 Z m 0,0"
             id="path42" />
        </g>
      </g>
      <g
         clip-path="url(#clipPath9523)"
         id="g1894"
         transform="matrix(0.352778,0,0,0.352778,-0.23151,0.00330716)">
        <g
           fill="#000000"
           fill-opacity="1"
           id="g30">
          <g
             id="use28"
             transform="translate(10.398,16.105)">
            <path
               d="m 3.09375,-6.8125 c 0,-0.21875 -0.15625,-0.390625 -0.40625,-0.390625 -0.28125,0 -0.578125,0.28125 -0.578125,0.578125 0,0.203125 0.140625,0.390625 0.40625,0.390625 0.25,0 0.578125,-0.25 0.578125,-0.578125 z m -0.828125,4.09375 c 0.140625,-0.3125 0.140625,-0.328125 0.25,-0.625 0.078125,-0.21875 0.140625,-0.375 0.140625,-0.578125 0,-0.5 -0.359375,-0.90625 -0.90625,-0.90625 -1.015625,0 -1.4375,1.59375 -1.4375,1.6875 0,0.109375 0.109375,0.109375 0.140625,0.109375 0.109375,0 0.109375,-0.015625 0.171875,-0.203125 0.296875,-1.015625 0.734375,-1.34375 1.09375,-1.34375 0.09375,0 0.28125,0 0.28125,0.34375 C 2,-4 1.921875,-3.78125 1.875,-3.671875 1.78125,-3.375 1.296875,-2.109375 1.125,-1.640625 1.015625,-1.359375 0.875,-1 0.875,-0.78125 c 0,0.515625 0.375,0.90625 0.890625,0.90625 1.03125,0 1.4375,-1.59375 1.4375,-1.6875 0,-0.109375 -0.109375,-0.109375 -0.140625,-0.109375 -0.109375,0 -0.109375,0.03125 -0.15625,0.203125 -0.203125,0.6875 -0.5625,1.34375 -1.125,1.34375 -0.171875,0 -0.25,-0.109375 -0.25,-0.359375 0,-0.265625 0.0625,-0.421875 0.3125,-1.09375 z m 0,0"
               id="path46" />
          </g>
        </g>
      </g>
    </g>
    <g
       inkscape:label=""
       transform="translate(53.032294,189.30249)"
       id="g2190">
      <g
         fill="#000000"
         fill-opacity="1"
         id="g2174"
         transform="matrix(0.352778,0,0,0.352778,-0.23151,0.00295457)">
        <g
           id="g2172"
           transform="translate(2.175,10.226)">
          <path
             d="M 7.671875,-8.5625 C 7.5,-8.40625 6.96875,-7.90625 6.96875,-7.703125 c 0,0.140625 0.125,0.265625 0.28125,0.265625 0.125,0 0.1875,-0.078125 0.28125,-0.21875 0.34375,-0.4375 0.734375,-0.703125 1.0625,-0.890625 0.140625,-0.09375 0.234375,-0.125 0.234375,-0.28125 0,-0.140625 -0.109375,-0.203125 -0.1875,-0.28125 C 8.234375,-9.375 8.140625,-9.765625 8.09375,-9.9375 8.046875,-10.0625 8,-10.234375 7.796875,-10.234375 c -0.078125,0 -0.25,0.0625 -0.25,0.28125 0,0.125 0.078125,0.46875 0.359375,0.859375 H 3.078125 c -0.234375,0 -0.484375,0 -0.484375,0.265625 0,0.265625 0.265625,0.265625 0.484375,0.265625 z m 0,0"
             id="path2170" />
        </g>
      </g>
      <g
         fill="#000000"
         fill-opacity="1"
         id="g2180"
         transform="matrix(0.352778,0,0,0.352778,-0.23151,0.00295457)">
        <g
           id="g2178"
           transform="translate(0,13.852)">
          <path
             d="m 9.96875,-3.328125 c 0.015625,-0.046875 0.0625,-0.140625 0.0625,-0.203125 0,-0.0625 -0.0625,-0.140625 -0.140625,-0.140625 -0.0625,0 -0.09375,0.015625 -0.140625,0.0625 -0.03125,0.015625 -0.03125,0.03125 -0.15625,0.328125 -0.84375,2 -1.453125,2.859375 -3.75,2.859375 H 3.75 c -0.203125,0 -0.234375,0 -0.328125,-0.015625 -0.15625,0 -0.171875,-0.03125 -0.171875,-0.15625 0,-0.09375 0.03125,-0.1875 0.0625,-0.3125 L 4.296875,-4.859375 H 5.71875 c 1.125,0 1.203125,0.234375 1.203125,0.671875 0,0.140625 0,0.265625 -0.09375,0.703125 -0.03125,0.0625 -0.046875,0.109375 -0.046875,0.15625 0,0.09375 0.078125,0.140625 0.15625,0.140625 0.140625,0 0.140625,-0.09375 0.203125,-0.296875 l 0.8125,-3.328125 c 0,-0.078125 -0.046875,-0.140625 -0.140625,-0.140625 -0.125,0 -0.140625,0.046875 -0.203125,0.25 -0.28125,1.109375 -0.5625,1.421875 -1.84375,1.421875 H 4.40625 L 5.296875,-8.8125 c 0.125,-0.5 0.15625,-0.546875 0.734375,-0.546875 h 2.0625 c 1.765625,0 2.125,0.484375 2.125,1.578125 0,0 0,0.40625 -0.0625,0.875 -0.01563,0.0625 -0.03125,0.15625 -0.03125,0.171875 0,0.125 0.07813,0.171875 0.15625,0.171875 0.109375,0 0.15625,-0.0625 0.1875,-0.328125 l 0.296875,-2.5 c 0,-0.046875 0.03125,-0.1875 0.03125,-0.21875 0,-0.15625 -0.125,-0.15625 -0.390625,-0.15625 h -7 c -0.265625,0 -0.40625,0 -0.40625,0.25 0,0.15625 0.09375,0.15625 0.34375,0.15625 0.890625,0 0.890625,0.109375 0.890625,0.265625 0,0.078125 -0.015625,0.125 -0.0625,0.28125 l -1.9375,7.75 c -0.125,0.5 -0.15625,0.640625 -1.15625,0.640625 -0.28125,0 -0.421875,0 -0.421875,0.265625 C 0.65625,0 0.75,0 1.03125,0 H 8.234375 C 8.546875,0 8.5625,-0.015625 8.65625,-0.25 Z m 0,0"
             id="path2176" />
        </g>
      </g>
      <g
         clip-path="url(#clipPath8635)"
         id="g2188"
         transform="matrix(0.352778,0,0,0.352778,-0.23151,0.00295457)">
        <g
           fill="#000000"
           fill-opacity="1"
           id="g2186">
          <g
             id="g2184"
             transform="translate(10.398,16.004)">
            <path
               d="m 0.953125,-0.640625 c -0.03125,0.15625 -0.09375,0.40625 -0.09375,0.46875 0,0.1875 0.15625,0.296875 0.3125,0.296875 0.140625,0 0.328125,-0.09375 0.40625,-0.3125 0.03125,-0.046875 0.390625,-1.53125 0.4375,-1.71875 0.09375,-0.359375 0.28125,-1.125 0.34375,-1.421875 C 2.40625,-3.46875 2.71875,-3.984375 2.984375,-4.21875 3.0625,-4.296875 3.375,-4.578125 3.84375,-4.578125 c 0.296875,0 0.453125,0.125 0.46875,0.125 -0.328125,0.0625 -0.578125,0.3125 -0.578125,0.609375 0,0.171875 0.125,0.375 0.421875,0.375 0.296875,0 0.59375,-0.25 0.59375,-0.640625 0,-0.390625 -0.34375,-0.71875 -0.90625,-0.71875 -0.703125,0 -1.1875,0.546875 -1.390625,0.84375 -0.09375,-0.484375 -0.484375,-0.84375 -0.984375,-0.84375 -0.515625,0 -0.71875,0.4375 -0.8125,0.625 -0.203125,0.375 -0.34375,1.03125 -0.34375,1.0625 0,0.109375 0.109375,0.109375 0.140625,0.109375 0.109375,0 0.109375,-0.015625 0.171875,-0.25 0.1875,-0.78125 0.40625,-1.296875 0.796875,-1.296875 0.1875,0 0.34375,0.078125 0.34375,0.5 0,0.234375 -0.03125,0.34375 -0.171875,0.921875 z m 0,0"
               id="path2182" />
          </g>
        </g>
      </g>
    </g>
    <g
       inkscape:label=""
       transform="translate(56.024712,199.6097)"
       id="g2510">
      <g
         fill="#000000"
         fill-opacity="1"
         id="g2494"
         transform="matrix(0.352778,0,0,0.352778,-0.23151,0.00295457)">
        <g
           id="g2492"
           transform="translate(2.539,10.226)">
          <path
             d="M 7.671875,-8.5625 C 7.5,-8.40625 6.96875,-7.90625 6.96875,-7.703125 c 0,0.140625 0.125,0.265625 0.28125,0.265625 0.125,0 0.1875,-0.078125 0.28125,-0.21875 0.34375,-0.4375 0.734375,-0.703125 1.0625,-0.890625 0.140625,-0.09375 0.234375,-0.125 0.234375,-0.28125 0,-0.140625 -0.109375,-0.203125 -0.1875,-0.28125 C 8.234375,-9.375 8.140625,-9.765625 8.09375,-9.9375 8.046875,-10.0625 8,-10.234375 7.796875,-10.234375 c -0.078125,0 -0.25,0.0625 -0.25,0.28125 0,0.125 0.078125,0.46875 0.359375,0.859375 H 3.078125 c -0.234375,0 -0.484375,0 -0.484375,0.265625 0,0.265625 0.265625,0.265625 0.484375,0.265625 z m 0,0"
             id="path2490" />
        </g>
      </g>
      <g
         fill="#000000"
         fill-opacity="1"
         id="g2500"
         transform="matrix(0.352778,0,0,0.352778,-0.23151,0.00295457)">
        <g
           id="g2498"
           transform="translate(0,13.852)">
          <path
             d="m 10.734375,-8.75 c 0.125,-0.484375 0.15625,-0.625 1.171875,-0.625 0.25,0 0.40625,0 0.40625,-0.265625 0,-0.15625 -0.140625,-0.15625 -0.21875,-0.15625 -0.265625,0 -0.5625,0.03125 -0.828125,0.03125 H 9.5625 c -0.265625,0 -0.5625,-0.03125 -0.84375,-0.03125 -0.09375,0 -0.265625,0 -0.265625,0.265625 0,0.15625 0.09375,0.15625 0.375,0.15625 0.859375,0 0.859375,0.109375 0.859375,0.265625 0,0.03125 0,0.109375 -0.0625,0.328125 L 8.75,-5.3125 H 4.421875 L 5.28125,-8.75 c 0.125,-0.484375 0.15625,-0.625 1.171875,-0.625 0.265625,0 0.40625,0 0.40625,-0.265625 0,-0.15625 -0.125,-0.15625 -0.21875,-0.15625 -0.25,0 -0.5625,0.03125 -0.828125,0.03125 H 4.109375 c -0.265625,0 -0.5625,-0.03125 -0.84375,-0.03125 -0.09375,0 -0.265625,0 -0.265625,0.265625 0,0.15625 0.09375,0.15625 0.375,0.15625 0.859375,0 0.859375,0.109375 0.859375,0.265625 0,0.03125 0,0.109375 -0.0625,0.328125 l -1.9375,7.71875 c -0.125,0.5 -0.15625,0.640625 -1.140625,0.640625 -0.328125,0 -0.4375,0 -0.4375,0.28125 C 0.65625,0 0.8125,0 0.859375,0 1.125,0 1.421875,-0.03125 1.6875,-0.03125 H 3.390625 C 3.65625,-0.03125 3.953125,0 4.234375,0 4.34375,0 4.5,0 4.5,-0.265625 c 0,-0.15625 -0.125,-0.15625 -0.34375,-0.15625 -0.875,0 -0.875,-0.109375 -0.875,-0.25 0,-0.015625 0,-0.109375 0.03125,-0.234375 L 4.296875,-4.890625 H 8.65625 c -0.25,0.953125 -0.984375,3.9375 -1.015625,4.03125 -0.15625,0.421875 -0.375,0.421875 -1.234375,0.4375 -0.171875,0 -0.296875,0 -0.296875,0.28125 C 6.109375,0 6.265625,0 6.3125,0 6.5625,0 6.875,-0.03125 7.140625,-0.03125 h 1.6875 C 9.109375,-0.03125 9.40625,0 9.6875,0 c 0.109375,0 0.265625,0 0.265625,-0.265625 0,-0.15625 -0.125,-0.15625 -0.34375,-0.15625 -0.875,0 -0.875,-0.109375 -0.875,-0.25 0,-0.015625 0,-0.109375 0.03125,-0.234375 z m 0,0"
             id="path2496" />
        </g>
      </g>
      <g
         clip-path="url(#clipPath6126)"
         id="g2508"
         transform="matrix(0.352778,0,0,0.352778,-0.23151,0.00295457)">
        <g
           fill="#000000"
           fill-opacity="1"
           id="g2506">
          <g
             id="g2504"
             transform="translate(11.639,16.004)">
            <path
               d="m 0.953125,-0.640625 c -0.03125,0.15625 -0.09375,0.40625 -0.09375,0.46875 0,0.1875 0.15625,0.296875 0.3125,0.296875 0.140625,0 0.328125,-0.09375 0.40625,-0.3125 0.03125,-0.046875 0.390625,-1.53125 0.4375,-1.71875 0.09375,-0.359375 0.28125,-1.125 0.34375,-1.421875 C 2.40625,-3.46875 2.71875,-3.984375 2.984375,-4.21875 3.0625,-4.296875 3.375,-4.578125 3.84375,-4.578125 c 0.296875,0 0.453125,0.125 0.46875,0.125 -0.328125,0.0625 -0.578125,0.3125 -0.578125,0.609375 0,0.171875 0.125,0.375 0.421875,0.375 0.296875,0 0.59375,-0.25 0.59375,-0.640625 0,-0.390625 -0.34375,-0.71875 -0.90625,-0.71875 -0.703125,0 -1.1875,0.546875 -1.390625,0.84375 -0.09375,-0.484375 -0.484375,-0.84375 -0.984375,-0.84375 -0.515625,0 -0.71875,0.4375 -0.8125,0.625 -0.203125,0.375 -0.34375,1.03125 -0.34375,1.0625 0,0.109375 0.109375,0.109375 0.140625,0.109375 0.109375,0 0.109375,-0.015625 0.171875,-0.25 0.1875,-0.78125 0.40625,-1.296875 0.796875,-1.296875 0.1875,0 0.34375,0.078125 0.34375,0.5 0,0.234375 -0.03125,0.34375 -0.171875,0.921875 z m 0,0"
               id="path2502" />
          </g>
        </g>
      </g>
    </g>
    <g
       inkscape:label=""
       transform="translate(69.324346,254.1382)"
       id="g2856">
      <g
         fill="#000000"
         fill-opacity="1"
         id="g2840"
         transform="matrix(0.352778,0,0,0.352778,-0.23151,0.00330716)">
        <g
           id="g2838"
           transform="translate(2.539,10.225)">
          <path
             d="M 7.671875,-8.5625 C 7.5,-8.40625 6.96875,-7.90625 6.96875,-7.703125 c 0,0.140625 0.125,0.265625 0.28125,0.265625 0.125,0 0.1875,-0.078125 0.28125,-0.21875 0.34375,-0.4375 0.734375,-0.703125 1.0625,-0.890625 0.140625,-0.09375 0.234375,-0.125 0.234375,-0.28125 0,-0.140625 -0.109375,-0.203125 -0.1875,-0.28125 C 8.234375,-9.375 8.140625,-9.765625 8.09375,-9.9375 8.046875,-10.0625 8,-10.234375 7.796875,-10.234375 c -0.078125,0 -0.25,0.0625 -0.25,0.28125 0,0.125 0.078125,0.46875 0.359375,0.859375 H 3.078125 c -0.234375,0 -0.484375,0 -0.484375,0.265625 0,0.265625 0.265625,0.265625 0.484375,0.265625 z m 0,0"
             id="path2836" />
        </g>
      </g>
      <g
         fill="#000000"
         fill-opacity="1"
         id="g2846"
         transform="matrix(0.352778,0,0,0.352778,-0.23151,0.00330716)">
        <g
           id="g2844"
           transform="translate(0,13.852)">
          <path
             d="m 10.734375,-8.75 c 0.125,-0.484375 0.15625,-0.625 1.171875,-0.625 0.25,0 0.40625,0 0.40625,-0.265625 0,-0.15625 -0.140625,-0.15625 -0.21875,-0.15625 -0.265625,0 -0.5625,0.03125 -0.828125,0.03125 H 9.5625 c -0.265625,0 -0.5625,-0.03125 -0.84375,-0.03125 -0.09375,0 -0.265625,0 -0.265625,0.265625 0,0.15625 0.09375,0.15625 0.375,0.15625 0.859375,0 0.859375,0.109375 0.859375,0.265625 0,0.03125 0,0.109375 -0.0625,0.328125 L 8.75,-5.3125 H 4.421875 L 5.28125,-8.75 c 0.125,-0.484375 0.15625,-0.625 1.171875,-0.625 0.265625,0 0.40625,0 0.40625,-0.265625 0,-0.15625 -0.125,-0.15625 -0.21875,-0.15625 -0.25,0 -0.5625,0.03125 -0.828125,0.03125 H 4.109375 c -0.265625,0 -0.5625,-0.03125 -0.84375,-0.03125 -0.09375,0 -0.265625,0 -0.265625,0.265625 0,0.15625 0.09375,0.15625 0.375,0.15625 0.859375,0 0.859375,0.109375 0.859375,0.265625 0,0.03125 0,0.109375 -0.0625,0.328125 l -1.9375,7.71875 c -0.125,0.5 -0.15625,0.640625 -1.140625,0.640625 -0.328125,0 -0.4375,0 -0.4375,0.28125 C 0.65625,0 0.8125,0 0.859375,0 1.125,0 1.421875,-0.03125 1.6875,-0.03125 H 3.390625 C 3.65625,-0.03125 3.953125,0 4.234375,0 4.34375,0 4.5,0 4.5,-0.265625 c 0,-0.15625 -0.125,-0.15625 -0.34375,-0.15625 -0.875,0 -0.875,-0.109375 -0.875,-0.25 0,-0.015625 0,-0.109375 0.03125,-0.234375 L 4.296875,-4.890625 H 8.65625 c -0.25,0.953125 -0.984375,3.9375 -1.015625,4.03125 -0.15625,0.421875 -0.375,0.421875 -1.234375,0.4375 -0.171875,0 -0.296875,0 -0.296875,0.28125 C 6.109375,0 6.265625,0 6.3125,0 6.5625,0 6.875,-0.03125 7.140625,-0.03125 h 1.6875 C 9.109375,-0.03125 9.40625,0 9.6875,0 c 0.109375,0 0.265625,0 0.265625,-0.265625 0,-0.15625 -0.125,-0.15625 -0.34375,-0.15625 -0.875,0 -0.875,-0.109375 -0.875,-0.25 0,-0.015625 0,-0.109375 0.03125,-0.234375 z m 0,0"
             id="path2842" />
        </g>
      </g>
      <g
         clip-path="url(#clipPath223)"
         id="g2854"
         transform="matrix(0.352778,0,0,0.352778,-0.23151,0.00330716)">
        <g
           fill="#000000"
           fill-opacity="1"
           id="g2852">
          <g
             id="g2850"
             transform="translate(11.639,16.105)">
            <path
               d="m 3.09375,-6.8125 c 0,-0.21875 -0.15625,-0.390625 -0.40625,-0.390625 -0.28125,0 -0.578125,0.28125 -0.578125,0.578125 0,0.203125 0.140625,0.390625 0.40625,0.390625 0.25,0 0.578125,-0.25 0.578125,-0.578125 z m -0.828125,4.09375 c 0.140625,-0.3125 0.140625,-0.328125 0.25,-0.625 0.078125,-0.21875 0.140625,-0.375 0.140625,-0.578125 0,-0.5 -0.359375,-0.90625 -0.90625,-0.90625 -1.015625,0 -1.4375,1.59375 -1.4375,1.6875 0,0.109375 0.109375,0.109375 0.140625,0.109375 0.109375,0 0.109375,-0.015625 0.171875,-0.203125 0.296875,-1.015625 0.734375,-1.34375 1.09375,-1.34375 0.09375,0 0.28125,0 0.28125,0.34375 C 2,-4 1.921875,-3.78125 1.875,-3.671875 1.78125,-3.375 1.296875,-2.109375 1.125,-1.640625 1.015625,-1.359375 0.875,-1 0.875,-0.78125 c 0,0.515625 0.375,0.90625 0.890625,0.90625 1.03125,0 1.4375,-1.59375 1.4375,-1.6875 0,-0.109375 -0.109375,-0.109375 -0.140625,-0.109375 -0.109375,0 -0.109375,0.03125 -0.15625,0.203125 -0.203125,0.6875 -0.5625,1.34375 -1.125,1.34375 -0.171875,0 -0.25,-0.109375 -0.25,-0.359375 0,-0.265625 0.0625,-0.421875 0.3125,-1.09375 z m 0,0"
               id="path2848" />
          </g>
        </g>
      </g>
    </g>
    <g
       inkscape:label=""
       transform="translate(61.012074,239.50861)"
       id="g3225">
      <g
         fill="#000000"
         fill-opacity="1"
         id="g3211"
         transform="matrix(0.352778,0,0,0.352778,-0.137804,-0.00348379)">
        <g
           id="g3209"
           transform="translate(0.68099999,9.9630003)">
          <path
             d="M 3.515625,-9.953125 1.640625,-8 1.859375,-7.78125 3.5,-9.265625 5.15625,-7.78125 5.375,-8 Z m 0,0"
             id="path39" />
        </g>
      </g>
      <g
         fill="#000000"
         fill-opacity="1"
         id="g3216"
         transform="matrix(0.352778,0,0,0.352778,-0.137804,-0.00348379)">
        <g
           id="use25"
           transform="translate(0,9.9630003)">
          <path
             d="M 2.953125,-4.203125 C 2.984375,-4.28125 3.34375,-5 3.875,-5.46875 c 0.375,-0.34375 0.859375,-0.5625 1.421875,-0.5625 0.5625,0 0.765625,0.421875 0.765625,1 0,0.8125 -0.578125,2.453125 -0.875,3.21875 -0.125,0.34375 -0.203125,0.53125 -0.203125,0.796875 0,0.640625 0.453125,1.15625 1.140625,1.15625 1.328125,0 1.828125,-2.109375 1.828125,-2.1875 C 7.953125,-2.125 7.90625,-2.1875 7.8125,-2.1875 c -0.125,0 -0.140625,0.046875 -0.203125,0.296875 -0.34375,1.171875 -0.875,1.75 -1.4375,1.75 -0.140625,0 -0.375,-0.015625 -0.375,-0.46875 0,-0.359375 0.15625,-0.796875 0.234375,-1 C 6.328125,-2.390625 6.921875,-4 6.921875,-4.8125 c 0,-0.875 -0.5,-1.515625 -1.59375,-1.515625 -1.265625,0 -1.9375,0.90625 -2.203125,1.265625 C 3.078125,-5.875 2.5,-6.328125 1.859375,-6.328125 c -0.453125,0 -0.765625,0.28125 -1.015625,0.765625 -0.25,0.515625 -0.453125,1.375 -0.453125,1.4375 0,0.046875 0.046875,0.125 0.15625,0.125 0.109375,0 0.125,-0.015625 0.21875,-0.34375 0.21875,-0.875 0.484375,-1.6875 1.0625,-1.6875 0.328125,0 0.4375,0.21875 0.4375,0.65625 0,0.3125 -0.140625,0.875 -0.25,1.3125 L 1.625,-2.515625 c -0.0625,0.28125 -0.21875,0.921875 -0.296875,1.1875 -0.09375,0.359375 -0.25,1.046875 -0.25,1.109375 0,0.203125 0.15625,0.359375 0.375,0.359375 0.171875,0 0.375,-0.078125 0.484375,-0.296875 0.03125,-0.078125 0.15625,-0.578125 0.234375,-0.859375 l 0.3125,-1.296875 z m 0,0"
             id="path3213" />
        </g>
      </g>
      <g
         clip-path="url(#clipPath6047)"
         id="g33"
         transform="matrix(0.352778,0,0,0.352778,-0.137804,-0.00348379)">
        <g
           fill="#000000"
           fill-opacity="1"
           id="g3222">
          <g
             id="g3220"
             transform="translate(8.3850002,12.216)">
            <path
               d="m 3.09375,-6.8125 c 0,-0.21875 -0.15625,-0.390625 -0.40625,-0.390625 -0.28125,0 -0.578125,0.28125 -0.578125,0.578125 0,0.203125 0.140625,0.390625 0.40625,0.390625 0.25,0 0.578125,-0.25 0.578125,-0.578125 z m -0.828125,4.09375 c 0.140625,-0.3125 0.140625,-0.328125 0.25,-0.625 0.078125,-0.21875 0.140625,-0.375 0.140625,-0.578125 0,-0.5 -0.359375,-0.90625 -0.90625,-0.90625 -1.015625,0 -1.4375,1.59375 -1.4375,1.6875 0,0.109375 0.109375,0.109375 0.140625,0.109375 0.109375,0 0.109375,-0.015625 0.171875,-0.203125 0.296875,-1.015625 0.734375,-1.34375 1.09375,-1.34375 0.09375,0 0.28125,0 0.28125,0.34375 C 2,-4 1.921875,-3.78125 1.875,-3.671875 1.78125,-3.375 1.296875,-2.109375 1.125,-1.640625 1.015625,-1.359375 0.875,-1 0.875,-0.78125 c 0,0.515625 0.375,0.90625 0.890625,0.90625 1.03125,0 1.4375,-1.59375 1.4375,-1.6875 0,-0.109375 -0.109375,-0.109375 -0.140625,-0.109375 -0.109375,0 -0.109375,0.03125 -0.15625,0.203125 -0.203125,0.6875 -0.5625,1.34375 -1.125,1.34375 -0.171875,0 -0.25,-0.109375 -0.25,-0.359375 0,-0.265625 0.0625,-0.421875 0.3125,-1.09375 z m 0,0"
               id="path3218" />
          </g>
        </g>
      </g>
    </g>
    <g
       inkscape:label=""
       transform="translate(71.984273,197.28227)"
       id="g3623">
      <g
         fill="#000000"
         fill-opacity="1"
         id="g3607"
         transform="matrix(0.352778,0,0,0.352778,-0.137804,-0.00348379)">
        <g
           id="g3605"
           transform="translate(0.68099999,9.9630003)">
          <path
             d="M 3.515625,-9.953125 1.640625,-8 1.859375,-7.78125 3.5,-9.265625 5.15625,-7.78125 5.375,-8 Z m 0,0"
             id="path3603" />
        </g>
      </g>
      <g
         fill="#000000"
         fill-opacity="1"
         id="g3613"
         transform="matrix(0.352778,0,0,0.352778,-0.137804,-0.00348379)">
        <g
           id="g3611"
           transform="translate(0,9.9630003)">
          <path
             d="M 2.953125,-4.203125 C 2.984375,-4.28125 3.34375,-5 3.875,-5.46875 c 0.375,-0.34375 0.859375,-0.5625 1.421875,-0.5625 0.5625,0 0.765625,0.421875 0.765625,1 0,0.8125 -0.578125,2.453125 -0.875,3.21875 -0.125,0.34375 -0.203125,0.53125 -0.203125,0.796875 0,0.640625 0.453125,1.15625 1.140625,1.15625 1.328125,0 1.828125,-2.109375 1.828125,-2.1875 C 7.953125,-2.125 7.90625,-2.1875 7.8125,-2.1875 c -0.125,0 -0.140625,0.046875 -0.203125,0.296875 -0.34375,1.171875 -0.875,1.75 -1.4375,1.75 -0.140625,0 -0.375,-0.015625 -0.375,-0.46875 0,-0.359375 0.15625,-0.796875 0.234375,-1 C 6.328125,-2.390625 6.921875,-4 6.921875,-4.8125 c 0,-0.875 -0.5,-1.515625 -1.59375,-1.515625 -1.265625,0 -1.9375,0.90625 -2.203125,1.265625 C 3.078125,-5.875 2.5,-6.328125 1.859375,-6.328125 c -0.453125,0 -0.765625,0.28125 -1.015625,0.765625 -0.25,0.515625 -0.453125,1.375 -0.453125,1.4375 0,0.046875 0.046875,0.125 0.15625,0.125 0.109375,0 0.125,-0.015625 0.21875,-0.34375 0.21875,-0.875 0.484375,-1.6875 1.0625,-1.6875 0.328125,0 0.4375,0.21875 0.4375,0.65625 0,0.3125 -0.140625,0.875 -0.25,1.3125 L 1.625,-2.515625 c -0.0625,0.28125 -0.21875,0.921875 -0.296875,1.1875 -0.09375,0.359375 -0.25,1.046875 -0.25,1.109375 0,0.203125 0.15625,0.359375 0.375,0.359375 0.171875,0 0.375,-0.078125 0.484375,-0.296875 0.03125,-0.078125 0.15625,-0.578125 0.234375,-0.859375 l 0.3125,-1.296875 z m 0,0"
             id="path3609" />
        </g>
      </g>
      <g
         clip-path="url(#clipPath5290)"
         id="g3621"
         transform="matrix(0.352778,0,0,0.352778,-0.137804,-0.00348379)">
        <g
           fill="#000000"
           fill-opacity="1"
           id="g3619">
          <g
             id="g3617"
             transform="translate(8.3850002,12.115)">
            <path
               d="m 0.953125,-0.640625 c -0.03125,0.15625 -0.09375,0.40625 -0.09375,0.46875 0,0.1875 0.15625,0.296875 0.3125,0.296875 0.140625,0 0.328125,-0.09375 0.40625,-0.3125 0.03125,-0.046875 0.390625,-1.53125 0.4375,-1.71875 0.09375,-0.359375 0.28125,-1.125 0.34375,-1.421875 C 2.40625,-3.46875 2.71875,-3.984375 2.984375,-4.21875 3.0625,-4.296875 3.375,-4.578125 3.84375,-4.578125 c 0.296875,0 0.453125,0.125 0.46875,0.125 -0.328125,0.0625 -0.578125,0.3125 -0.578125,0.609375 0,0.171875 0.125,0.375 0.421875,0.375 0.296875,0 0.59375,-0.25 0.59375,-0.640625 0,-0.390625 -0.34375,-0.71875 -0.90625,-0.71875 -0.703125,0 -1.1875,0.546875 -1.390625,0.84375 -0.09375,-0.484375 -0.484375,-0.84375 -0.984375,-0.84375 -0.515625,0 -0.71875,0.4375 -0.8125,0.625 -0.203125,0.375 -0.34375,1.03125 -0.34375,1.0625 0,0.109375 0.109375,0.109375 0.140625,0.109375 0.109375,0 0.109375,-0.015625 0.171875,-0.25 0.1875,-0.78125 0.40625,-1.296875 0.796875,-1.296875 0.1875,0 0.34375,0.078125 0.34375,0.5 0,0.234375 -0.03125,0.34375 -0.171875,0.921875 z m 0,0"
               id="path3615" />
          </g>
        </g>
      </g>
    </g>
    <path
       style="fill:none;fill-rule:evenodd;stroke:#000000;stroke-width:0.264583"
       id="path3803"
       sodipodi:type="arc"
       sodipodi:cx="64.170738"
       sodipodi:cy="249.98175"
       sodipodi:rx="2.9924176"
       sodipodi:ry="2.8261721"
       sodipodi:start="1.6106912"
       sodipodi:end="1.5890331"
       sodipodi:open="true"
       sodipodi:arc-type="arc"
       d="m 64.051388,252.80567 a 2.9924176,2.8261721 0 0 1 -2.871289,-2.92135 2.9924176,2.8261721 0 0 1 3.077604,-2.72755 2.9924176,2.8261721 0 0 1 2.904616,2.89182 2.9924176,2.8261721 0 0 1 -3.04615,2.75886" />
    <path
       style="fill:none;fill-rule:evenodd;stroke:#000000;stroke-width:0.264583"
       id="path4359"
       sodipodi:type="arc"
       sodipodi:cx="62.508282"
       sodipodi:cy="196.7832"
       sodipodi:rx="3.6573994"
       sodipodi:ry="3.158663"
       sodipodi:start="1.6106912"
       sodipodi:end="1.5890331"
       sodipodi:open="true"
       sodipodi:arc-type="arc"
       d="m 62.362409,199.93935 a 3.6573994,3.158663 0 0 1 -3.509353,-3.26504 3.6573994,3.158663 0 0 1 3.761516,-3.04844 3.6573994,3.158663 0 0 1 3.550086,3.23203 3.6573994,3.158663 0 0 1 -3.723072,3.08344" />
    <path
       style="fill:none;fill-opacity:0.054902;stroke:#000000;stroke-width:1.1;stroke-opacity:0.991489"
       d="m 63.838243,249.8155 c 4.654872,5.98483 4.654872,5.98483 4.654872,5.98483 H 62.50828 l 5.652344,-0.33249 0.664983,-4.65487"
       id="path4361" />
    <path
       style="fill:none;fill-opacity:0.054902;stroke:#000000;stroke-width:1.1;stroke-opacity:0.991489"
       d="m 68.825607,240.83824 h 5.319852 l -0.997471,5.65235"
       id="path4363" />
    <path
       style="fill:none;fill-opacity:0.054902;stroke:#000000;stroke-width:1.1;stroke-opacity:0.991489"
       d="m 72.815497,207.92165 -2.327437,-4.65487 5.652344,1.66245"
       id="path4365" />
    <g
       inkscape:label=""
       transform="translate(80.629035,259.79055)"
       id="g5897">
      <g
         fill="#000000"
         fill-opacity="1"
         id="g5869"
         transform="matrix(0.352778,0,0,0.352778,-0.23151,-0.0135378)">
        <g
           id="g5867"
           transform="translate(0,9.8039999)">
          <path
             d="m 9.96875,-3.328125 c 0.015625,-0.046875 0.0625,-0.140625 0.0625,-0.203125 0,-0.0625 -0.0625,-0.140625 -0.140625,-0.140625 -0.0625,0 -0.09375,0.015625 -0.140625,0.0625 -0.03125,0.015625 -0.03125,0.03125 -0.15625,0.328125 -0.84375,2 -1.453125,2.859375 -3.75,2.859375 H 3.75 c -0.203125,0 -0.234375,0 -0.328125,-0.015625 -0.15625,0 -0.171875,-0.03125 -0.171875,-0.15625 0,-0.09375 0.03125,-0.1875 0.0625,-0.3125 L 4.296875,-4.859375 H 5.71875 c 1.125,0 1.203125,0.234375 1.203125,0.671875 0,0.140625 0,0.265625 -0.09375,0.703125 -0.03125,0.0625 -0.046875,0.109375 -0.046875,0.15625 0,0.09375 0.078125,0.140625 0.15625,0.140625 0.140625,0 0.140625,-0.09375 0.203125,-0.296875 l 0.8125,-3.328125 c 0,-0.078125 -0.046875,-0.140625 -0.140625,-0.140625 -0.125,0 -0.140625,0.046875 -0.203125,0.25 -0.28125,1.109375 -0.5625,1.421875 -1.84375,1.421875 H 4.40625 L 5.296875,-8.8125 c 0.125,-0.5 0.15625,-0.546875 0.734375,-0.546875 h 2.0625 c 1.765625,0 2.125,0.484375 2.125,1.578125 0,0 0,0.40625 -0.0625,0.875 -0.01563,0.0625 -0.03125,0.15625 -0.03125,0.171875 0,0.125 0.07813,0.171875 0.15625,0.171875 0.109375,0 0.15625,-0.0625 0.1875,-0.328125 l 0.296875,-2.5 c 0,-0.046875 0.03125,-0.1875 0.03125,-0.21875 0,-0.15625 -0.125,-0.15625 -0.390625,-0.15625 h -7 c -0.265625,0 -0.40625,0 -0.40625,0.25 0,0.15625 0.09375,0.15625 0.34375,0.15625 0.890625,0 0.890625,0.109375 0.890625,0.265625 0,0.078125 -0.015625,0.125 -0.0625,0.28125 l -1.9375,7.75 c -0.125,0.5 -0.15625,0.640625 -1.15625,0.640625 -0.28125,0 -0.421875,0 -0.421875,0.265625 C 0.65625,0 0.75,0 1.03125,0 H 8.234375 C 8.546875,0 8.5625,-0.015625 8.65625,-0.25 Z m 0,0"
             id="path85" />
        </g>
      </g>
      <g
         clip-path="url(#clipPath1003)"
         id="g5874"
         transform="matrix(0.352778,0,0,0.352778,-0.23151,-0.0135378)">
        <g
           fill="#000000"
           fill-opacity="1"
           id="g47">
          <g
             id="use45"
             transform="translate(10.398,12.057)">
            <path
               d="m 3.09375,-6.8125 c 0,-0.21875 -0.15625,-0.390625 -0.40625,-0.390625 -0.28125,0 -0.578125,0.28125 -0.578125,0.578125 0,0.203125 0.140625,0.390625 0.40625,0.390625 0.25,0 0.578125,-0.25 0.578125,-0.578125 z m -0.828125,4.09375 c 0.140625,-0.3125 0.140625,-0.328125 0.25,-0.625 0.078125,-0.21875 0.140625,-0.375 0.140625,-0.578125 0,-0.5 -0.359375,-0.90625 -0.90625,-0.90625 -1.015625,0 -1.4375,1.59375 -1.4375,1.6875 0,0.109375 0.109375,0.109375 0.140625,0.109375 0.109375,0 0.109375,-0.015625 0.171875,-0.203125 0.296875,-1.015625 0.734375,-1.34375 1.09375,-1.34375 0.09375,0 0.28125,0 0.28125,0.34375 C 2,-4 1.921875,-3.78125 1.875,-3.671875 1.78125,-3.375 1.296875,-2.109375 1.125,-1.640625 1.015625,-1.359375 0.875,-1 0.875,-0.78125 c 0,0.515625 0.375,0.90625 0.890625,0.90625 1.03125,0 1.4375,-1.59375 1.4375,-1.6875 0,-0.109375 -0.109375,-0.109375 -0.140625,-0.109375 -0.109375,0 -0.109375,0.03125 -0.15625,0.203125 -0.203125,0.6875 -0.5625,1.34375 -1.125,1.34375 -0.171875,0 -0.25,-0.109375 -0.25,-0.359375 0,-0.265625 0.0625,-0.421875 0.3125,-1.09375 z m 0,0"
               id="path89" />
          </g>
        </g>
      </g>
      <g
         clip-path="url(#clipPath7378)"
         id="g55"
         transform="matrix(0.352778,0,0,0.352778,-0.23151,-0.0135378)">
        <g
           fill="#000000"
           fill-opacity="1"
           id="g53">
          <g
             id="use51"
             transform="translate(14.157,12.057)">
            <path
               d="m 5.015625,-3.484375 c 0,-0.875 -0.046875,-1.75 -0.4375,-2.5625 -0.5,-1.046875 -1.390625,-1.21875 -1.859375,-1.21875 -0.640625,0 -1.4375,0.28125 -1.890625,1.296875 -0.34375,0.75 -0.40625,1.609375 -0.40625,2.484375 0,0.8125 0.046875,1.796875 0.5,2.625 0.46875,0.875 1.265625,1.09375 1.796875,1.09375 0.578125,0 1.421875,-0.21875 1.890625,-1.265625 0.359375,-0.75 0.40625,-1.59375 0.40625,-2.453125 z M 2.71875,0 C 2.296875,0 1.640625,-0.265625 1.453125,-1.3125 c -0.125,-0.65625 -0.125,-1.671875 -0.125,-2.3125 0,-0.6875 0,-1.40625 0.09375,-2 C 1.625,-6.921875 2.4375,-7.03125 2.71875,-7.03125 c 0.359375,0 1.078125,0.203125 1.28125,1.28125 0.109375,0.609375 0.109375,1.4375 0.109375,2.125 0,0.828125 0,1.5625 -0.125,2.265625 C 3.828125,-0.328125 3.203125,0 2.71875,0 Z m 0,0"
               id="path93" />
          </g>
        </g>
      </g>
      <g
         fill="#000000"
         fill-opacity="1"
         id="g59"
         transform="matrix(0.352778,0,0,0.352778,-0.23151,-0.0135378)">
        <g
           id="use57"
           transform="translate(24.094,9.8039999)">
          <path
             d="m 9.6875,-4.640625 c 0.203125,0 0.453125,0 0.453125,-0.265625 0,-0.265625 -0.25,-0.265625 -0.453125,-0.265625 H 1.234375 c -0.203125,0 -0.453125,0 -0.453125,0.25 0,0.28125 0.234375,0.28125 0.453125,0.28125 z m 0,2.65625 c 0.203125,0 0.453125,0 0.453125,-0.25 0,-0.28125 -0.25,-0.28125 -0.453125,-0.28125 H 1.234375 c -0.203125,0 -0.453125,0 -0.453125,0.265625 0,0.265625 0.234375,0.265625 0.453125,0.265625 z m 0,0"
             id="path97" />
        </g>
      </g>
      <g
         fill="#000000"
         fill-opacity="1"
         id="g63"
         transform="matrix(0.352778,0,0,0.352778,-0.23151,-0.0135378)">
        <g
           id="use61"
           transform="translate(39.005001,9.8039999)">
          <path
             d="m 9.453125,-3.296875 c 0.25,0 0.5,0 0.5,-0.28125 0,-0.296875 -0.25,-0.296875 -0.5,-0.296875 H 1.6875 c -0.234375,0 -0.5,0 -0.5,0.296875 0,0.28125 0.265625,0.28125 0.5,0.28125 z m 0,0"
             id="path101" />
        </g>
      </g>
      <g
         fill="#000000"
         fill-opacity="1"
         id="g67"
         transform="matrix(0.352778,0,0,0.352778,-0.23151,-0.0135378)">
        <g
           id="use65"
           transform="translate(50.162998,9.8039999)">
          <path
             d="m 9.96875,-3.328125 c 0.015625,-0.046875 0.0625,-0.140625 0.0625,-0.203125 0,-0.0625 -0.0625,-0.140625 -0.140625,-0.140625 -0.0625,0 -0.09375,0.015625 -0.140625,0.0625 -0.03125,0.015625 -0.03125,0.03125 -0.15625,0.328125 -0.84375,2 -1.453125,2.859375 -3.75,2.859375 H 3.75 c -0.203125,0 -0.234375,0 -0.328125,-0.015625 -0.15625,0 -0.171875,-0.03125 -0.171875,-0.15625 0,-0.09375 0.03125,-0.1875 0.0625,-0.3125 L 4.296875,-4.859375 H 5.71875 c 1.125,0 1.203125,0.234375 1.203125,0.671875 0,0.140625 0,0.265625 -0.09375,0.703125 -0.03125,0.0625 -0.046875,0.109375 -0.046875,0.15625 0,0.09375 0.078125,0.140625 0.15625,0.140625 0.140625,0 0.140625,-0.09375 0.203125,-0.296875 l 0.8125,-3.328125 c 0,-0.078125 -0.046875,-0.140625 -0.140625,-0.140625 -0.125,0 -0.140625,0.046875 -0.203125,0.25 -0.28125,1.109375 -0.5625,1.421875 -1.84375,1.421875 H 4.40625 L 5.296875,-8.8125 c 0.125,-0.5 0.15625,-0.546875 0.734375,-0.546875 h 2.0625 c 1.765625,0 2.125,0.484375 2.125,1.578125 0,0 0,0.40625 -0.0625,0.875 -0.01563,0.0625 -0.03125,0.15625 -0.03125,0.171875 0,0.125 0.07813,0.171875 0.15625,0.171875 0.109375,0 0.15625,-0.0625 0.1875,-0.328125 l 0.296875,-2.5 c 0,-0.046875 0.03125,-0.1875 0.03125,-0.21875 0,-0.15625 -0.125,-0.15625 -0.390625,-0.15625 h -7 c -0.265625,0 -0.40625,0 -0.40625,0.25 0,0.15625 0.09375,0.15625 0.34375,0.15625 0.890625,0 0.890625,0.109375 0.890625,0.265625 0,0.078125 -0.015625,0.125 -0.0625,0.28125 l -1.9375,7.75 c -0.125,0.5 -0.15625,0.640625 -1.15625,0.640625 -0.28125,0 -0.421875,0 -0.421875,0.265625 C 0.65625,0 0.75,0 1.03125,0 H 8.234375 C 8.546875,0 8.5625,-0.015625 8.65625,-0.25 Z m 0,0"
             id="path105" />
        </g>
      </g>
      <g
         clip-path="url(#clipPath5972)"
         id="g73"
         transform="matrix(0.352778,0,0,0.352778,-0.23151,-0.0135378)">
        <g
           fill="#000000"
           fill-opacity="1"
           id="g71">
          <g
             id="use69"
             transform="translate(60.562,11.956)">
            <path
               d="m 0.953125,-0.640625 c -0.03125,0.15625 -0.09375,0.40625 -0.09375,0.46875 0,0.1875 0.15625,0.296875 0.3125,0.296875 0.140625,0 0.328125,-0.09375 0.40625,-0.3125 0.03125,-0.046875 0.390625,-1.53125 0.4375,-1.71875 0.09375,-0.359375 0.28125,-1.125 0.34375,-1.421875 C 2.40625,-3.46875 2.71875,-3.984375 2.984375,-4.21875 3.0625,-4.296875 3.375,-4.578125 3.84375,-4.578125 c 0.296875,0 0.453125,0.125 0.46875,0.125 -0.328125,0.0625 -0.578125,0.3125 -0.578125,0.609375 0,0.171875 0.125,0.375 0.421875,0.375 0.296875,0 0.59375,-0.25 0.59375,-0.640625 0,-0.390625 -0.34375,-0.71875 -0.90625,-0.71875 -0.703125,0 -1.1875,0.546875 -1.390625,0.84375 -0.09375,-0.484375 -0.484375,-0.84375 -0.984375,-0.84375 -0.515625,0 -0.71875,0.4375 -0.8125,0.625 -0.203125,0.375 -0.34375,1.03125 -0.34375,1.0625 0,0.109375 0.109375,0.109375 0.140625,0.109375 0.109375,0 0.109375,-0.015625 0.171875,-0.25 0.1875,-0.78125 0.40625,-1.296875 0.796875,-1.296875 0.1875,0 0.34375,0.078125 0.34375,0.5 0,0.234375 -0.03125,0.34375 -0.171875,0.921875 z m 0,0"
               id="path109" />
          </g>
        </g>
      </g>
      <g
         clip-path="url(#clipPath6347)"
         id="g79"
         transform="matrix(0.352778,0,0,0.352778,-0.23151,-0.0135378)">
        <g
           fill="#000000"
           fill-opacity="1"
           id="g77">
          <g
             id="use75"
             transform="translate(65.786003,11.956)">
            <path
               d="m 5.015625,-3.484375 c 0,-0.875 -0.046875,-1.75 -0.4375,-2.5625 -0.5,-1.046875 -1.390625,-1.21875 -1.859375,-1.21875 -0.640625,0 -1.4375,0.28125 -1.890625,1.296875 -0.34375,0.75 -0.40625,1.609375 -0.40625,2.484375 0,0.8125 0.046875,1.796875 0.5,2.625 0.46875,0.875 1.265625,1.09375 1.796875,1.09375 0.578125,0 1.421875,-0.21875 1.890625,-1.265625 0.359375,-0.75 0.40625,-1.59375 0.40625,-2.453125 z M 2.71875,0 C 2.296875,0 1.640625,-0.265625 1.453125,-1.3125 c -0.125,-0.65625 -0.125,-1.671875 -0.125,-2.3125 0,-0.6875 0,-1.40625 0.09375,-2 C 1.625,-6.921875 2.4375,-7.03125 2.71875,-7.03125 c 0.359375,0 1.078125,0.203125 1.28125,1.28125 0.109375,0.609375 0.109375,1.4375 0.109375,2.125 0,0.828125 0,1.5625 -0.125,2.265625 C 3.828125,-0.328125 3.203125,0 2.71875,0 Z m 0,0"
               id="path113" />
          </g>
        </g>
      </g>
    </g>
    <g
       inkscape:label=""
       transform="translate(92.266215,179.66025)"
       id="g6417">
      <g
         clip-path="url(#clipPath8631)"
         id="g6415"
         transform="matrix(0.352778,0,0,0.352778,-0.0496094,0.00370415)">
        <g
           fill="#000000"
           fill-opacity="1"
           id="g6413">
          <g
             id="g6411"
             transform="translate(0,6.177)">
            <path
               d="M 4.015625,-3.390625 C 4.4375,-3.9375 5.03125,-4.703125 5.3125,-5 5.890625,-5.671875 6.5625,-5.765625 7.03125,-5.765625 V -6.1875 c -0.625,0.03125 -0.640625,0.03125 -1.203125,0.03125 -0.546875,0 -0.578125,0 -1.296875,-0.03125 v 0.421875 c 0.1875,0.03125 0.421875,0.109375 0.421875,0.4375 0,0.25 -0.140625,0.40625 -0.21875,0.515625 L 3.8125,-3.640625 2.703125,-5.125 C 2.65625,-5.171875 2.5625,-5.3125 2.5625,-5.40625 2.5625,-5.5 2.640625,-5.75 3.0625,-5.765625 V -6.1875 c -0.34375,0.03125 -1.078125,0.03125 -1.46875,0.03125 -0.46875,0 -0.5,0 -1.375,-0.03125 v 0.421875 c 0.734375,0 1,0.03125 1.296875,0.421875 l 1.6875,2.1875 C 3.234375,-3.125 3.28125,-3.046875 3.28125,-3 c 0,0.046875 -1.109375,1.453125 -1.265625,1.640625 -0.625,0.765625 -1.25,0.921875 -1.875,0.9375 V 0 c 0.546875,-0.03125 0.578125,-0.03125 1.1875,-0.03125 0.546875,0 0.578125,0 1.296875,0.03125 v -0.421875 c -0.34375,-0.03125 -0.40625,-0.25 -0.40625,-0.453125 0,-0.234375 0.109375,-0.34375 0.25,-0.53125 C 2.6875,-1.703125 3.15625,-2.296875 3.5,-2.734375 l 1.171875,1.53125 c 0.25,0.3125 0.25,0.34375 0.25,0.421875 0,0.125 -0.109375,0.34375 -0.5,0.359375 V 0 c 0.375,-0.03125 1.078125,-0.03125 1.46875,-0.03125 0.484375,0 0.5,0 1.375,0.03125 v -0.421875 c -0.765625,0 -1.03125,-0.015625 -1.375,-0.484375 z m 0,0"
               id="path6409" />
          </g>
        </g>
      </g>
    </g>
    <g
       inkscape:label=""
       transform="matrix(2.0824065,0,0,1.8885042,59.017139,193.6246)"
       id="g10809">
      <g
         clip-path="url(#clipPath7319)"
         id="g10807"
         transform="matrix(0.352778,0,0,0.352778,-0.275608,-0.00304272)">
        <g
           fill="#000000"
           fill-opacity="1"
           id="g10805">
          <g
             id="g10803"
             transform="translate(0,8.368)">
            <path
               d="m 10.359375,-3.578125 c 0,-2.640625 -2.15625,-4.78125 -4.78125,-4.78125 -2.671875,0 -4.796875,2.15625 -4.796875,4.78125 0,2.625 2.15625,4.765625 4.78125,4.765625 2.671875,0 4.796875,-2.15625 4.796875,-4.765625 z M 2.71875,-6.671875 c -0.015625,-0.03125 -0.125,-0.125 -0.125,-0.15625 C 2.59375,-6.890625 3.765625,-8 5.5625,-8 c 0.5,0 1.828125,0.0625 3,1.171875 l -2.984375,3 z M 2.3125,-0.59375 C 1.4375,-1.5625 1.140625,-2.671875 1.140625,-3.578125 c 0,-1.109375 0.421875,-2.15625 1.171875,-3 l 3,3 z m 6.515625,-5.984375 c 0.6875,0.71875 1.171875,1.8125 1.171875,3 0,1.09375 -0.421875,2.140625 -1.171875,2.984375 L 5.84375,-3.578125 Z M 8.421875,-0.5 c 0.03125,0.03125 0.125,0.125 0.125,0.15625 0,0.0625 -1.15625,1.171875 -2.96875,1.171875 -0.5,0 -1.8125,-0.0625 -3,-1.171875 l 2.984375,-3 z m 0,0"
               id="path10801" />
          </g>
        </g>
      </g>
    </g>
  </g>
</svg>
